{
.appVersion = "1192";
DisplayStrings = (
"µ/dvKSsRa/Upsilon/gamma/theta/nu",
"E ! /Epsilonwithtonos ! /Etawithtonos ! /Iotawithtonos ! /Omicronwithtonos \012E! /Upsilonwithtonos \012! /Omegawithtonos ! /Epsilonlenis ! /Epsilonasper ! /Epsilonlenisgrave ! /Epsilonaspergrave \012! /Epsilonlenisacute ! /Epsilonasperacute ! /Epsilongrave ! /Epsilonacute ! /Etalenis \012! /Etaasper ! /Etalenisgrave ! /Etaaspergrave ! /Etalenisacute \012! /Etaasperacute \012! /Etalenistilde ! /Etaaspertilde ! /Etagrave ! /Etaacute \012! /Etalenisiotasub \012! /Etaasperiotasub ! /Etalenisgraveiotasub ! /Etaaspergraveiotasub ! /Etalenisacuteiotasub \012! /Etaasperacuteiotasub \012! /Etalenistildeiotasub ! /Etaaspertildeiotasub ! /Iotalenis ! /Iotaasper ! /Iotalenisgrave \012! /Iotaaspergrave \012! /Iotalenisacute ! /Iotaasperacute ! /Iotalenistilde ! /Iotaaspertilde ! /Iotagrave ! /Iotaacute \012! /Omicronlenis \012! /Omicronasper  /Omicronlenisgrave ! /Omicronaspergrave ! /Omicronlenisacute ! /Omicronasperacute \012! /Omicrongrave \012! /Omicronacute ! /Rhoasper ! /Upsilonasper ! /Upsilonaspergrave ! /Upsilonasperacute \012! /Upsilonaspertilde ! /Upsilongrave ! /Upsilonacute ! /Omegalenis ! /Omegaasper \012! /Omegalenisgrave ! /Omegaaspergrave ! /Omegalenisacute ! /Omegaasperacute \012! /Omegalenistilde ! /Omegaaspertilde ! /Omegagrave ! /Omegaacute ! /Omegalenisiotasub \012! /Omegaasperiotasub ! /Omegalenisgraveiotasub ! /Omegaaspergraveiotasub ! /Omegalenisacuteiotasub \012! /Omegaasperacuteiotasub ! /Omegalenistildeiotasub ! /Omegaaspertildeiotasub"
);
copyright = "Copyright 2014 Eczar Project Authors (info@rosettatype.com)";
customParameters = (
{
name = openTypeOS2VendorID;
value = " RST";
},
{
name = glyphOrder;
value = (
.notdef,
NULL,
CR,
space,
nbspace,
enspace,
emspace,
thinspace,
exclam,
quotedbl,
numbersign,
dollar,
percent,
ampersand,
quotesingle,
parenleft,
parenright,
asterisk,
plus,
comma,
hyphen,
period,
slash,
zero,
one,
two,
three,
four,
five,
six,
seven,
eight,
nine,

glyphs = (
{
glyphname = .notdef;
lastChange = "2018-12-16 00:51:22 +0000";
layers = (
{
layerId = "3A083A2A-974B-4791-8355-BC872DC0CF17";
paths = (
{
closed = 1;
nodes = (
"465 23 LINE",
"465 458 LINE",
"47 458 LINE",
"47 23 LINE"
);
},
{
closed = 1;
nodes = (
"154 344 LINE",
"361 344 LINE",
"361 138 LINE",
"154 138 LINE"
);
}
);
width = 512;
}
);
},
{
color = 3;
glyphname = exclam;
lastChange = "2019-02-26 16:50:53 +0000";
layers = (
{
layerId = "3A083A2A-974B-4791-8355-BC872DC0CF17";
paths = (
{
closed = 1;
nodes = (
"232 252 LINE",
"278 695 LINE",
"229 723 OFFCURVE",
"127 721 OFFCURVE",
"71 697 CURVE",
"115 252 LINE"
);
},
{
closed = 1;
nodes = (
"229 2 OFFCURVE",
"258 36 OFFCURVE",
"271 81 CURVE",
"259 125 OFFCURVE",
"219 162 OFFCURVE",
"171 183 CURVE",
"123 156 OFFCURVE",
"89 119 OFFCURVE",
"81 65 CURVE",
"103 22 OFFCURVE",
"138 -6 OFFCURVE",
"186 -20 CURVE"
);
}
);
width = 349;
}
);
rightKerningGroup = space;
unicode = 0021;
},
{
color = 3;
glyphname = quotedbl;
lastChange = "2019-02-26 16:50:53 +0000";
layers = (
{
layerId = "3A083A2A-974B-4791-8355-BC872DC0CF17";
paths = (
{
closed = 1;
nodes = (
"404 486 OFFCURVE",
"445 623 OFFCURVE",
"439 671 CURVE",
"328 693 LINE",
"281 646 LINE",
"285 605 OFFCURVE",
"271 516 OFFCURVE",
"240 437 CURVE",
"338 402 LINE"
);
},
{
closed = 1;
nodes = (
"175 486 OFFCURVE",
"216 623 OFFCURVE",
"210 671 CURVE",
"99 693 LINE",
"52 646 LINE",
"56 605 OFFCURVE",
"42 516 OFFCURVE",
"11 437 CURVE",
"109 402 LINE"
);
}
);
width = 442;
}
);
rightKerningGroup = space;
unicode = 0022;
},
{
color = 3;
glyphname = numbersign;
lastChange = "2019-02-26 16:50:53 +0000";
layers = (
{
layerId = "3A083A2A-974B-4791-8355-BC872DC0CF17";
paths = (
{
closed = 1;
nodes = (
"497 520 LINE",
"407 530 LINE",
"326 0 LINE",
"416 -11 LINE"
);
},
{
closed = 1;
nodes = (
"538 122 LINE",
"538 207 LINE",
"54 207 LINE",
"54 122 LINE"
);
},
{
closed = 1;
nodes = (
"298 520 LINE",
"208 530 LINE",
"127 0 LINE",
"217 -11 LINE"
);
},
{
closed = 1;
nodes = (
"567 324 LINE",
"567 407 LINE",
"83 407 LINE",
"83 324 LINE"
);
}
);
width = 621;
}
);
leftMetricsKey = minus;
rightKerningGroup = space;
rightMetricsKey = minus;
unicode = 0023;
},
{
color = 3;
glyphname = dollar;
lastChange = "2019-02-26 16:50:53 +0000";
layers = (
{
components = (
{
name = S;
}
);
layerId = "3A083A2A-974B-4791-8355-BC872DC0CF17";
paths = (
{
closed = 1;
nodes = (
"374 -145 LINE",
"374 35 LINE",
"251 35 LINE",
"251 -145 LINE"
);
},
{
closed = 1;
nodes = (
"373 633 LINE",
"373 785 LINE",
"251 785 LINE",
"251 633 LINE"
);
}
);
width = 600;
}
);
leftKerningGroup = S;
leftMetricsKey = S;
rightKerningGroup = S;
rightMetricsKey = S;
unicode = 0024;
},
{
color = 3;
glyphname = percent;
lastChange = "2019-02-26 16:50:53 +0000";
layers = (
{
layerId = "3A083A2A-974B-4791-8355-BC872DC0CF17";
paths = (
{
closed = 1;
nodes = (
"671 544 LINE",
"600 602 LINE",
"144 29 LINE",
"216 -30 LINE"
);
},
{
closed = 1;
nodes = (
"296 265 OFFCURVE",
"361 340 OFFCURVE",
"361 431 CURVE SMOOTH",
"361 526 OFFCURVE",
"290 607 OFFCURVE",
"201 607 CURVE SMOOTH",
"112 607 OFFCURVE",
"42 525 OFFCURVE",
"42 433 CURVE SMOOTH",
"42 340 OFFCURVE",
"117 265 OFFCURVE",
"206 265 CURVE SMOOTH"
);
},
{
closed = 1;
nodes = (
"169 345 OFFCURVE",
"144 389 OFFCURVE",
"144 435 CURVE SMOOTH",
"144 463 OFFCURVE",
"154 493 OFFCURVE",
"171 512 CURVE",
"228 529 OFFCURVE",
"255 482 OFFCURVE",
"255 433 CURVE SMOOTH",
"255 403 OFFCURVE",
"245 372 OFFCURVE",
"225 354 CURVE"
);
},
{
closed = 1;
nodes = (
"723 -20 OFFCURVE",
"788 56 OFFCURVE",
"788 147 CURVE SMOOTH",
"788 241 OFFCURVE",
"717 321 OFFCURVE",
"628 321 CURVE SMOOTH",
"539 321 OFFCURVE",
"469 240 OFFCURVE",
"469 149 CURVE SMOOTH",
"469 54 OFFCURVE",
"544 -20 OFFCURVE",
"633 -20 CURVE SMOOTH"
);
},
{
closed = 1;
nodes = (
"597 61 OFFCURVE",
"572 104 OFFCURVE",
"572 150 CURVE SMOOTH",
"572 179 OFFCURVE",
"582 207 OFFCURVE",
"599 227 CURVE",
"656 244 OFFCURVE",
"683 198 OFFCURVE",
"683 148 CURVE SMOOTH",
"683 118 OFFCURVE",
"673 87 OFFCURVE",
"653 69 CURVE"
);
}
);
width = 831;
}
);
rightKerningGroup = space;
unicode = 0025;
},
{
color = 3;
glyphname = ampersand;
lastChange = "2019-02-26 16:50:53 +0000";
layers = (
{
layerId = "3A083A2A-974B-4791-8355-BC872DC0CF17";
paths = (
{
closed = 1;
nodes = (
"504 -28 OFFCURVE",
"612 84 OFFCURVE",
"612 225 CURVE SMOOTH",
"612 289 OFFCURVE",
"590 362 OFFCURVE",
"539 419 CURVE",
"403 374 LINE",
"448 336 OFFCURVE",
"471 275 OFFCURVE",
"471 217 CURVE SMOOTH",
"471 168 OFFCURVE",
"454 123 OFFCURVE",
"416 93 CURVE",
"388 77 OFFCURVE",
"347 70 OFFCURVE",
"316 70 CURVE SMOOTH",
"241 70 OFFCURVE",
"172 107 OFFCURVE",
"172 181 CURVE SMOOTH",
"172 242 OFFCURVE",
"221 289 OFFCURVE",
"307 287 CURVE",
"324 361 LINE",
"191 409 LINE",
"186 383 LINE",
"98 375 OFFCURVE",
"12 312 OFFCURVE",
"12 204 CURVE SMOOTH",
"12 66 OFFCURVE",
"147 -28 OFFCURVE",
"318 -28 CURVE SMOOTH"
);
},
{
closed = 1;
nodes = (
"255 373 LINE",
"210 394 OFFCURVE",
"189 437 OFFCURVE",
"189 472 CURVE SMOOTH",
"189 512 OFFCURVE",
"215 550 OFFCURVE",
"250 564 CURVE",
"432 488 LINE",
"485 624 LINE",
"418 654 OFFCURVE",
"338 668 OFFCURVE",
"275 668 CURVE SMOOTH",
"115 668 OFFCURVE",
"33 579 OFFCURVE",
"33 494 CURVE SMOOTH",
"33 422 OFFCURVE",
"91 351 OFFCURVE",
"216 339 CURVE"
);
},
{
closed = 1;
nodes = (
"551 395 OFFCURVE",
"618 358 OFFCURVE",
"696 308 CURVE",
"739 431 LINE",
"657 511 OFFCURVE",
"539 473 OFFCURVE",
"352 358 CURVE",
"390 287 LINE"
);
}
);
width = 701;
}
);
rightKerningGroup = space;
unicode = 0026;
},
{
color = 3;
glyphname = quotesingle;
lastChange = "2019-02-26 16:50:53 +0000";
layers = (
{
layerId = "3A083A2A-974B-4791-8355-BC872DC0CF17";
paths = (
{
closed = 1;
nodes = (
"122 534 OFFCURVE",
"162 653 OFFCURVE",
"159 733 CURVE",
"48 749 LINE",
"3 702 LINE",
"7 661 OFFCURVE",
"5 578 OFFCURVE",
"-27 499 CURVE",
"70 464 LINE"
);
}
);
width = 186;
}
);
rightKerningGroup = space;
unicode = 0027;
},
{
color = 3;
glyphname = parenleft;
lastChange = "2019-02-26 16:50:53 +0000";
layers = (
{
layerId = "3A083A2A-974B-4791-8355-BC872DC0CF17";
paths = (
{
closed = 1;
nodes = (
"319 -98 LINE",
"250 39 OFFCURVE",
"206 171 OFFCURVE",
"206 307 CURVE SMOOTH",
"206 429 OFFCURVE",
"244 550 OFFCURVE",
"322 676 CURVE",
"222 732 LINE",
"90 596 OFFCURVE",
"31 453 OFFCURVE",
"31 303 CURVE SMOOTH",
"31 137 OFFCURVE",
"101 -16 OFFCURVE",
"217 -155 CURVE"
);
}
);
width = 358;
}
);
rightKerningGroup = parenthesis;
unicode = 0028;
},
{
color = 3;
glyphname = parenright;
lastChange = "2019-02-26 16:50:53 +0000";
layers = (
{
layerId = "3A083A2A-974B-4791-8355-BC872DC0CF17";
paths = (
{
closed = 1;
nodes = (
"257 -16 OFFCURVE",
"327 137 OFFCURVE",
"327 303 CURVE SMOOTH",
"327 453 OFFCURVE",
"268 596 OFFCURVE",
"136 732 CURVE",
"36 676 LINE",
"114 550 OFFCURVE",
"152 429 OFFCURVE",
"152 307 CURVE SMOOTH",
"152 171 OFFCURVE",
"108 39 OFFCURVE",
"39 -98 CURVE",
"141 -155 LINE"
);
}
);
width = 358;
}
);
leftKerningGroup = parenthesis;
unicode = 0029;
},
{
color = 3;
glyphname = asterisk;
lastChange = "2019-02-26 16:50:53 +0000";
layers = (
{
layerId = "3A083A2A-974B-4791-8355-BC872DC0CF17";
paths = (
{
closed = 1;
nodes = (
"162 639 LINE",
"69 775 LINE",
"16 651 LINE",
"132 584 LINE"
);
},
{
closed = 1;
nodes = (
"196 543 LINE",
"154 589 LINE",
"-4 547 LINE",
"95 454 LINE"
);
},
{
closed = 1;
nodes = (
"308 461 LINE",
"255 584 LINE",
"198 558 LINE",
"192 394 LINE"
);
},
{
closed = 1;
nodes = (
"362 668 LINE",
"228 653 LINE",
"237 592 LINE",
"390 538 LINE"
);
},
{
closed = 1;
nodes = (
"316 769 LINE",
"182 784 LINE",
"152 653 LINE",
"214 640 LINE"
);
}
);
width = 418;
}
);
rightKerningGroup = space;
unicode = 002A;
},
{
color = 3;
glyphname = plus;
lastChange = "2018-12-16 00:51:22 +0000";
layers = (
{
layerId = "3A083A2A-974B-4791-8355-BC872DC0CF17";
paths = (
{
closed = 1;
nodes = (
"338 24 LINE",
"338 207 LINE",
"516 207 LINE",
"516 306 LINE",
"338 306 LINE",
"338 491 LINE",
"231 491 LINE",
"231 306 LINE",
"54 306 LINE",
"54 207 LINE",
"231 207 LINE",
"231 24 LINE"
);
}
);
width = 570;
}
);
leftMetricsKey = minus;
rightMetricsKey = minus;
unicode = 002B;
},
{
color = 3;
glyphname = comma;
lastChange = "2019-02-26 16:50:53 +0000";
layers = (
{
layerId = "3A083A2A-974B-4791-8355-BC872DC0CF17";
paths = (
{
closed = 1;
nodes = (
"177 -104 OFFCURVE",
"250 -18 OFFCURVE",
"250 59 CURVE SMOOTH",
"250 110 OFFCURVE",
"219 156 OFFCURVE",
"152 181 CURVE",
"108 157 OFFCURVE",
"73 119 OFFCURVE",
"64 66 CURVE",
"118 20 LINE",
"116 -13 OFFCURVE",
"89 -57 OFFCURVE",
"49 -91 CURVE",
"92 -142 LINE"
);
}
);
width = 308;
}
);
rightKerningGroup = space;
unicode = 002C;
},
{
color = 3;
glyphname = hyphen;
lastChange = "2019-02-26 16:50:53 +0000";
layers = (
{
layerId = "3A083A2A-974B-4791-8355-BC872DC0CF17";
paths = (
{
closed = 1;
nodes = (
"393 222 LINE",
"414 264 LINE",
"358 354 LINE",
"54 354 LINE",
"33 312 LINE",
"89 222 LINE"
);
}
);
width = 463;
}
);
rightKerningGroup = space;
unicode = 002D;
},
{
color = 3;
glyphname = period;
lastChange = "2019-02-26 16:50:53 +0000";
layers = (
{
layerId = "3A083A2A-974B-4791-8355-BC872DC0CF17";
paths = (
{
closed = 1;
nodes = (
"240 -19 OFFCURVE",
"275 27 OFFCURVE",
"290 66 CURVE",
"269 94 OFFCURVE",
"224 135 OFFCURVE",
"185 151 CURVE",
"151 132 OFFCURVE",
"117 86 OFFCURVE",
"96 43 CURVE",
"119 11 OFFCURVE",
"171 -28 OFFCURVE",
"206 -42 CURVE"
);
}
);
width = 290;
}
);
rightKerningGroup = space;
unicode = 002E;
},
{
color = 3;
glyphname = slash;
lastChange = "2019-02-26 16:50:53 +0000";
layers = (
{
layerId = "3A083A2A-974B-4791-8355-BC872DC0CF17";
paths = (
{
closed = 1;
nodes = (
"424 686 LINE",
"321 731 LINE",
"13 -78 LINE",
"118 -121 LINE"
);
}
);
width = 422;
}
);
rightKerningGroup = space;
unicode = 002F;
},
{
color = 3;
glyphname = zero;
lastChange = "2019-02-26 16:50:53 +0000";
layers = (
{
layerId = "3A083A2A-974B-4791-8355-BC872DC0CF17";
paths = (
{
closed = 1;
nodes = (
"478 -15 OFFCURVE",
"576 137 OFFCURVE",
"576 331 CURVE SMOOTH",
"576 539 OFFCURVE",
"456 666 OFFCURVE",
"304 666 CURVE SMOOTH",
"140 666 OFFCURVE",
"24 518 OFFCURVE",
"24 324 CURVE SMOOTH",
"24 145 OFFCURVE",
"122 -15 OFFCURVE",
"302 -15 CURVE SMOOTH"
);
},
{
closed = 1;
nodes = (
"236 80 OFFCURVE",
"205 221 OFFCURVE",
"205 335 CURVE SMOOTH",
"205 421 OFFCURVE",
"223 526 OFFCURVE",
"259 569 CURVE",
"270 571 OFFCURVE",
"279 572 OFFCURVE",
"287 572 CURVE SMOOTH",
"365 572 OFFCURVE",
"398 443 OFFCURVE",
"398 317 CURVE SMOOTH",
"398 227 OFFCURVE",
"382 130 OFFCURVE",
"345 85 CURVE",
"335 81 OFFCURVE",
"326 80 OFFCURVE",
"318 80 CURVE SMOOTH"
);
}
);
width = 602;
}
);
rightKerningGroup = space;
unicode = 0030;
},
{
color = 3;
glyphname = one;
lastChange = "2019-02-26 16:50:53 +0000";
layers = (
{
layerId = "3A083A2A-974B-4791-8355-BC872DC0CF17";
paths = (
{
closed = 1;
nodes = (
"336 0 LINE",
"336 618 LINE",
"163 602 LINE",
"163 0 LINE"
);
},
{
closed = 1;
nodes = (
"176 0 LINE",
"181 91 LINE",
"129 78 OFFCURVE",
"65 56 OFFCURVE",
"27 33 CURVE",
"33 0 LINE"
);
},
{
closed = 1;
nodes = (
"451 0 LINE",
"454 53 LINE",
"316 77 LINE",
"313 0 LINE"
);
},
{
closed = 1;
nodes = (
"257 539 LINE",
"280 626 LINE",
"262 670 LINE",
"10 519 LINE",
"45 453 LINE"
);
},
{
closed = 1;
nodes = (
"336 618 LINE",
"262 670 LINE",
"241 591 LINE"
);
}
);
width = 454;
}
);
rightKerningGroup = space;
unicode = 0031;
},
{
color = 3;
glyphname = two;
lastChange = "2019-02-26 16:50:53 +0000";
layers = (
{
layerId = "3A083A2A-974B-4791-8355-BC872DC0CF17";
paths = (
{
closed = 1;
nodes = (
"506 0 LINE",
"506 122 LINE",
"239 78 LINE",
"235 85 LINE",
"368 219 LINE",
"475 326 OFFCURVE",
"522 394 OFFCURVE",
"522 471 CURVE SMOOTH",
"522 581 OFFCURVE",
"430 668 OFFCURVE",
"292 670 CURVE SMOOTH",
"214 672 OFFCURVE",
"121 645 OFFCURVE",
"50 603 CURVE",
"159 566 LINE",
"188 577 OFFCURVE",
"220 582 OFFCURVE",
"241 582 CURVE SMOOTH",
"313 582 OFFCURVE",
"345 540 OFFCURVE",
"345 491 CURVE SMOOTH",
"345 440 OFFCURVE",
"310 382 OFFCURVE",
"205 272 CURVE SMOOTH",
"36 90 LINE",
"57 0 LINE"
);
},
{
closed = 1;
nodes = (
"544 71 OFFCURVE",
"555 148 OFFCURVE",
"558 207 CURVE",
"481 226 LINE",
"346 16 LINE",
"523 0 LINE"
);
},
{
closed = 1;
nodes = (
"177 405 LINE",
"231 597 LINE",
"50 603 LINE",
"45 553 OFFCURVE",
"55 454 OFFCURVE",
"67 405 CURVE"
);
}
);
width = 599;
}
);
rightKerningGroup = space;
unicode = 0032;
},
{
color = 3;
glyphname = three;
lastChange = "2019-02-26 16:50:53 +0000";
layers = (
{
layerId = "3A083A2A-974B-4791-8355-BC872DC0CF17";
paths = (
{
closed = 1;
nodes = (
"443 -20 OFFCURVE",
"548 66 OFFCURVE",
"548 174 CURVE SMOOTH",
"548 269 OFFCURVE",
"468 349 OFFCURVE",
"364 346 CURVE",
"359 359 LINE",
"183 355 LINE",
"173 355 LINE",
"178 269 LINE",
"234 271 LINE",
"319 271 OFFCURVE",
"366 218 OFFCURVE",
"366 161 CURVE SMOOTH",
"366 134 OFFCURVE",
"355 105 OFFCURVE",
"332 82 CURVE",
"259 91 OFFCURVE",
"167 146 OFFCURVE",
"89 192 CURVE",
"42 32 LINE",
"114 -1 OFFCURVE",
"203 -20 OFFCURVE",
"280 -20 CURVE SMOOTH"
);
},
{
closed = 1;
nodes = (
"224 612 LINE",
"58 609 LINE",
"53 559 OFFCURVE",
"57 482 OFFCURVE",
"69 432 CURVE",
"171 431 LINE"
);
},
{
closed = 1;
nodes = (
"371 322 LINE",
"371 338 LINE",
"472 366 OFFCURVE",
"520 433 OFFCURVE",
"520 499 CURVE SMOOTH",
"520 585 OFFCURVE",
"441 670 OFFCURVE",
"284 670 CURVE SMOOTH",
"205 670 OFFCURVE",
"117 649 OFFCURVE",
"57 609 CURVE",
"94 545 LINE",
"140 571 OFFCURVE",
"179 581 OFFCURVE",
"215 581 CURVE SMOOTH",
"292 581 OFFCURVE",
"342 537 OFFCURVE",
"342 477 CURVE SMOOTH",
"342 420 OFFCURVE",
"292 359 OFFCURVE",
"183 355 CURVE",
"191 272 LINE"
);
}
);
width = 591;
}
);
rightKerningGroup = space;
unicode = 0033;
},
{
color = 3;
glyphname = four;
lastChange = "2019-02-26 16:50:53 +0000";
layers = (
{
layerId = "3A083A2A-974B-4791-8355-BC872DC0CF17";
paths = (
{
closed = 1;
nodes = (
"563 157 LINE",
"594 187 LINE",
"590 267 LINE",
"98 255 LINE",
"143 226 LINE",
"384 579 LINE",
"418 553 LINE",
"421 654 LINE",
"350 670 LINE",
"13 250 LINE",
"48 157 LINE"
);
},
{
closed = 1;
nodes = (
"331 0 LINE",
"336 91 LINE",
"290 77 OFFCURVE",
"231 56 OFFCURVE",
"194 33 CURVE",
"200 0 LINE"
);
},
{
closed = 1;
nodes = (
"550 0 LINE",
"553 53 LINE",
"415 77 LINE",
"412 0 LINE"
);
},
{
closed = 1;
nodes = (
"480 0 LINE",
"480 654 LINE",
"346 656 LINE",
"324 539 LINE",
"313 401 LINE",
"313 0 LINE"
);
}
);
width = 614;
}
);
rightKerningGroup = space;
unicode = 0034;
},
{
color = 3;
glyphname = five;
lastChange = "2019-02-26 16:50:53 +0000";
layers = (
{
layerId = "3A083A2A-974B-4791-8355-BC872DC0CF17";
paths = (
{
closed = 1;
nodes = (
"444 -23 OFFCURVE",
"537 78 OFFCURVE",
"537 196 CURVE SMOOTH",
"537 336 OFFCURVE",
"408 402 OFFCURVE",
"296 404 CURVE SMOOTH",
"271 404 OFFCURVE",
"242 403 OFFCURVE",
"220 394 CURVE",
"234 561 LINE",
"448 549 LINE",
"457 650 LINE",
"97 650 LINE",
"67 321 LINE",
"120 265 LINE",
"151 275 OFFCURVE",
"182 280 OFFCURVE",
"208 280 CURVE SMOOTH",
"304 280 OFFCURVE",
"379 244 OFFCURVE",
"379 164 CURVE SMOOTH",
"379 140 OFFCURVE",
"373 112 OFFCURVE",
"342 80 CURVE",
"266 90 OFFCURVE",
"167 137 OFFCURVE",
"88 204 CURVE",
"35 47 LINE",
"110 1 OFFCURVE",
"208 -23 OFFCURVE",
"284 -23 CURVE SMOOTH"
);
},
{
closed = 1;
nodes = (
"486 448 LINE",
"499 498 OFFCURVE",
"508 601 OFFCURVE",
"505 650 CURVE",
"337 646 LINE",
"380 448 LINE"
);
}
);
width = 573;
}
);
rightKerningGroup = space;
unicode = 0035;
},
{
color = 3;
glyphname = six;
lastChange = "2019-02-26 16:50:53 +0000";
layers = (
{
layerId = "3A083A2A-974B-4791-8355-BC872DC0CF17";
paths = (
{
closed = 1;
nodes = (
"467 -20 OFFCURVE",
"556 85 OFFCURVE",
"556 204 CURVE SMOOTH",
"556 322 OFFCURVE",
"470 398 OFFCURVE",
"373 398 CURVE SMOOTH",
"332 398 OFFCURVE",
"279 384 OFFCURVE",
"233 343 CURVE",
"256 268 LINE",
"277 282 OFFCURVE",
"297 290 OFFCURVE",
"315 290 CURVE SMOOTH",
"361 290 OFFCURVE",
"392 238 OFFCURVE",
"392 177 CURVE SMOOTH",
"392 132 OFFCURVE",
"375 89 OFFCURVE",
"340 65 CURVE",
"250 60 OFFCURVE",
"206 162 OFFCURVE",
"206 278 CURVE SMOOTH",
"206 383 OFFCURVE",
"243 496 OFFCURVE",
"314 534 CURVE",
"501 494 LINE",
"501 659 LINE",
"172 667 OFFCURVE",
"34 451 OFFCURVE",
"34 263 CURVE SMOOTH",
"34 79 OFFCURVE",
"169 -20 OFFCURVE",
"315 -20 CURVE SMOOTH"
);
}
);
width = 582;
}
);
rightKerningGroup = space;
unicode = 0036;
},
{
color = 3;
glyphname = seven;
lastChange = "2019-02-26 16:50:53 +0000";
layers = (
{
layerId = "3A083A2A-974B-4791-8355-BC872DC0CF17";
paths = (
{
closed = 1;
nodes = (
"322 183 OFFCURVE",
"410 370 OFFCURVE",
"515 555 CURVE",
"470 650 LINE",
"32 650 LINE",
"78 537 LINE",
"354 547 LINE",
"361 539 LINE",
"251 380 OFFCURVE",
"162 212 OFFCURVE",
"79 34 CURVE",
"243 -22 LINE"
);
},
{
closed = 1;
nodes = (
"154 434 LINE",
"189 646 LINE",
"23 650 LINE",
"18 601 OFFCURVE",
"28 484 OFFCURVE",
"40 434 CURVE"
);
}
);
width = 510;
}
);
rightKerningGroup = space;
unicode = 0037;
},
{
color = 3;
glyphname = eight;
lastChange = "2019-02-26 16:50:53 +0000";
layers = (
{
layerId = "3A083A2A-974B-4791-8355-BC872DC0CF17";
paths = (
{
closed = 1;
nodes = (
"427 -22 OFFCURVE",
"533 52 OFFCURVE",
"533 169 CURVE SMOOTH",
"533 277 OFFCURVE",
"444 335 OFFCURVE",
"349 386 CURVE SMOOTH",
"276 425 OFFCURVE",
"211 455 OFFCURVE",
"211 514 CURVE SMOOTH",
"211 532 OFFCURVE",
"218 555 OFFCURVE",
"235 575 CURVE",
"251 582 OFFCURVE",
"267 585 OFFCURVE",
"281 585 CURVE SMOOTH",
"332 585 OFFCURVE",
"367 548 OFFCURVE",
"367 497 CURVE SMOOTH",
"367 467 OFFCURVE",
"354 423 OFFCURVE",
"299 388 CURVE",
"372 336 LINE",
"466 371 OFFCURVE",
"507 439 OFFCURVE",
"507 502 CURVE SMOOTH",
"507 588 OFFCURVE",
"428 668 OFFCURVE",
"288 668 CURVE SMOOTH",
"140 668 OFFCURVE",
"57 580 OFFCURVE",
"57 483 CURVE SMOOTH",
"57 412 OFFCURVE",
"101 360 OFFCURVE",
"169 319 CURVE",
"229 285 LINE",
"334 228 OFFCURVE",
"373 195 OFFCURVE",
"373 134 CURVE SMOOTH",
"373 110 OFFCURVE",
"367 92 OFFCURVE",
"351 67 CURVE",
"332 60 OFFCURVE",
"314 58 OFFCURVE",
"299 58 CURVE SMOOTH",
"235 58 OFFCURVE",
"201 103 OFFCURVE",
"201 155 CURVE SMOOTH",
"201 204 OFFCURVE",
"229 258 OFFCURVE",
"292 287 CURVE",
"229 358 LINE",
"107 330 OFFCURVE",
"37 249 OFFCURVE",
"37 161 CURVE SMOOTH",
"37 51 OFFCURVE",
"144 -22 OFFCURVE",
"286 -22 CURVE SMOOTH"
);
}
);
width = 570;
}
);
rightKerningGroup = space;
unicode = 0038;
},
{
color = 3;
glyphname = nine;
lastChange = "2019-02-26 16:50:53 +0000";
layers = (
{
layerId = "3A083A2A-974B-4791-8355-BC872DC0CF17";
paths = (
{
closed = 1;
nodes = (
"353 -26 OFFCURVE",
"543 136 OFFCURVE",
"543 368 CURVE SMOOTH",
"543 539 OFFCURVE",
"441 670 OFFCURVE",
"271 670 CURVE SMOOTH",
"127 670 OFFCURVE",
"27 574 OFFCURVE",
"27 446 CURVE SMOOTH",
"27 286 OFFCURVE",
"182 185 OFFCURVE",
"338 248 CURVE",
"328 340 LINE",
"249 322 OFFCURVE",
"202 384 OFFCURVE",
"202 460 CURVE SMOOTH",
"202 509 OFFCURVE",
"219 558 OFFCURVE",
"253 574 CURVE",
"342 590 OFFCURVE",
"377 480 OFFCURVE",
"377 367 CURVE SMOOTH",
"377 263 OFFCURVE",
"348 155 OFFCURVE",
"276 113 CURVE",
"82 159 LINE",
"110 -10 LINE"
);
}
);
width = 570;
}
);
rightKerningGroup = space;
unicode = 0039;
},
{
color = 3;
glyphname = colon;
lastChange = "2019-02-26 16:50:53 +0000";
layers = (
{
layerId = "3A083A2A-974B-4791-8355-BC872DC0CF17";
paths = (
{
closed = 1;
nodes = (
"244 2 OFFCURVE",
"273 36 OFFCURVE",
"286 81 CURVE",
"274 125 OFFCURVE",
"234 162 OFFCURVE",
"186 183 CURVE",
"138 156 OFFCURVE",
"104 119 OFFCURVE",
"96 65 CURVE",
"118 22 OFFCURVE",
"153 -6 OFFCURVE",
"201 -20 CURVE"
);
},
{
closed = 1;
nodes = (
"244 311 OFFCURVE",
"273 345 OFFCURVE",
"286 390 CURVE",
"274 435 OFFCURVE",
"234 470 OFFCURVE",
"186 491 CURVE",
"138 466 OFFCURVE",
"104 427 OFFCURVE",
"96 374 CURVE",
"118 332 OFFCURVE",
"153 304 OFFCURVE",
"201 289 CURVE"
);
}
);
width = 286;
}
);
leftMetricsKey = period;
rightKerningGroup = space;
rightMetricsKey = period;
unicode = 003A;
},
{
color = 3;
glyphname = semicolon;
lastChange = "2019-02-26 16:50:53 +0000";
layers = (
{
layerId = "3A083A2A-974B-4791-8355-BC872DC0CF17";
paths = (
{
closed = 1;
nodes = (
"177 -104 OFFCURVE",
"250 -18 OFFCURVE",
"250 59 CURVE SMOOTH",
"250 110 OFFCURVE",
"219 156 OFFCURVE",
"152 181 CURVE",
"108 157 OFFCURVE",
"73 119 OFFCURVE",
"64 66 CURVE",
"118 20 LINE",
"116 -13 OFFCURVE",
"89 -57 OFFCURVE",
"49 -91 CURVE",
"92 -142 LINE"
);
},
{
closed = 1;
nodes = (
"212 311 OFFCURVE",
"241 345 OFFCURVE",
"254 390 CURVE",
"242 435 OFFCURVE",
"202 470 OFFCURVE",
"154 491 CURVE",
"106 466 OFFCURVE",
"72 427 OFFCURVE",
"64 374 CURVE",
"86 332 OFFCURVE",
"121 304 OFFCURVE",
"169 289 CURVE"
);
}
);
width = 312;
}
);
leftMetricsKey = comma;
rightKerningGroup = space;
rightMetricsKey = comma;
unicode = 003B;
},
{
color = 3;
glyphname = less;
lastChange = "2018-12-16 00:51:22 +0000";
layers = (
{
layerId = "3A083A2A-974B-4791-8355-BC872DC0CF17";
paths = (
{
closed = 1;
nodes = (
"513 86 LINE",
"214 239 LINE",
"213 245 LINE",
"511 412 LINE",
"464 500 LINE",
"62 272 LINE",
"66 202 LINE",
"465 -6 LINE"
);
}
);
width = 577;
}
);
unicode = 003C;
},
{
color = 3;
glyphname = equal;
lastChange = "2018-12-16 00:51:22 +0000";
layers = (
{
layerId = "3A083A2A-974B-4791-8355-BC872DC0CF17";
paths = (
{
closed = 1;
nodes = (
"526 304 LINE",
"526 393 LINE",
"54 393 LINE",
"54 304 LINE"
);
},
{
closed = 1;
nodes = (
"526 118 LINE",
"526 207 LINE",
"54 207 LINE",
"54 118 LINE"
);
}
);
width = 580;
}
);
leftMetricsKey = minus;
rightMetricsKey = minus;
unicode = 003D;
},
{
color = 3;
glyphname = greater;
lastChange = "2018-12-16 00:51:22 +0000";
layers = (
{
layerId = "3A083A2A-974B-4791-8355-BC872DC0CF17";
paths = (
{
closed = 1;
nodes = (
"511 202 LINE",
"514 272 LINE",
"112 500 LINE",
"65 412 LINE",
"364 245 LINE",
"363 239 LINE",
"63 86 LINE",
"112 -6 LINE"
);
}
);
width = 577;
}
);
unicode = 003E;
},
{
color = 3;
glyphname = question;
lastChange = "2019-02-26 16:50:53 +0000";
layers = (
{
layerId = "3A083A2A-974B-4791-8355-BC872DC0CF17";
paths = (
{
closed = 1;
nodes = (
"371 249 LINE",
"392 369 OFFCURVE",
"549 376 OFFCURVE",
"549 519 CURVE SMOOTH",
"549 632 OFFCURVE",
"452 719 OFFCURVE",
"307 719 CURVE SMOOTH",
"208 719 OFFCURVE",
"138 680 OFFCURVE",
"89 638 CURVE",
"131 526 LINE",
"202 583 OFFCURVE",
"255 610 OFFCURVE",
"317 609 CURVE",
"355 592 OFFCURVE",
"373 557 OFFCURVE",
"373 522 CURVE SMOOTH",
"373 424 OFFCURVE",
"226 402 OFFCURVE",
"227 249 CURVE"
);
},
{
closed = 1;
nodes = (
"366 2 OFFCURVE",
"395 36 OFFCURVE",
"408 81 CURVE",
"396 125 OFFCURVE",
"356 162 OFFCURVE",
"308 183 CURVE",
"260 156 OFFCURVE",
"226 119 OFFCURVE",
"218 65 CURVE",
"240 22 OFFCURVE",
"275 -6 OFFCURVE",
"323 -20 CURVE"
);
},
{
closed = 1;
nodes = (
"212 457 LINE",
"281 641 LINE",
"90 638 LINE",
"87 608 OFFCURVE",
"98 516 OFFCURVE",
"111 457 CURVE"
);
}
);
width = 641;
}
);
rightKerningGroup = space;
unicode = 003F;
},
{
color = 3;
glyphname = at;
lastChange = "2019-02-26 16:50:53 +0000";
layers = (
{
layerId = "3A083A2A-974B-4791-8355-BC872DC0CF17";
paths = (
{
closed = 1;
nodes = (
"307 9 LINE",
"247 93 OFFCURVE",
"217 185 OFFCURVE",
"217 272 CURVE SMOOTH",
"217 450 OFFCURVE",
"339 601 OFFCURVE",
"561 601 CURVE SMOOTH",
"765 601 OFFCURVE",
"879 473 OFFCURVE",
"879 309 CURVE SMOOTH",
"879 234 OFFCURVE",
"854 150 OFFCURVE",
"812 112 CURVE SMOOTH",
"791 93 OFFCURVE",
"762 85 OFFCURVE",
"762 124 CURVE SMOOTH",
"762 321 LINE SMOOTH",
"762 381 OFFCURVE",
"760 408 OFFCURVE",
"750 424 CURVE SMOOTH",
"722 466 OFFCURVE",
"663 496 OFFCURVE",
"608 496 CURVE SMOOTH",
"549 496 OFFCURVE",
"430 472 OFFCURVE",
"346 441 CURVE",
"342 391 OFFCURVE",
"349 338 OFFCURVE",
"364 289 CURVE",
"463 290 LINE",
"487 402 LINE",
"500 407 OFFCURVE",
"523 412 OFFCURVE",
"543 413 CURVE",
"567 401 OFFCURVE",
"589 376 OFFCURVE",
"589 313 CURVE SMOOTH",
"589 70 LINE",
"604 67 LINE",
"628 16 OFFCURVE",
"671 -22 OFFCURVE",
"770 -17 CURVE",
"949 13 OFFCURVE",
"1043 161 OFFCURVE",
"1043 316 CURVE SMOOTH",
"1043 516 OFFCURVE",
"889 730 OFFCURVE",
"556 730 CURVE SMOOTH",
"231 730 OFFCURVE",
"50 527 OFFCURVE",
"50 305 CURVE SMOOTH",
"50 184 OFFCURVE",
"103 57 OFFCURVE",
"215 -48 CURVE"
);
},
{
closed = 1;
nodes = (
"626 66 LINE",
"614 108 LINE",
"587 99 OFFCURVE",
"544 84 OFFCURVE",
"506 81 CURVE",
"494 92 OFFCURVE",
"489 110 OFFCURVE",
"489 124 CURVE SMOOTH",
"489 167 OFFCURVE",
"543 176 OFFCURVE",
"592 174 CURVE",
"620 174 LINE",
"617 237 LINE",
"399 231 LINE",
"342 203 OFFCURVE",
"318 154 OFFCURVE",
"318 113 CURVE SMOOTH",
"318 45 OFFCURVE",
"384 -31 OFFCURVE",
"504 -13 CURVE"
);
}
);
width = 1083;
}
);
rightKerningGroup = space;
unicode = 0040;
},
{
color = 3;
glyphname = A;
lastChange = "2019-02-26 16:50:53 +0000";
layers = (
{
anchors = (
{
name = ogonek;
position = "{696, 0}";
},
{
name = top;
position = "{354, 650}";
}
);
layerId = "3A083A2A-974B-4791-8355-BC872DC0CF17";
paths = (
{
closed = 1;
nodes = (
"696 0 LINE",
"419 686 LINE",
"263 646 LINE",
"505 0 LINE"
);
},
{
closed = 1;
nodes = (
"80 0 LINE",
"79 85 LINE",
"42 69 OFFCURVE",
"9 52 OFFCURVE",
"-20 32 CURVE",
"-14 0 LINE"
);
},
{
closed = 1;
nodes = (
"266 0 LINE",
"267 53 LINE",
"129 75 LINE",
"126 0 LINE"
);
},
{
closed = 1;
nodes = (
"517 0 LINE",
"495 85 LINE",
"458 69 OFFCURVE",
"425 52 OFFCURVE",
"396 32 CURVE",
"402 0 LINE"
);
},
{
closed = 1;
nodes = (
"156 0 LINE",
"390 624 LINE",
"294 644 LINE",
"32 0 LINE"
);
},
{
closed = 1;
nodes = (
"506 172 LINE",
"506 256 LINE",
"183 256 LINE",
"183 172 LINE"
);
},
{
closed = 1;
nodes = (
"741 0 LINE",
"742 53 LINE",
"604 75 LINE",
"601 0 LINE"
);
}
);
width = 730;
}
);
leftKerningGroup = A;
rightKerningGroup = A;
unicode = 0041;
},
{
color = 3;
glyphname = B;
lastChange = "2019-02-26 16:50:53 +0000";
layers = (
{
layerId = "3A083A2A-974B-4791-8355-BC872DC0CF17";
paths = (
{
closed = 1;
nodes = (
"345 322 LINE",
"476 345 LINE",
"584 351 OFFCURVE",
"633 433 OFFCURVE",
"633 499 CURVE SMOOTH",
"633 583 OFFCURVE",
"551 670 OFFCURVE",
"377 670 CURVE",
"289 670 OFFCURVE",
"134 667 OFFCURVE",
"39 662 CURVE",
"284 567 LINE",
"386 583 LINE",
"427 571 OFFCURVE",
"453 522 OFFCURVE",
"453 478 CURVE SMOOTH",
"453 429 OFFCURVE",
"419 380 OFFCURVE",
"335 380 CURVE SMOOTH",
"263 380 LINE",
"263 314 LINE"
);
},
{
closed = 1;
nodes = (
"124 0 LINE",
"123 85 LINE",
"86 69 OFFCURVE",
"53 52 OFFCURVE",
"24 32 CURVE",
"30 0 LINE"
);
},
{
closed = 1;
nodes = (
"290 0 LINE",
"290 662 LINE",
"109 662 LINE",
"109 0 LINE"
);
},
{
closed = 1;
nodes = (
"382 0 LINE SMOOTH",
"588 0 OFFCURVE",
"662 92 OFFCURVE",
"662 184 CURVE SMOOTH",
"662 282 OFFCURVE",
"579 366 OFFCURVE",
"418 354 CURVE",
"286 338 LINE",
"269 308 LINE",
"364 308 LINE SMOOTH",
"433 308 OFFCURVE",
"476 245 OFFCURVE",
"476 188 CURVE SMOOTH",
"476 133 OFFCURVE",
"439 77 OFFCURVE",
"360 85 CURVE SMOOTH",
"269 95 LINE",
"266 0 LINE"
);
},
{
closed = 1;
nodes = (
"161 662 LINE",
"39 662 LINE",
"38 609 LINE",
"160 591 LINE"
);
}
);
width = 693;
}
);
leftKerningGroup = I;
leftMetricsKey = I;
unicode = 0042;
},
{
color = 3;
glyphname = C;
lastChange = "2019-02-26 16:50:53 +0000";
layers = (
{
anchors = (
{
name = bottom;
position = "{336, 0}";
},
{
name = top;
position = "{336, 650}";
}
);
layerId = "3A083A2A-974B-4791-8355-BC872DC0CF17";
paths = (
{
closed = 1;
nodes = (
"591 72 LINE",
"563 154 LINE",
"393 100 LINE",
"259 97 OFFCURVE",
"193 208 OFFCURVE",
"193 348 CURVE SMOOTH",
"193 436 OFFCURVE",
"219 531 OFFCURVE",
"280 586 CURVE",
"389 581 OFFCURVE",
"468 540 OFFCURVE",
"541 479 CURVE",
"572 617 LINE",
"529 648 OFFCURVE",
"464 682 OFFCURVE",
"361 682 CURVE SMOOTH",
"124 682 OFFCURVE",
"11 502 OFFCURVE",
"11 322 CURVE SMOOTH",
"11 162 OFFCURVE",
"101 -28 OFFCURVE",
"381 -17 CURVE"
);
},
{
closed = 1;
nodes = (
"548 425 LINE",
"564 481 OFFCURVE",
"576 575 OFFCURVE",
"572 617 CURVE",
"399 608 LINE",
"440 425 LINE"
);
}
);
width = 599;
}
);
leftKerningGroup = O;
leftMetricsKey = O;
rightKerningGroup = C;
unicode = 0043;
},
{
color = 3;
glyphname = D;
lastChange = "2019-02-26 16:50:53 +0000";
layers = (
{
anchors = (
{
name = bottom;
position = "{121, 0}";
},
{
name = center;
position = "{375, 325}";
},
{
name = top;
position = "{361, 650}";
}
);
layerId = "3A083A2A-974B-4791-8355-BC872DC0CF17";
paths = (
{
closed = 1;
nodes = (
"368 0 LINE SMOOTH",
"608 0 OFFCURVE",
"721 164 OFFCURVE",
"721 337 CURVE SMOOTH",
"721 498 OFFCURVE",
"603 670 OFFCURVE",
"372 670 CURVE SMOOTH",
"260 670 OFFCURVE",
"152 668 OFFCURVE",
"39 662 CURVE",
"281 567 LINE",
"416 583 LINE",
"487 537 OFFCURVE",
"532 432 OFFCURVE",
"532 328 CURVE SMOOTH",
"532 212 OFFCURVE",
"477 92 OFFCURVE",
"357 92 CURVE SMOOTH",
"329 92 OFFCURVE",
"296 98 OFFCURVE",
"260 113 CURVE",
"270 0 LINE"
);
},
{
closed = 1;
nodes = (
"124 0 LINE",
"123 85 LINE",
"86 69 OFFCURVE",
"53 52 OFFCURVE",
"24 32 CURVE",
"30 0 LINE"
);
},
{
closed = 1;
nodes = (
"290 0 LINE",
"290 662 LINE",
"109 662 LINE",
"109 0 LINE"
);
},
{
closed = 1;
nodes = (
"161 662 LINE",
"39 662 LINE",
"38 609 LINE",
"160 591 LINE"
);
}
);
width = 732;
}
);
leftKerningGroup = I;
leftMetricsKey = I;
rightKerningGroup = O;
rightMetricsKey = O;
unicode = 0044;
},
{
color = 3;
glyphname = E;
lastChange = "2019-02-26 16:50:53 +0000";
layers = (
{
anchors = (
{
name = bottom;
position = "{322, 0}";
},
{
name = ogonek;
position = "{616, 0}";
},
{
name = top;
position = "{322, 650}";
}
);
layerId = "3A083A2A-974B-4791-8355-BC872DC0CF17";
paths = (
{
closed = 1;
nodes = (
"290 0 LINE",
"290 662 LINE",
"109 662 LINE",
"109 0 LINE"
);
},
{
closed = 1;
nodes = (
"124 0 LINE",
"123 85 LINE",
"86 69 OFFCURVE",
"53 52 OFFCURVE",
"24 32 CURVE",
"30 0 LINE"
);
},
{
closed = 1;
nodes = (
"580 0 LINE",
"575 115 LINE",
"257 90 LINE",
"182 0 LINE"
);
},
{
closed = 1;
nodes = (
"589 59 OFFCURVE",
"595 151 OFFCURVE",
"593 208 CURVE",
"494 216 LINE",
"428 16 LINE",
"581 0 LINE"
);
},
{
closed = 1;
nodes = (
"499 388 LINE",
"259 368 LINE",
"259 290 LINE",
"499 280 LINE"
);
},
{
closed = 1;
nodes = (
"157 662 LINE",
"35 662 LINE",
"34 609 LINE",
"156 591 LINE"
);
},
{
closed = 1;
nodes = (
"588 662 LINE",
"177 662 LINE",
"252 576 LINE",
"574 554 LINE"
);
},
{
closed = 1;
nodes = (
"570 460 LINE",
"584 527 OFFCURVE",
"591 619 OFFCURVE",
"588 662 CURVE",
"437 644 LINE",
"470 460 LINE"
);
}
);
width = 643;
}
);
leftKerningGroup = I;
leftMetricsKey = I;
rightKerningGroup = E;
unicode = 0045;
},
{
color = 3;
glyphname = F;
lastChange = "2019-02-26 16:50:53 +0000";
layers = (
{
anchors = (
{
name = bottom;
position = "{115, 0}";
},
{
name = top;
position = "{115, 260}";
}
);
layerId = "3A083A2A-974B-4791-8355-BC872DC0CF17";
paths = (
{
closed = 1;
nodes = (
"284 0 LINE",
"284 662 LINE",
"103 662 LINE",
"103 0 LINE"
);
},
{
closed = 1;
nodes = (
"124 0 LINE",
"123 85 LINE",
"86 69 OFFCURVE",
"53 52 OFFCURVE",
"24 32 CURVE",
"30 0 LINE"
);
},
{
closed = 1;
nodes = (
"405 0 LINE",
"406 53 LINE",
"268 75 LINE",
"265 0 LINE"
);
},
{
closed = 1;
nodes = (
"506 368 LINE",
"266 350 LINE",
"266 265 LINE",
"506 254 LINE"
);
},
{
closed = 1;
nodes = (
"152 662 LINE",
"30 662 LINE",
"29 609 LINE",
"151 591 LINE"
);
},
{
closed = 1;
nodes = (
"583 662 LINE",
"184 662 LINE",
"259 576 LINE",
"553 555 LINE"
);
},
{
closed = 1;
nodes = (
"564 454 LINE",
"578 521 OFFCURVE",
"585 619 OFFCURVE",
"582 662 CURVE",
"431 644 LINE",
"464 454 LINE"
);
}
);
width = 633;
}
);
leftKerningGroup = I;
leftMetricsKey = I;
rightMetricsKey = E;
unicode = 0046;
},
{
color = 3;
glyphname = G;
lastChange = "2019-02-26 16:50:53 +0000";
layers = (
{
anchors = (
{
name = bottom;
position = "{355, 0}";
},
{
name = top;
position = "{355, 650}";
}
);
layerId = "3A083A2A-974B-4791-8355-BC872DC0CF17";
paths = (
{
closed = 1;
nodes = (
"616 68 LINE",
"571 122 LINE",
"527 107 OFFCURVE",
"447 87 OFFCURVE",
"385 89 CURVE SMOOTH",
"254 95 OFFCURVE",
"192 217 OFFCURVE",
"192 345 CURVE SMOOTH",
"192 438 OFFCURVE",
"221 534 OFFCURVE",
"284 586 CURVE",
"437 589 OFFCURVE",
"532 521 OFFCURVE",
"575 485 CURVE",
"605 621 LINE",
"570 645 OFFCURVE",
"494 682 OFFCURVE",
"387 682 CURVE SMOOTH",
"142 682 OFFCURVE",
"11 506 OFFCURVE",
"11 319 CURVE SMOOTH",
"11 161 OFFCURVE",
"107 -35 OFFCURVE",
"394 -20 CURVE"
);
},
{
closed = 1;
nodes = (
"466 304 LINE",
"364 304 LINE",
"358 271 LINE",
"391 248 OFFCURVE",
"432 230 OFFCURVE",
"471 214 CURVE"
);
},
{
closed = 1;
nodes = (
"616 68 LINE",
"616 304 LINE",
"453 304 LINE",
"453 64 LINE"
);
},
{
closed = 1;
nodes = (
"692 257 LINE",
"691 304 LINE",
"534 304 LINE",
"549 221 LINE"
);
},
{
closed = 1;
nodes = (
"583 439 LINE",
"599 498 OFFCURVE",
"609 578 OFFCURVE",
"605 621 CURVE",
"432 611 LINE",
"476 439 LINE"
);
}
);
width = 710;
}
);
leftKerningGroup = O;
leftMetricsKey = O;
rightKerningGroup = G;
unicode = 0047;
},
{
color = 3;
glyphname = H;
lastChange = "2019-02-26 16:50:53 +0000";
layers = (
{
anchors = (
{
name = center;
position = "{415, 325}";
},
{
name = top;
position = "{415, 650}";
}
);
layerId = "3A083A2A-974B-4791-8355-BC872DC0CF17";
paths = (
{
closed = 1;
nodes = (
"714 0 LINE",
"714 662 LINE",
"533 662 LINE",
"533 0 LINE"
);
},
{
closed = 1;
nodes = (
"124 0 LINE",
"123 85 LINE",
"86 69 OFFCURVE",
"53 52 OFFCURVE",
"24 32 CURVE",
"30 0 LINE"
);
},
{
closed = 1;
nodes = (
"380 0 LINE",
"381 53 LINE",
"243 75 LINE",
"240 0 LINE"
);
},
{
closed = 1;
nodes = (
"290 0 LINE",
"290 662 LINE",
"109 662 LINE",
"109 0 LINE"
);
},
{
closed = 1;
nodes = (
"548 0 LINE",
"547 85 LINE",
"510 69 OFFCURVE",
"477 52 OFFCURVE",
"448 32 CURVE",
"454 0 LINE"
);
},
{
closed = 1;
nodes = (
"173 662 LINE",
"33 662 LINE",
"32 609 LINE",
"170 587 LINE"
);
},
{
closed = 1;
nodes = (
"595 283 LINE",
"595 377 LINE",
"241 377 LINE",
"241 283 LINE"
);
},
{
closed = 1;
nodes = (
"804 0 LINE",
"805 53 LINE",
"667 75 LINE",
"664 0 LINE"
);
},
{
closed = 1;
nodes = (
"313 593 OFFCURVE",
"347 610 OFFCURVE",
"375 630 CURVE",
"369 662 LINE",
"275 662 LINE",
"276 577 LINE"
);
},
{
closed = 1;
nodes = (
"597 662 LINE",
"457 662 LINE",
"456 609 LINE",
"594 587 LINE"
);
},
{
closed = 1;
nodes = (
"737 593 OFFCURVE",
"771 610 OFFCURVE",
"799 630 CURVE",
"793 662 LINE",
"699 662 LINE",
"700 577 LINE"
);
}
);
width = 829;
}
);
leftKerningGroup = I;
leftMetricsKey = I;
rightKerningGroup = I;
rightMetricsKey = I;
unicode = 0048;
},
{
color = 3;
glyphname = I;
lastChange = "2019-02-26 16:50:53 +0000";
layers = (
{
anchors = (
{
name = ogonek;
position = "{321, 0}";
},
{
name = top;
position = "{200, 650}";
}
);
layerId = "3A083A2A-974B-4791-8355-BC872DC0CF17";
paths = (
{
closed = 1;
nodes = (
"290 0 LINE",
"290 662 LINE",
"109 662 LINE",
"109 0 LINE"
);
},
{
closed = 1;
nodes = (
"124 0 LINE",
"123 85 LINE",
"86 69 OFFCURVE",
"53 52 OFFCURVE",
"24 32 CURVE",
"30 0 LINE"
);
},
{
closed = 1;
nodes = (
"380 0 LINE",
"381 53 LINE",
"243 75 LINE",
"240 0 LINE"
);
},
{
closed = 1;
nodes = (
"173 662 LINE",
"33 662 LINE",
"32 609 LINE",
"170 587 LINE"
);
},
{
closed = 1;
nodes = (
"313 593 OFFCURVE",
"347 610 OFFCURVE",
"375 630 CURVE",
"369 662 LINE",
"275 662 LINE",
"276 577 LINE"
);
}
);
width = 405;
}
);
leftKerningGroup = I;
rightKerningGroup = I;
unicode = 0049;
},
{
color = 3;
glyphname = J;
lastChange = "2018-12-16 00:51:22 +0000";
layers = (
{
anchors = (
{
name = top;
position = "{212, 650}";
}
);
layerId = "3A083A2A-974B-4791-8355-BC872DC0CF17";
paths = (
{
closed = 1;
nodes = (
"180 -130 OFFCURVE",
"299 -47 OFFCURVE",
"299 153 CURVE SMOOTH",
"299 662 LINE",
"119 662 LINE",
"119 146 LINE SMOOTH",
"119 -16 OFFCURVE",
"60 -78 OFFCURVE",
"-25 -131 CURVE",
"10 -188 LINE"
);
},
{
closed = 1;
nodes = (
"175 662 LINE",
"35 662 LINE",
"34 609 LINE",
"172 587 LINE"
);
},
{
closed = 1;
nodes = (
"322 593 OFFCURVE",
"356 610 OFFCURVE",
"384 630 CURVE",
"378 662 LINE",
"284 662 LINE",
"285 577 LINE"
);
}
);
width = 406;
}
);
unicode = 004A;
},
{
color = 3;
glyphname = K;
lastChange = "2019-02-26 16:50:53 +0000";
layers = (
{
anchors = (
{
name = bottom;
position = "{397, 0}";
},
{
name = top;
position = "{381, 650}";
}
);
layerId = "3A083A2A-974B-4791-8355-BC872DC0CF17";
paths = (
{
closed = 1;
nodes = (
"642 615 LINE",
"648 662 LINE",
"558 662 LINE",
"229 309 LINE",
"249 200 LINE"
);
},
{
closed = 1;
nodes = (
"124 0 LINE",
"123 85 LINE",
"86 69 OFFCURVE",
"53 52 OFFCURVE",
"24 32 CURVE",
"30 0 LINE"
);
},
{
closed = 1;
nodes = (
"368 0 LINE",
"369 53 LINE",
"231 75 LINE",
"228 0 LINE"
);
},
{
closed = 1;
nodes = (
"290 0 LINE",
"290 662 LINE",
"109 662 LINE",
"109 0 LINE"
);
},
{
closed = 1;
nodes = (
"733 0 LINE",
"433 404 LINE",
"309 289 LINE",
"514 0 LINE"
);
},
{
closed = 1;
nodes = (
"745 0 LINE",
"746 53 LINE",
"624 77 LINE",
"623 0 LINE"
);
},
{
closed = 1;
nodes = (
"173 662 LINE",
"33 662 LINE",
"32 609 LINE",
"170 587 LINE"
);
},
{
closed = 1;
nodes = (
"313 593 OFFCURVE",
"347 610 OFFCURVE",
"375 630 CURVE",
"369 662 LINE",
"275 662 LINE",
"276 577 LINE"
);
},
{
closed = 1;
nodes = (
"575 662 LINE",
"435 662 LINE",
"434 609 LINE",
"572 587 LINE"
);
},
{
closed = 1;
nodes = (
"626 592 OFFCURVE",
"678 610 OFFCURVE",
"706 630 CURVE",
"700 662 LINE",
"588 662 LINE",
"589 577 LINE"
);
}
);
width = 753;
}
);
leftKerningGroup = I;
leftMetricsKey = I;
rightKerningGroup = K;
unicode = 004B;
},
{
color = 3;
glyphname = L;
lastChange = "2019-02-26 16:50:53 +0000";
layers = (
{
anchors = (
{
name = bottom;
position = "{317, 0}";
},
{
name = top;
position = "{213, 650}";
},
{
name = topright;
position = "{576, 650}";
}
);
layerId = "3A083A2A-974B-4791-8355-BC872DC0CF17";
paths = (
{
closed = 1;
nodes = (
"290 0 LINE",
"290 662 LINE",
"109 662 LINE",
"109 0 LINE"
);
},
{
closed = 1;
nodes = (
"124 0 LINE",
"123 85 LINE",
"86 69 OFFCURVE",
"53 52 OFFCURVE",
"24 32 CURVE",
"30 0 LINE"
);
},
{
closed = 1;
nodes = (
"601 0 LINE",
"584 121 LINE",
"263 90 LINE",
"188 0 LINE"
);
},
{
closed = 1;
nodes = (
"614 67 OFFCURVE",
"618 176 OFFCURVE",
"616 246 CURVE",
"513 255 LINE",
"439 16 LINE",
"602 0 LINE"
);
},
{
closed = 1;
nodes = (
"173 662 LINE",
"33 662 LINE",
"32 609 LINE",
"170 587 LINE"
);
},
{
closed = 1;
nodes = (
"313 593 OFFCURVE",
"347 610 OFFCURVE",
"375 630 CURVE",
"369 662 LINE",
"275 662 LINE",
"276 577 LINE"
);
}
);
width = 619;
}
);
leftKerningGroup = I;
leftMetricsKey = I;
rightKerningGroup = L;
unicode = 004C;
},
{
color = 3;
glyphname = M;
lastChange = "2019-02-26 16:50:53 +0000";
layers = (
{
layerId = "3A083A2A-974B-4791-8355-BC872DC0CF17";
paths = (
{
closed = 1;
nodes = (
"529 16 LINE",
"525 120 LINE",
"336 650 LINE",
"180 605 LINE",
"401 -7 LINE"
);
},
{
closed = 1;
nodes = (
"124 0 LINE",
"123 85 LINE",
"86 69 OFFCURVE",
"53 52 OFFCURVE",
"24 32 CURVE",
"30 0 LINE"
);
},
{
closed = 1;
nodes = (
"322 0 LINE",
"323 47 LINE SMOOTH",
"185 81 LINE",
"182 0 LINE"
);
},
{
closed = 1;
nodes = (
"237 0 LINE",
"241 303 LINE",
"221 540 LINE",
"337 650 LINE",
"126 650 LINE",
"110 0 LINE"
);
},
{
closed = 1;
nodes = (
"707 0 LINE",
"706 85 LINE",
"669 69 OFFCURVE",
"636 52 OFFCURVE",
"607 32 CURVE",
"613 0 LINE"
);
},
{
closed = 1;
nodes = (
"181 650 LINE",
"41 650 LINE",
"40 603 LINE",
"178 569 LINE"
);
},
{
closed = 1;
nodes = (
"956 0 LINE",
"957 47 LINE",
"819 81 LINE",
"816 0 LINE"
);
},
{
closed = 1;
nodes = (
"755 613 LINE",
"679 650 LINE",
"450 36 LINE",
"529 16 LINE"
);
},
{
closed = 1;
nodes = (
"866 0 LINE",
"856 650 LINE",
"679 650 LINE",
"710 545 LINE",
"691 303 LINE",
"693 0 LINE"
);
},
{
closed = 1;
nodes = (
"881 581 OFFCURVE",
"915 598 OFFCURVE",
"943 618 CURVE",
"937 650 LINE",
"843 650 LINE",
"844 565 LINE"
);
}
);
width = 981;
}
);
leftKerningGroup = I;
leftMetricsKey = I;
rightKerningGroup = I;
rightMetricsKey = I;
unicode = 004D;
},
{
color = 3;
glyphname = N;
lastChange = "2019-02-26 16:50:53 +0000";
layers = (
{
anchors = (
{
name = bottom;
position = "{392, 0}";
},
{
name = top;
position = "{374, 650}";
}
);
layerId = "3A083A2A-974B-4791-8355-BC872DC0CF17";
paths = (
{
closed = 1;
nodes = (
"633 16 LINE",
"651 93 LINE",
"281 662 LINE",
"132 662 LINE",
"130 571 LINE",
"519 -13 LINE"
);
},
{
closed = 1;
nodes = (
"124 0 LINE",
"123 85 LINE",
"86 69 OFFCURVE",
"53 52 OFFCURVE",
"24 32 CURVE",
"30 0 LINE"
);
},
{
closed = 1;
nodes = (
"321 0 LINE",
"322 53 LINE",
"184 75 LINE",
"181 0 LINE"
);
},
{
closed = 1;
nodes = (
"234 0 LINE",
"234 315 LINE",
"207 551 LINE",
"282 662 LINE",
"109 662 LINE",
"109 0 LINE"
);
},
{
closed = 1;
nodes = (
"165 662 LINE",
"37 662 LINE",
"36 609 LINE",
"162 587 LINE"
);
},
{
closed = 1;
nodes = (
"679 0 LINE",
"685 662 LINE",
"560 662 LINE",
"560 336 LINE",
"593 44 LINE",
"519 -13 LINE"
);
},
{
closed = 1;
nodes = (
"602 662 LINE",
"462 662 LINE",
"461 609 LINE",
"599 587 LINE"
);
},
{
closed = 1;
nodes = (
"702 593 OFFCURVE",
"736 610 OFFCURVE",
"764 630 CURVE",
"758 662 LINE",
"664 662 LINE",
"665 577 LINE"
);
}
);
width = 788;
}
);
leftKerningGroup = I;
leftMetricsKey = I;
rightKerningGroup = I;
rightMetricsKey = I;
unicode = 004E;
},
{
color = 3;
glyphname = O;
lastChange = "2019-02-26 16:50:53 +0000";
layers = (
{
anchors = (
{
name = top;
position = "{344, 650}";
}
);
layerId = "3A083A2A-974B-4791-8355-BC872DC0CF17";
paths = (
{
closed = 1;
nodes = (
"519 -20 OFFCURVE",
"676 92 OFFCURVE",
"676 322 CURVE SMOOTH",
"676 552 OFFCURVE",
"520 682 OFFCURVE",
"341 682 CURVE SMOOTH",
"157 682 OFFCURVE",
"11 544 OFFCURVE",
"11 326 CURVE SMOOTH",
"11 97 OFFCURVE",
"172 -20 OFFCURVE",
"348 -20 CURVE SMOOTH"
);
},
{
closed = 1;
nodes = (
"259 77 OFFCURVE",
"201 188 OFFCURVE",
"201 346 CURVE SMOOTH",
"201 455 OFFCURVE",
"229 538 OFFCURVE",
"266 572 CURVE",
"286 580 OFFCURVE",
"307 585 OFFCURVE",
"328 585 CURVE SMOOTH",
"437 585 OFFCURVE",
"486 454 OFFCURVE",
"486 319 CURVE SMOOTH",
"486 214 OFFCURVE",
"456 125 OFFCURVE",
"413 85 CURVE",
"399 80 OFFCURVE",
"385 77 OFFCURVE",
"366 77 CURVE SMOOTH"
);
}
);
width = 687;
}
);
leftKerningGroup = O;
rightKerningGroup = O;
unicode = 004F;
},
{
color = 3;
glyphname = P;
lastChange = "2019-02-26 16:50:53 +0000";
layers = (
{
layerId = "3A083A2A-974B-4791-8355-BC872DC0CF17";
paths = (
{
closed = 1;
nodes = (
"384 234 LINE SMOOTH",
"541 235 OFFCURVE",
"644 328 OFFCURVE",
"644 447 CURVE SMOOTH",
"644 561 OFFCURVE",
"552 672 OFFCURVE",
"375 670 CURVE SMOOTH",
"30 662 LINE",
"273 567 LINE",
"408 583 LINE",
"443 561 OFFCURVE",
"461 500 OFFCURVE",
"461 450 CURVE SMOOTH",
"461 385 OFFCURVE",
"428 326 OFFCURVE",
"351 326 CURVE SMOOTH",
"330 326 OFFCURVE",
"292 330 OFFCURVE",
"259 341 CURVE",
"256 233 LINE"
);
},
{
closed = 1;
nodes = (
"124 0 LINE",
"123 85 LINE",
"86 69 OFFCURVE",
"53 52 OFFCURVE",
"24 32 CURVE",
"30 0 LINE"
);
},
{
closed = 1;
nodes = (
"405 0 LINE",
"406 53 LINE",
"268 75 LINE",
"265 0 LINE"
);
},
{
closed = 1;
nodes = (
"284 0 LINE",
"284 662 LINE",
"103 662 LINE",
"103 0 LINE"
);
},
{
closed = 1;
nodes = (
"152 662 LINE",
"30 662 LINE",
"29 609 LINE",
"151 591 LINE"
);
}
);
width = 656;
}
);
leftKerningGroup = I;
leftMetricsKey = I;
unicode = 0050;
},
{
color = 3;
glyphname = Q;
lastChange = "2019-02-26 16:50:53 +0000";
layers = (
{
components = (
{
name = O;
}
);
layerId = "3A083A2A-974B-4791-8355-BC872DC0CF17";
paths = (
{
closed = 1;
nodes = (
"739 -40 LINE",
"379 46 LINE",
"344 -3 LINE",
"658 -192 LINE"
);
}
);
width = 724;
}
);
leftKerningGroup = O;
leftMetricsKey = O;
rightKerningGroup = O;
unicode = 0051;
},
{
color = 3;
glyphname = R;
lastChange = "2019-02-26 16:50:53 +0000";
layers = (
{
anchors = (
{
name = bottom;
position = "{353, 0}";
},
{
name = top;
position = "{338, 650}";
}
);
layerId = "3A083A2A-974B-4791-8355-BC872DC0CF17";
paths = (
{
closed = 1;
nodes = (
"395 252 LINE SMOOTH",
"544 252 OFFCURVE",
"649 348 OFFCURVE",
"649 461 CURVE SMOOTH",
"649 573 OFFCURVE",
"545 670 OFFCURVE",
"374 670 CURVE",
"35 662 LINE",
"280 567 LINE",
"413 583 LINE",
"448 554 OFFCURVE",
"464 505 OFFCURVE",
"464 458 CURVE SMOOTH",
"464 389 OFFCURVE",
"431 337 OFFCURVE",
"346 337 CURVE SMOOTH",
"320 337 OFFCURVE",
"286 343 OFFCURVE",
"252 357 CURVE",
"261 251 LINE"
);
},
{
closed = 1;
nodes = (
"124 0 LINE",
"123 85 LINE",
"86 69 OFFCURVE",
"53 52 OFFCURVE",
"24 32 CURVE",
"30 0 LINE"
);
},
{
closed = 1;
nodes = (
"372 0 LINE",
"373 53 LINE",
"235 75 LINE",
"232 0 LINE"
);
},
{
closed = 1;
nodes = (
"290 0 LINE",
"290 662 LINE",
"109 662 LINE",
"109 0 LINE"
);
},
{
closed = 1;
nodes = (
"690 0 LINE",
"505 300 LINE",
"335 291 LINE",
"488 0 LINE"
);
},
{
closed = 1;
nodes = (
"712 0 LINE",
"713 53 LINE",
"575 74 LINE",
"572 0 LINE"
);
},
{
closed = 1;
nodes = (
"157 662 LINE",
"35 662 LINE",
"34 609 LINE",
"156 591 LINE"
);
}
);
width = 719;
}
);
leftKerningGroup = I;
leftMetricsKey = I;
rightKerningGroup = R;
unicode = 0052;
},
{
color = 3;
glyphname = S;
lastChange = "2019-02-26 16:50:53 +0000";
layers = (
{
anchors = (
{
name = bottom;
position = "{298, 0}";
},
{
name = top;
position = "{310, 650}";
}
);
layerId = "3A083A2A-974B-4791-8355-BC872DC0CF17";
paths = (
{
closed = 1;
nodes = (
"444 -19 OFFCURVE",
"564 54 OFFCURVE",
"564 186 CURVE SMOOTH",
"564 308 OFFCURVE",
"470 360 OFFCURVE",
"379 402 CURVE SMOOTH",
"294 441 OFFCURVE",
"221 467 OFFCURVE",
"221 522 CURVE SMOOTH",
"221 547 OFFCURVE",
"234 579 OFFCURVE",
"266 597 CURVE",
"345 596 OFFCURVE",
"420 571 OFFCURVE",
"479 507 CURVE",
"534 644 LINE",
"480 664 OFFCURVE",
"393 682 OFFCURVE",
"320 682 CURVE SMOOTH",
"163 682 OFFCURVE",
"51 600 OFFCURVE",
"51 477 CURVE SMOOTH",
"51 361 OFFCURVE",
"150 308 OFFCURVE",
"239 267 CURVE SMOOTH",
"321 229 OFFCURVE",
"386 202 OFFCURVE",
"386 143 CURVE SMOOTH",
"386 116 OFFCURVE",
"371 86 OFFCURVE",
"332 68 CURVE",
"252 71 OFFCURVE",
"160 98 OFFCURVE",
"96 171 CURVE",
"52 42 LINE",
"120 2 OFFCURVE",
"227 -19 OFFCURVE",
"303 -19 CURVE SMOOTH"
);
},
{
closed = 1;
nodes = (
"151 235 LINE",
"70 235 LINE",
"57 182 OFFCURVE",
"48 84 OFFCURVE",
"53 42 CURVE",
"242 33 LINE"
);
},
{
closed = 1;
nodes = (
"513 453 LINE",
"527 512 OFFCURVE",
"532 589 OFFCURVE",
"534 644 CURVE",
"363 634 LINE",
"421 453 LINE"
);
}
);
width = 600;
}
);
leftKerningGroup = S;
rightKerningGroup = S;
unicode = 0053;
},
{
color = 3;
glyphname = T;
lastChange = "2019-02-26 16:50:53 +0000";
layers = (
{
anchors = (
{
name = bottom;
position = "{334, 0}";
},
{
name = center;
position = "{334, 325}";
},
{
name = top;
position = "{334, 650}";
}
);
layerId = "3A083A2A-974B-4791-8355-BC872DC0CF17";
paths = (
{
closed = 1;
nodes = (
"425 0 LINE",
"425 662 LINE",
"244 662 LINE",
"244 0 LINE"
);
},
{
closed = 1;
nodes = (
"252 0 LINE",
"251 85 LINE",
"214 69 OFFCURVE",
"175 52 OFFCURVE",
"146 32 CURVE",
"152 0 LINE"
);
},
{
closed = 1;
nodes = (
"522 0 LINE",
"523 53 LINE",
"385 75 LINE",
"382 0 LINE"
);
},
{
closed = 1;
nodes = (
"120 436 LINE",
"142 646 LINE",
"8 668 LINE",
"3 625 OFFCURVE",
"13 502 OFFCURVE",
"27 436 CURVE"
);
},
{
closed = 1;
nodes = (
"335 595 LINE",
"644 565 LINE",
"660 668 LINE",
"398 662 OFFCURVE",
"276 662 OFFCURVE",
"8 668 CURVE",
"25 565 LINE"
);
},
{
closed = 1;
nodes = (
"642 436 LINE",
"655 502 OFFCURVE",
"664 625 OFFCURVE",
"661 668 CURVE",
"525 646 LINE",
"548 436 LINE SMOOTH"
);
}
);
width = 668;
}
);
leftKerningGroup = T;
rightKerningGroup = T;
unicode = 0054;
},
{
color = 3;
glyphname = U;
lastChange = "2019-02-26 16:50:53 +0000";
layers = (
{
anchors = (
{
name = ogonek;
position = "{528, 0}";
},
{
name = top;
position = "{378, 650}";
}
);
layerId = "3A083A2A-974B-4791-8355-BC872DC0CF17";
paths = (
{
closed = 1;
nodes = (
"543 -20 OFFCURVE",
"663 57 OFFCURVE",
"663 290 CURVE SMOOTH",
"663 662 LINE",
"538 662 LINE",
"538 290 LINE SMOOTH",
"538 201 OFFCURVE",
"524 137 OFFCURVE",
"495 105 CURVE",
"473 89 OFFCURVE",
"447 80 OFFCURVE",
"412 80 CURVE SMOOTH",
"327 80 OFFCURVE",
"265 134 OFFCURVE",
"265 261 CURVE SMOOTH",
"265 662 LINE",
"84 662 LINE",
"84 301 LINE SMOOTH",
"84 83 OFFCURVE",
"219 -20 OFFCURVE",
"394 -20 CURVE SMOOTH"
);
},
{
closed = 1;
nodes = (
"148 662 LINE",
"8 662 LINE",
"7 609 LINE",
"145 587 LINE"
);
},
{
closed = 1;
nodes = (
"288 593 OFFCURVE",
"322 610 OFFCURVE",
"350 630 CURVE",
"344 662 LINE",
"250 662 LINE",
"251 577 LINE"
);
},
{
closed = 1;
nodes = (
"596 662 LINE",
"456 662 LINE",
"455 609 LINE",
"593 587 LINE"
);
},
{
closed = 1;
nodes = (
"686 593 OFFCURVE",
"720 610 OFFCURVE",
"748 630 CURVE",
"742 662 LINE",
"648 662 LINE",
"649 577 LINE"
);
}
);
width = 755;
}
);
leftKerningGroup = U;
rightKerningGroup = U;
unicode = 0055;
},
{
color = 3;
glyphname = V;
lastChange = "2019-02-26 16:50:53 +0000";
layers = (
{
layerId = "3A083A2A-974B-4791-8355-BC872DC0CF17";
paths = (
{
closed = 1;
nodes = (
"344 -13 OFFCURVE",
"402 -7 OFFCURVE",
"448 1 CURVE",
"397 122 LINE",
"371 123 LINE",
"358 260 LINE",
"231 662 LINE",
"46 662 LINE",
"286 -16 LINE"
);
},
{
closed = 1;
nodes = (
"138 662 LINE",
"-2 662 LINE",
"-3 609 LINE",
"135 587 LINE"
);
},
{
closed = 1;
nodes = (
"675 662 LINE",
"557 662 LINE",
"350 36 LINE",
"447 1 LINE"
);
},
{
closed = 1;
nodes = (
"273 593 OFFCURVE",
"307 610 OFFCURVE",
"335 630 CURVE",
"329 662 LINE",
"227 662 LINE",
"236 577 LINE"
);
},
{
closed = 1;
nodes = (
"588 662 LINE",
"448 662 LINE",
"447 609 LINE",
"585 587 LINE"
);
},
{
closed = 1;
nodes = (
"664 593 OFFCURVE",
"698 610 OFFCURVE",
"726 630 CURVE",
"720 662 LINE",
"618 662 LINE",
"627 577 LINE"
);
}
);
width = 724;
}
);
leftKerningGroup = V;
rightKerningGroup = V;
unicode = 0056;
},
{
color = 3;
glyphname = W;
lastChange = "2019-02-26 16:50:53 +0000";
layers = (
{
anchors = (
{
name = top;
position = "{500, 650}";
}
);
layerId = "3A083A2A-974B-4791-8355-BC872DC0CF17";
paths = (
{
closed = 1;
nodes = (
"322 -13 OFFCURVE",
"374 -8 OFFCURVE",
"420 1 CURVE",
"379 122 LINE",
"345 123 LINE",
"338 264 LINE",
"230 662 LINE",
"45 662 LINE",
"262 -16 LINE"
);
},
{
closed = 1;
nodes = (
"138 662 LINE",
"-2 662 LINE",
"-3 609 LINE",
"135 587 LINE"
);
},
{
closed = 1;
nodes = (
"483 204 LINE",
"508 329 LINE",
"526 329 LINE",
"570 476 LINE",
"466 522 LINE",
"326 36 LINE",
"421 1 LINE"
);
},
{
closed = 1;
nodes = (
"269 593 OFFCURVE",
"303 610 OFFCURVE",
"331 630 CURVE",
"325 662 LINE",
"223 662 LINE",
"232 577 LINE"
);
},
{
closed = 1;
nodes = (
"672 -13 OFFCURVE",
"724 -8 OFFCURVE",
"771 1 CURVE",
"735 122 LINE",
"696 123 LINE",
"687 280 LINE",
"582 658 LINE",
"412 621 LINE",
"612 -16 LINE"
);
},
{
closed = 1;
nodes = (
"961 662 LINE",
"844 662 LINE",
"674 36 LINE",
"771 1 LINE"
);
},
{
closed = 1;
nodes = (
"871 662 LINE",
"731 662 LINE",
"730 609 LINE",
"868 587 LINE"
);
},
{
closed = 1;
nodes = (
"951 593 OFFCURVE",
"985 610 OFFCURVE",
"1013 630 CURVE",
"1007 662 LINE",
"905 662 LINE",
"914 577 LINE"
);
}
);
width = 1011;
}
);
leftKerningGroup = V;
leftMetricsKey = V;
rightKerningGroup = V;
rightMetricsKey = V;
unicode = 0057;
},
{
color = 3;
glyphname = X;
lastChange = "2018-12-16 00:51:22 +0000";
layers = (
{
layerId = "3A083A2A-974B-4791-8355-BC872DC0CF17";
paths = (
{
closed = 1;
nodes = (
"698 0 LINE",
"247 662 LINE",
"46 662 LINE",
"495 0 LINE"
);
},
{
closed = 1;
nodes = (
"106 0 LINE",
"97 85 LINE",
"60 69 OFFCURVE",
"27 52 OFFCURVE",
"-2 32 CURVE",
"4 0 LINE"
);
},
{
closed = 1;
nodes = (
"290 0 LINE",
"291 53 LINE",
"153 75 LINE",
"150 0 LINE"
);
},
{
closed = 1;
nodes = (
"169 0 LINE",
"394 344 LINE",
"302 392 LINE",
"29 0 LINE"
);
},
{
closed = 1;
nodes = (
"502 0 LINE",
"493 85 LINE",
"456 69 OFFCURVE",
"423 52 OFFCURVE",
"394 32 CURVE",
"400 0 LINE"
);
},
{
closed = 1;
nodes = (
"726 0 LINE",
"727 53 LINE",
"581 75 LINE",
"586 0 LINE"
);
},
{
closed = 1;
nodes = (
"165 662 LINE",
"25 662 LINE",
"24 609 LINE",
"162 587 LINE"
);
},
{
closed = 1;
nodes = (
"278 593 OFFCURVE",
"312 610 OFFCURVE",
"340 630 CURVE",
"334 662 LINE",
"232 662 LINE",
"241 577 LINE"
);
},
{
closed = 1;
nodes = (
"663 662 LINE",
"538 662 LINE",
"360 375 LINE",
"453 342 LINE"
);
},
{
closed = 1;
nodes = (
"563 662 LINE",
"423 662 LINE",
"422 609 LINE",
"560 587 LINE"
);
},
{
closed = 1;
nodes = (
"633 593 OFFCURVE",
"667 610 OFFCURVE",
"695 630 CURVE",
"689 662 LINE",
"587 662 LINE",
"596 577 LINE"
);
}
);
width = 713;
}
);
unicode = 0058;
},
{
color = 3;
glyphname = Y;
lastChange = "2019-02-26 16:50:53 +0000";
layers = (
{
anchors = (
{
name = top;
position = "{354, 650}";
}
);
layerId = "3A083A2A-974B-4791-8355-BC872DC0CF17";
paths = (
{
closed = 1;
nodes = (
"397 312 LINE",
"378 350 LINE",
"355 349 LINE",
"327 436 LINE",
"207 662 LINE",
"27 662 LINE",
"256 232 LINE"
);
},
{
closed = 1;
nodes = (
"267 0 LINE",
"266 85 LINE",
"229 69 OFFCURVE",
"196 52 OFFCURVE",
"167 32 CURVE",
"173 0 LINE"
);
},
{
closed = 1;
nodes = (
"507 0 LINE",
"508 53 LINE",
"370 75 LINE",
"367 0 LINE"
);
},
{
closed = 1;
nodes = (
"424 0 LINE",
"424 320 LINE",
"249 320 LINE",
"249 0 LINE"
);
},
{
closed = 1;
nodes = (
"138 662 LINE",
"-2 662 LINE",
"-3 609 LINE",
"135 587 LINE"
);
},
{
closed = 1;
nodes = (
"230 593 OFFCURVE",
"264 610 OFFCURVE",
"292 630 CURVE",
"286 662 LINE",
"184 662 LINE",
"193 577 LINE"
);
},
{
closed = 1;
nodes = (
"635 662 LINE",
"518 662 LINE",
"330 287 LINE",
"412 246 LINE"
);
},
{
closed = 1;
nodes = (
"556 662 LINE",
"416 662 LINE",
"415 609 LINE",
"553 587 LINE"
);
},
{
closed = 1;
nodes = (
"617 593 OFFCURVE",
"651 610 OFFCURVE",
"679 630 CURVE",
"673 662 LINE",
"571 662 LINE",
"580 577 LINE"
);
}
);
width = 677;
}
);
leftKerningGroup = Y;
leftMetricsKey = V;
rightKerningGroup = Y;
rightMetricsKey = V;
unicode = 0059;
},
{
color = 3;
glyphname = Z;
lastChange = "2019-02-26 16:50:53 +0000";
layers = (
{
layerId = "3A083A2A-974B-4791-8355-BC872DC0CF17";
paths = (
{
closed = 1;
nodes = (
"136 37 LINE",
"215 47 LINE",
"619 585 LINE",
"580 662 LINE",
"518 619 LINE",
"429 607 LINE",
"32 79 LINE",
"81 -1 LINE"
);
},
{
closed = 1;
nodes = (
"599 0 LINE",
"585 108 LINE",
"144 91 LINE",
"81 -1 LINE"
);
},
{
closed = 1;
nodes = (
"612 81 OFFCURVE",
"621 144 OFFCURVE",
"624 223 CURVE",
"518 237 LINE",
"433 22 LINE",
"598 0 LINE"
);
},
{
closed = 1;
nodes = (
"172 429 LINE",
"224 603 LINE",
"66 662 LINE",
"60 595 OFFCURVE",
"61 501 OFFCURVE",
"73 429 CURVE"
);
},
{
closed = 1;
nodes = (
"547 589 LINE",
"580 662 LINE",
"66 662 LINE",
"98 555 LINE"
);
}
);
width = 660;
}
);
leftKerningGroup = Z;
rightKerningGroup = Z;
unicode = 005A;
},
{
color = 3;
glyphname = bracketleft;
lastChange = "2019-02-26 16:50:53 +0000";
layers = (
{
layerId = "3A083A2A-974B-4791-8355-BC872DC0CF17";
paths = (
{
closed = 1;
nodes = (
"383 -122 LINE",
"389 -60 LINE",
"259 -26 LINE",
"259 616 LINE",
"389 650 LINE",
"383 712 LINE",
"88 712 LINE",
"88 -122 LINE"
);
}
);
width = 417;
}
);
rightKerningGroup = parenthesis;
unicode = 005B;
},
{
color = 3;
glyphname = backslash;
lastChange = "2019-02-26 16:50:53 +0000";
layers = (
{
layerId = "3A083A2A-974B-4791-8355-BC872DC0CF17";
paths = (
{
closed = 1;
nodes = (
"406 -78 LINE",
"98 731 LINE",
"-29 681 LINE",
"278 -126 LINE"
);
}
);
width = 410;
}
);
rightKerningGroup = space;
unicode = 005C;
},
{
color = 3;
glyphname = bracketright;
lastChange = "2019-02-26 16:50:53 +0000";
layers = (
{
layerId = "3A083A2A-974B-4791-8355-BC872DC0CF17";
paths = (
{
closed = 1;
nodes = (
"329 -122 LINE",
"329 712 LINE",
"34 712 LINE",
"28 650 LINE",
"158 616 LINE",
"158 -26 LINE",
"28 -60 LINE",
"34 -122 LINE"
);
}
);
width = 418;
}
);
leftKerningGroup = parenthesis;
unicode = 005D;
},
{
color = 3;
glyphname = asciicircum;
lastChange = "2018-12-16 00:51:22 +0000";
layers = (
{
layerId = "3A083A2A-974B-4791-8355-BC872DC0CF17";
paths = (
{
closed = 1;
nodes = (
"245 539 LINE",
"252 539 LINE",
"404 323 LINE",
"485 376 LINE",
"292 650 LINE",
"202 650 LINE",
"16 374 LINE",
"102 321 LINE"
);
}
);
width = 497;
}
);
unicode = 005E;
},
{
color = 3;
glyphname = underscore;
lastChange = "2019-02-26 16:50:53 +0000";
layers = (
{
layerId = "3A083A2A-974B-4791-8355-BC872DC0CF17";
paths = (
{
closed = 1;
nodes = (
"522 -217 LINE",
"522 -128 LINE",
"10 -128 LINE",
"10 -217 LINE"
);
}
);
width = 532;
}
);
rightKerningGroup = space;
unicode = 005F;
},
{
color = 3;
glyphname = a;
lastChange = "2019-02-26 16:50:53 +0000";
layers = (
{
anchors = (
{
name = top;
position = "{265, 468}";
}
);
layerId = "3A083A2A-974B-4791-8355-BC872DC0CF17";
paths = (
{
closed = 1;
nodes = (
"556 57 LINE",
"550 101 LINE",
"529 100 OFFCURVE",
"514 98 OFFCURVE",
"499 98 CURVE SMOOTH",
"483 98 OFFCURVE",
"474 108 OFFCURVE",
"474 122 CURVE",
"474 327 LINE",
"474 386 OFFCURVE",
"472 413 OFFCURVE",
"462 429 CURVE SMOOTH",
"428 477 OFFCURVE",
"376 502 OFFCURVE",
"321 502 CURVE SMOOTH",
"266 502 OFFCURVE",
"143 478 OFFCURVE",
"60 446 CURVE",
"54 396 OFFCURVE",
"61 340 OFFCURVE",
"77 295 CURVE",
"175 297 LINE",
"199 407 LINE",
"213 413 OFFCURVE",
"236 418 OFFCURVE",
"255 419 CURVE",
"280 406 OFFCURVE",
"301 381 OFFCURVE",
"301 318 CURVE SMOOTH",
"301 75 LINE",
"315 70 LINE",
"338 18 OFFCURVE",
"384 -16 OFFCURVE",
"424 -17 CURVE"
);
},
{
closed = 1;
nodes = (
"338 67 LINE",
"326 109 LINE",
"299 100 OFFCURVE",
"256 85 OFFCURVE",
"218 82 CURVE",
"206 93 OFFCURVE",
"201 111 OFFCURVE",
"201 125 CURVE SMOOTH",
"201 167 OFFCURVE",
"255 176 OFFCURVE",
"304 175 CURVE",
"332 174 LINE",
"333 237 LINE",
"111 232 LINE",
"54 203 OFFCURVE",
"30 155 OFFCURVE",
"30 114 CURVE SMOOTH",
"30 46 OFFCURVE",
"96 -31 OFFCURVE",
"216 -13 CURVE"
);
}
);
width = 563;
}
);
leftKerningGroup = a;
rightKerningGroup = a;
unicode = 0061;
},
{
color = 3;
glyphname = b;
lastChange = "2019-02-26 16:50:53 +0000";
layers = (
{
layerId = "3A083A2A-974B-4791-8355-BC872DC0CF17";
paths = (
{
closed = 1;
nodes = (
"460 -18 OFFCURVE",
"555 118 OFFCURVE",
"555 262 CURVE SMOOTH",
"555 396 OFFCURVE",
"473 514 OFFCURVE",
"335 491 CURVE",
"163 366 LINE",
"172 330 LINE",
"211 354 OFFCURVE",
"245 373 OFFCURVE",
"278 373 CURVE SMOOTH",
"340 373 OFFCURVE",
"377 307 OFFCURVE",
"377 232 CURVE SMOOTH",
"377 172 OFFCURVE",
"355 110 OFFCURVE",
"316 76 CURVE",
"245 66 OFFCURVE",
"188 93 OFFCURVE",
"152 137 CURVE",
"55 20 LINE",
"125 -4 OFFCURVE",
"201 -18 OFFCURVE",
"264 -18 CURVE SMOOTH"
);
},
{
closed = 1;
nodes = (
"229 42 LINE",
"229 687 LINE",
"175 737 LINE",
"56 684 LINE",
"56 20 LINE"
);
},
{
closed = 1;
nodes = (
"175 666 LINE",
"175 737 LINE",
"105 733 OFFCURVE",
"35 721 OFFCURVE",
"-23 700 CURVE",
"-19 650 LINE",
"99 629 LINE"
);
}
);
width = 571;
}
);
leftKerningGroup = b;
rightKerningGroup = o;
rightMetricsKey = o;
unicode = 0062;
},
{
color = 3;
glyphname = c;
lastChange = "2019-02-26 16:50:53 +0000";
layers = (
{
anchors = (
{
name = bottom;
position = "{250, 0}";
},
{
name = top;
position = "{262, 468}";
}
);
layerId = "3A083A2A-974B-4791-8355-BC872DC0CF17";
paths = (
{
closed = 1;
nodes = (
"451 71 LINE",
"427 126 LINE",
"388 107 OFFCURVE",
"352 96 OFFCURVE",
"318 96 CURVE SMOOTH",
"226 96 OFFCURVE",
"178 168 OFFCURVE",
"178 265 CURVE SMOOTH",
"178 310 OFFCURVE",
"189 369 OFFCURVE",
"226 409 CURVE",
"266 387 OFFCURVE",
"298 348 OFFCURVE",
"326 293 CURVE",
"463 370 LINE",
"437 458 OFFCURVE",
"353 500 OFFCURVE",
"264 500 CURVE SMOOTH",
"122 500 OFFCURVE",
"11 395 OFFCURVE",
"11 239 CURVE SMOOTH",
"11 66 OFFCURVE",
"151 -37 OFFCURVE",
"306 -13 CURVE"
);
}
);
width = 463;
}
);
leftKerningGroup = o;
leftMetricsKey = o;
rightKerningGroup = c;
unicode = 0063;
},
{
color = 3;
glyphname = d;
lastChange = "2019-02-26 16:50:53 +0000";
layers = (
{
anchors = (
{
name = center;
position = "{108, 94}";
},
{
name = topright;
position = "{208, 260}";
}
);
layerId = "3A083A2A-974B-4791-8355-BC872DC0CF17";
paths = (
{
closed = 1;
nodes = (
"406 112 LINE",
"413 161 LINE",
"365 125 OFFCURVE",
"321 110 OFFCURVE",
"290 110 CURVE SMOOTH",
"226 110 OFFCURVE",
"191 174 OFFCURVE",
"191 252 CURVE SMOOTH",
"191 311 OFFCURVE",
"211 372 OFFCURVE",
"247 406 CURVE",
"317 408 OFFCURVE",
"378 373 OFFCURVE",
"414 322 CURVE",
"442 446 LINE",
"393 478 OFFCURVE",
"339 497 OFFCURVE",
"277 497 CURVE SMOOTH",
"106 497 OFFCURVE",
"11 372 OFFCURVE",
"11 234 CURVE SMOOTH",
"11 101 OFFCURVE",
"95 -19 OFFCURVE",
"234 -17 CURVE"
);
},
{
closed = 1;
nodes = (
"588 57 LINE",
"582 101 LINE",
"560 100 OFFCURVE",
"546 98 OFFCURVE",
"531 98 CURVE SMOOTH",
"516 98 OFFCURVE",
"506 108 OFFCURVE",
"506 122 CURVE SMOOTH",
"506 687 LINE",
"452 737 LINE",
"333 684 LINE",
"333 75 LINE",
"347 70 LINE",
"370 18 OFFCURVE",
"415 -16 OFFCURVE",
"455 -17 CURVE"
);
},
{
closed = 1;
nodes = (
"452 666 LINE",
"452 737 LINE",
"382 733 OFFCURVE",
"312 721 OFFCURVE",
"254 700 CURVE",
"259 650 LINE",
"376 629 LINE"
);
}
);
width = 592;
}
);
leftKerningGroup = o;
leftMetricsKey = o;
rightKerningGroup = l;
unicode = 0064;
},
{
color = 3;
glyphname = e;
lastChange = "2019-02-26 16:50:53 +0000";
layers = (
{
anchors = (
{
name = bottom;
position = "{265, 0}";
},
{
name = ogonek;
position = "{466, 26}";
},
{
name = top;
position = "{261, 468}";
}
);
layerId = "3A083A2A-974B-4791-8355-BC872DC0CF17";
paths = (
{
closed = 1;
nodes = (
"472 77 LINE",
"447 134 LINE",
"400 109 OFFCURVE",
"362 96 OFFCURVE",
"320 96 CURVE SMOOTH",
"235 96 OFFCURVE",
"173 152 OFFCURVE",
"173 255 CURVE SMOOTH",
"173 313 OFFCURVE",
"193 387 OFFCURVE",
"239 417 CURVE",
"299 414 OFFCURVE",
"338 340 OFFCURVE",
"328 273 CURVE",
"484 287 LINE",
"486 440 OFFCURVE",
"366 500 OFFCURVE",
"266 500 CURVE SMOOTH",
"132 500 OFFCURVE",
"11 391 OFFCURVE",
"11 234 CURVE SMOOTH",
"11 67 OFFCURVE",
"151 -35 OFFCURVE",
"315 -12 CURVE"
);
},
{
closed = 1;
nodes = (
"484 287 LINE",
"401 321 LINE",
"115 303 LINE",
"127 231 LINE",
"426 229 LINE"
);
}
);
width = 500;
}
);
leftKerningGroup = o;
leftMetricsKey = o;
rightKerningGroup = e;
unicode = 0065;
},
{
color = 3;
glyphname = f;
lastChange = "2019-02-26 16:50:53 +0000";
layers = (
{
layerId = "3A083A2A-974B-4791-8355-BC872DC0CF17";
paths = (
{
closed = 1;
nodes = (
"261 0 LINE",
"261 437 LINE",
"263 465 LINE",
"199 641 LINE",
"256 623 OFFCURVE",
"307 593 OFFCURVE",
"350 551 CURVE",
"440 702 LINE",
"392 735 OFFCURVE",
"336 751 OFFCURVE",
"291 751 CURVE SMOOTH",
"180 751 OFFCURVE",
"87 659 OFFCURVE",
"87 535 CURVE SMOOTH",
"87 0 LINE"
);
},
{
closed = 1;
nodes = (
"135 0 LINE",
"145 83 LINE",
"107 74 OFFCURVE",
"59 57 OFFCURVE",
"21 35 CURVE",
"23 0 LINE"
);
},
{
closed = 1;
nodes = (
"350 0 LINE",
"352 49 LINE",
"315 72 OFFCURVE",
"271 87 OFFCURVE",
"229 97 CURVE",
"204 0 LINE"
);
},
{
closed = 1;
nodes = (
"201 362 LINE",
"214 431 LINE",
"147 491 LINE",
"103 468 OFFCURVE",
"57 444 OFFCURVE",
"11 415 CURVE",
"13 360 LINE"
);
},
{
closed = 1;
nodes = (
"323 360 LINE",
"374 424 LINE",
"372 473 LINE",
"207 473 LINE",
"207 360 LINE"
);
}
);
width = 390;
}
);
leftKerningGroup = f;
leftMetricsKey = n;
rightKerningGroup = f;
unicode = 0066;
},
{
color = 3;
glyphname = g;
lastChange = "2019-02-26 16:50:53 +0000";
layers = (
{
anchors = (
{
name = top;
position = "{265, 468}";
}
);
layerId = "3A083A2A-974B-4791-8355-BC872DC0CF17";
paths = (
{
closed = 1;
nodes = (
"434 -247 OFFCURVE",
"593 -82 OFFCURVE",
"531 63 CURVE",
"434 94 OFFCURVE",
"301 118 OFFCURVE",
"189 119 CURVE",
"210 140 OFFCURVE",
"238 163 OFFCURVE",
"269 181 CURVE",
"207 198 LINE",
"147 170 OFFCURVE",
"92 127 OFFCURVE",
"44 77 CURVE",
"65 3 LINE",
"202 -3 OFFCURVE",
"342 -26 OFFCURVE",
"423 -58 CURVE",
"393 -98 OFFCURVE",
"322 -119 OFFCURVE",
"259 -119 CURVE SMOOTH",
"198 -119 OFFCURVE",
"148 -101 OFFCURVE",
"148 -61 CURVE SMOOTH",
"148 -28 OFFCURVE",
"192 11 OFFCURVE",
"263 51 CURVE",
"170 46 LINE",
"14 -93 LINE",
"23 -208 OFFCURVE",
"135 -247 OFFCURVE",
"232 -247 CURVE SMOOTH"
);
},
{
closed = 1;
nodes = (
"410 156 OFFCURVE",
"502 233 OFFCURVE",
"502 329 CURVE SMOOTH",
"502 427 OFFCURVE",
"406 504 OFFCURVE",
"267 504 CURVE SMOOTH",
"122 504 OFFCURVE",
"30 419 OFFCURVE",
"30 326 CURVE SMOOTH",
"30 237 OFFCURVE",
"112 156 OFFCURVE",
"263 156 CURVE SMOOTH"
);
},
{
closed = 1;
nodes = (
"233 213 OFFCURVE",
"198 265 OFFCURVE",
"198 330 CURVE SMOOTH",
"198 365 OFFCURVE",
"207 406 OFFCURVE",
"224 420 CURVE",
"291 446 OFFCURVE",
"335 381 OFFCURVE",
"335 319 CURVE SMOOTH",
"335 284 OFFCURVE",
"324 247 OFFCURVE",
"302 232 CURVE"
);
},
{
closed = 1;
nodes = (
"425 380 LINE",
"464 414 OFFCURVE",
"513 428 OFFCURVE",
"572 419 CURVE",
"544 561 LINE",
"415 555 OFFCURVE",
"384 448 OFFCURVE",
"402 361 CURVE"
);
}
);
width = 580;
}
);
leftKerningGroup = g;
rightKerningGroup = g;
unicode = 0067;
},
{
color = 9;
glyphname = h;
lastChange = "2019-02-26 16:50:53 +0000";
layers = (
{
layerId = "3A083A2A-974B-4791-8355-BC872DC0CF17";
paths = (
{
closed = 1;
nodes = (
"563 0 LINE",
"563 296 LINE SMOOTH",
"563 380 OFFCURVE",
"561 406 OFFCURVE",
"551 423 CURVE SMOOTH",
"516 478 OFFCURVE",
"451 494 OFFCURVE",
"412 495 CURVE",
"340 472 OFFCURVE",
"250 413 OFFCURVE",
"166 329 CURVE",
"171 303 LINE",
"219 339 OFFCURVE",
"276 376 OFFCURVE",
"322 378 CURVE SMOOTH",
"365 380 OFFCURVE",
"390 346 OFFCURVE",
"390 285 CURVE SMOOTH",
"390 0 LINE"
);
},
{
closed = 1;
nodes = (
"129 0 LINE",
"139 83 LINE",
"101 74 OFFCURVE",
"53 57 OFFCURVE",
"15 35 CURVE",
"17 0 LINE"
);
},
{
closed = 1;
nodes = (
"315 0 LINE",
"317 49 LINE",
"280 75 OFFCURVE",
"236 93 OFFCURVE",
"194 103 CURVE",
"169 0 LINE"
);
},
{
closed = 1;
nodes = (
"263 0 LINE",
"263 687 LINE",
"209 737 LINE",
"90 684 LINE",
"90 0 LINE"
);
},
{
closed = 1;
nodes = (
"627 0 LINE",
"629 49 LINE",
"592 75 OFFCURVE",
"548 93 OFFCURVE",
"506 103 CURVE",
"481 0 LINE"
);
},
{
closed = 1;
nodes = (
"209 666 LINE",
"209 737 LINE",
"139 733 OFFCURVE",
"69 721 OFFCURVE",
"11 700 CURVE",
"16 650 LINE",
"133 629 LINE"
);
}
);
width = 642;
}
);
leftKerningGroup = l;
leftMetricsKey = n;
rightKerningGroup = n;
rightMetricsKey = n;
unicode = 0068;
},
{
color = 3;
glyphname = i;
lastChange = "2019-02-26 16:50:53 +0000";
layers = (
{
anchors = (
{
name = ogonek;
position = "{96, 0}";
}
);
layerId = "3A083A2A-974B-4791-8355-BC872DC0CF17";
paths = (
{
closed = 1;
nodes = (
"263 0 LINE",
"263 450 LINE",
"209 498 LINE",
"90 446 LINE",
"90 0 LINE"
);
},
{
closed = 1;
nodes = (
"128 0 LINE",
"138 83 LINE",
"100 74 OFFCURVE",
"52 57 OFFCURVE",
"14 35 CURVE",
"16 0 LINE"
);
},
{
closed = 1;
nodes = (
"333 0 LINE",
"335 49 LINE",
"298 75 OFFCURVE",
"242 93 OFFCURVE",
"200 103 CURVE",
"175 0 LINE"
);
},
{
closed = 1;
nodes = (
"209 428 LINE",
"209 498 LINE",
"139 496 OFFCURVE",
"69 483 OFFCURVE",
"11 461 CURVE",
"16 413 LINE",
"133 391 LINE"
);
},
{
closed = 1;
nodes = (
"224 578 OFFCURVE",
"258 618 OFFCURVE",
"279 660 CURVE",
"251 701 OFFCURVE",
"210 739 OFFCURVE",
"166 762 CURVE",
"126 733 OFFCURVE",
"92 690 OFFCURVE",
"67 642 CURVE",
"97 605 OFFCURVE",
"141 571 OFFCURVE",
"186 551 CURVE"
);
}
);
width = 348;
}
);
leftKerningGroup = n;
leftMetricsKey = n;
rightKerningGroup = i;
rightMetricsKey = n;
unicode = 0069;
},
{
color = 3;
glyphname = j;
lastChange = "2019-02-26 16:50:53 +0000";
layers = (
{
anchors = (
{
name = top;
position = "{60, 200}";
}
);
layerId = "3A083A2A-974B-4791-8355-BC872DC0CF17";
paths = (
{
closed = 1;
nodes = (
"196 -202 OFFCURVE",
"261 -111 OFFCURVE",
"261 -45 CURVE SMOOTH",
"261 450 LINE",
"207 498 LINE",
"88 446 LINE",
"88 -55 LINE SMOOTH",
"88 -123 OFFCURVE",
"50 -157 OFFCURVE",
"-10 -177 CURVE",
"7 -219 LINE"
);
},
{
closed = 1;
nodes = (
"206 428 LINE",
"206 498 LINE",
"136 496 OFFCURVE",
"66 483 OFFCURVE",
"8 461 CURVE",
"13 413 LINE",
"130 391 LINE"
);
},
{
closed = 1;
nodes = (
"221 578 OFFCURVE",
"255 617 OFFCURVE",
"276 660 CURVE",
"248 700 OFFCURVE",
"207 738 OFFCURVE",
"163 762 CURVE",
"123 732 OFFCURVE",
"89 690 OFFCURVE",
"64 642 CURVE",
"94 605 OFFCURVE",
"138 571 OFFCURVE",
"183 550 CURVE"
);
}
);
width = 328;
}
);
leftKerningGroup = j;
rightKerningGroup = j;
unicode = 006A;
},
{
color = 9;
glyphname = k;
lastChange = "2019-02-26 16:50:53 +0000";
layers = (
{
anchors = (
{
name = bottom;
position = "{318, 0}";
}
);
layerId = "3A083A2A-974B-4791-8355-BC872DC0CF17";
paths = (
{
closed = 1;
nodes = (
"265 0 LINE",
"265 687 LINE",
"211 737 LINE",
"92 684 LINE",
"92 0 LINE"
);
},
{
closed = 1;
nodes = (
"130 0 LINE",
"140 83 LINE",
"102 74 OFFCURVE",
"54 57 OFFCURVE",
"16 35 CURVE",
"18 0 LINE"
);
},
{
closed = 1;
nodes = (
"584 -6 LINE",
"592 41 LINE",
"570 53 OFFCURVE",
"558 65 OFFCURVE",
"546 76 CURVE SMOOTH",
"410 267 LINE",
"263 213 LINE",
"365 49 LINE SMOOTH",
"382 23 OFFCURVE",
"394 6 OFFCURVE",
"413 -6 CURVE"
);
},
{
closed = 1;
nodes = (
"567 431 LINE",
"520 498 LINE",
"406 445 LINE",
"240 225 LINE",
"358 175 LINE"
);
},
{
closed = 1;
nodes = (
"209 666 LINE",
"209 737 LINE",
"139 733 OFFCURVE",
"69 721 OFFCURVE",
"11 700 CURVE",
"16 650 LINE",
"133 629 LINE"
);
},
{
closed = 1;
nodes = (
"520 429 LINE",
"520 498 LINE",
"450 496 OFFCURVE",
"376 483 OFFCURVE",
"318 462 CURVE",
"323 413 LINE",
"444 392 LINE"
);
}
);
width = 610;
}
);
leftKerningGroup = l;
leftMetricsKey = n;
rightKerningGroup = k;
unicode = 006B;
},
{
color = 3;
glyphname = l;
lastChange = "2019-02-26 16:50:53 +0000";
layers = (
{
anchors = (
{
name = bottom;
position = "{186, 0}";
},
{
name = top;
position = "{171, 735}";
},
{
name = topright;
position = "{338, 468}";
}
);
layerId = "3A083A2A-974B-4791-8355-BC872DC0CF17";
paths = (
{
closed = 1;
nodes = (
"263 0 LINE",
"263 687 LINE",
"209 737 LINE",
"90 684 LINE",
"90 0 LINE"
);
},
{
closed = 1;
nodes = (
"128 0 LINE",
"138 83 LINE",
"100 74 OFFCURVE",
"52 57 OFFCURVE",
"14 35 CURVE",
"16 0 LINE"
);
},
{
closed = 1;
nodes = (
"333 0 LINE",
"335 49 LINE",
"298 75 OFFCURVE",
"242 93 OFFCURVE",
"200 103 CURVE",
"175 0 LINE"
);
},
{
closed = 1;
nodes = (
"209 666 LINE",
"209 737 LINE",
"139 733 OFFCURVE",
"69 721 OFFCURVE",
"11 700 CURVE",
"16 650 LINE",
"133 629 LINE"
);
}
);
width = 355;
}
);
leftKerningGroup = l;
leftMetricsKey = n;
rightKerningGroup = l;
unicode = 006C;
},
{
color = 9;
glyphname = m;
lastChange = "2019-02-26 16:50:53 +0000";
layers = (
{
layerId = "3A083A2A-974B-4791-8355-BC872DC0CF17";
paths = (
{
closed = 1;
nodes = (
"858 0 LINE",
"858 296 LINE SMOOTH",
"858 380 OFFCURVE",
"856 406 OFFCURVE",
"846 423 CURVE SMOOTH",
"811 478 OFFCURVE",
"746 494 OFFCURVE",
"707 495 CURVE",
"635 472 OFFCURVE",
"545 413 OFFCURVE",
"461 329 CURVE",
"466 303 LINE",
"514 339 OFFCURVE",
"571 376 OFFCURVE",
"617 378 CURVE SMOOTH",
"660 380 OFFCURVE",
"685 346 OFFCURVE",
"685 285 CURVE SMOOTH",
"685 0 LINE"
);
},
{
closed = 1;
nodes = (
"130 0 LINE",
"140 83 LINE",
"102 74 OFFCURVE",
"54 57 OFFCURVE",
"16 35 CURVE",
"18 0 LINE"
);
},
{
closed = 1;
nodes = (
"319 0 LINE",
"321 49 LINE",
"284 75 OFFCURVE",
"240 93 OFFCURVE",
"198 103 CURVE",
"173 0 LINE"
);
},
{
closed = 1;
nodes = (
"263 0 LINE",
"263 444 LINE",
"209 498 LINE",
"90 446 LINE",
"90 0 LINE"
);
},
{
closed = 1;
nodes = (
"209 428 LINE",
"209 498 LINE",
"139 496 OFFCURVE",
"69 483 OFFCURVE",
"11 461 CURVE",
"16 413 LINE",
"133 391 LINE"
);
},
{
closed = 1;
nodes = (
"617 0 LINE",
"620 49 LINE",
"582 75 OFFCURVE",
"537 93 OFFCURVE",
"495 103 CURVE",
"470 0 LINE"
);
},
{
closed = 1;
nodes = (
"560 0 LINE",
"560 296 LINE SMOOTH",
"560 380 OFFCURVE",
"558 406 OFFCURVE",
"548 423 CURVE SMOOTH",
"513 478 OFFCURVE",
"448 494 OFFCURVE",
"409 495 CURVE",
"337 472 OFFCURVE",
"247 413 OFFCURVE",
"163 329 CURVE",
"168 303 LINE",
"216 339 OFFCURVE",
"273 376 OFFCURVE",
"319 378 CURVE SMOOTH",
"362 380 OFFCURVE",
"387 346 OFFCURVE",
"387 285 CURVE SMOOTH",
"387 0 LINE"
);
},
{
closed = 1;
nodes = (
"932 0 LINE",
"935 49 LINE",
"897 75 OFFCURVE",
"840 93 OFFCURVE",
"798 103 CURVE",
"773 0 LINE"
);
}
);
width = 948;
}
);
leftKerningGroup = n;
leftMetricsKey = n;
rightKerningGroup = n;
rightMetricsKey = n;
unicode = 006D;
},
{
color = 9;
glyphname = n;
lastChange = "2019-02-26 16:50:53 +0000";
layers = (
{
anchors = (
{
name = bottom;
position = "{333, 0}";
},
{
name = top;
position = "{325, 468}";
}
);
layerId = "3A083A2A-974B-4791-8355-BC872DC0CF17";
paths = (
{
closed = 1;
nodes = (
"565 0 LINE",
"565 296 LINE SMOOTH",
"565 380 OFFCURVE",
"563 406 OFFCURVE",
"553 423 CURVE SMOOTH",
"518 478 OFFCURVE",
"453 494 OFFCURVE",
"414 495 CURVE",
"342 472 OFFCURVE",
"252 413 OFFCURVE",
"168 329 CURVE",
"173 303 LINE",
"221 339 OFFCURVE",
"278 376 OFFCURVE",
"324 378 CURVE SMOOTH",
"367 380 OFFCURVE",
"392 346 OFFCURVE",
"392 285 CURVE SMOOTH",
"392 0 LINE"
);
},
{
closed = 1;
nodes = (
"130 0 LINE",
"140 83 LINE",
"102 74 OFFCURVE",
"54 57 OFFCURVE",
"16 35 CURVE",
"18 0 LINE"
);
},
{
closed = 1;
nodes = (
"319 0 LINE",
"321 49 LINE",
"284 75 OFFCURVE",
"240 93 OFFCURVE",
"198 103 CURVE",
"173 0 LINE"
);
},
{
closed = 1;
nodes = (
"263 0 LINE",
"263 444 LINE",
"209 498 LINE",
"90 446 LINE",
"90 0 LINE"
);
},
{
closed = 1;
nodes = (
"209 428 LINE",
"209 498 LINE",
"139 496 OFFCURVE",
"69 483 OFFCURVE",
"11 461 CURVE",
"16 413 LINE",
"133 391 LINE"
);
},
{
closed = 1;
nodes = (
"634 0 LINE",
"637 49 LINE",
"599 75 OFFCURVE",
"542 93 OFFCURVE",
"500 103 CURVE",
"475 0 LINE"
);
}
);
width = 650;
}
);
leftKerningGroup = n;
rightKerningGroup = n;
unicode = 006E;
},
{
color = 3;
glyphname = o;
lastChange = "2019-02-26 16:50:53 +0000";
layers = (
{
anchors = (
{
name = top;
position = "{261, 468}";
}
);
layerId = "3A083A2A-974B-4791-8355-BC872DC0CF17";
paths = (
{
closed = 1;
nodes = (
"397 -20 OFFCURVE",
"511 72 OFFCURVE",
"511 238 CURVE SMOOTH",
"511 408 OFFCURVE",
"392 500 OFFCURVE",
"262 500 CURVE SMOOTH",
"131 500 OFFCURVE",
"11 408 OFFCURVE",
"11 243 CURVE SMOOTH",
"11 77 OFFCURVE",
"133 -20 OFFCURVE",
"266 -20 CURVE SMOOTH"
);
},
{
closed = 1;
nodes = (
"210 70 OFFCURVE",
"186 147 OFFCURVE",
"186 241 CURVE SMOOTH",
"186 307 OFFCURVE",
"196 365 OFFCURVE",
"216 393 CURVE",
"225 400 OFFCURVE",
"240 404 OFFCURVE",
"255 404 CURVE SMOOTH",
"314 404 OFFCURVE",
"336 324 OFFCURVE",
"336 227 CURVE SMOOTH",
"336 160 OFFCURVE",
"328 97 OFFCURVE",
"299 75 CURVE",
"288 71 OFFCURVE",
"280 70 OFFCURVE",
"271 70 CURVE SMOOTH"
);
}
);
width = 527;
}
);
leftKerningGroup = o;
rightKerningGroup = o;
unicode = 006F;
},
{
color = 3;
glyphname = p;
lastChange = "2019-02-26 16:50:53 +0000";
layers = (
{
layerId = "3A083A2A-974B-4791-8355-BC872DC0CF17";
paths = (
{
closed = 1;
nodes = (
"500 -6 OFFCURVE",
"588 123 OFFCURVE",
"588 261 CURVE SMOOTH",
"588 396 OFFCURVE",
"505 514 OFFCURVE",
"367 491 CURVE",
"195 364 LINE",
"204 329 LINE",
"243 354 OFFCURVE",
"278 373 OFFCURVE",
"310 373 CURVE SMOOTH",
"371 373 OFFCURVE",
"404 305 OFFCURVE",
"404 232 CURVE SMOOTH",
"404 172 OFFCURVE",
"382 110 OFFCURVE",
"348 78 CURVE",
"282 74 OFFCURVE",
"212 99 OFFCURVE",
"179 128 CURVE",
"109 52 LINE",
"178 17 OFFCURVE",
"265 -6 OFFCURVE",
"333 -6 CURVE SMOOTH"
);
},
{
closed = 1;
nodes = (
"137 -202 LINE",
"147 -119 LINE",
"109 -134 OFFCURVE",
"61 -151 OFFCURVE",
"23 -167 CURVE",
"25 -202 LINE"
);
},
{
closed = 1;
nodes = (
"355 -202 LINE",
"357 -153 LINE",
"320 -133 OFFCURVE",
"276 -115 OFFCURVE",
"234 -99 CURVE",
"209 -202 LINE"
);
},
{
closed = 1;
nodes = (
"262 -202 LINE",
"262 450 LINE",
"208 498 LINE",
"89 446 LINE",
"89 -202 LINE"
);
},
{
closed = 1;
nodes = (
"216 456 LINE",
"209 498 LINE",
"139 496 OFFCURVE",
"69 483 OFFCURVE",
"11 461 CURVE",
"16 413 LINE",
"133 391 LINE"
);
}
);
width = 604;
}
);
leftKerningGroup = n;
leftMetricsKey = n;
rightKerningGroup = o;
rightMetricsKey = o;
unicode = 0070;
},
{
color = 9;
glyphname = q;
lastChange = "2019-02-26 16:50:53 +0000";
layers = (
{
layerId = "3A083A2A-974B-4791-8355-BC872DC0CF17";
paths = (
{
closed = 1;
nodes = (
"407 117 LINE",
"413 165 LINE",
"366 130 OFFCURVE",
"321 114 OFFCURVE",
"290 114 CURVE SMOOTH",
"227 114 OFFCURVE",
"192 179 OFFCURVE",
"192 256 CURVE SMOOTH",
"192 315 OFFCURVE",
"211 377 OFFCURVE",
"248 410 CURVE",
"317 413 OFFCURVE",
"379 377 OFFCURVE",
"415 328 CURVE",
"507 451 LINE",
"453 479 OFFCURVE",
"367 501 OFFCURVE",
"295 501 CURVE SMOOTH",
"112 501 OFFCURVE",
"11 380 OFFCURVE",
"11 238 CURVE SMOOTH",
"11 107 OFFCURVE",
"96 -14 OFFCURVE",
"234 -11 CURVE"
);
},
{
closed = 1;
nodes = (
"352 -202 LINE",
"356 -119 LINE",
"318 -128 OFFCURVE",
"270 -145 OFFCURVE",
"232 -167 CURVE",
"234 -202 LINE"
);
},
{
closed = 1;
nodes = (
"559 -202 LINE",
"561 -153 LINE",
"524 -127 OFFCURVE",
"480 -109 OFFCURVE",
"438 -99 CURVE",
"413 -202 LINE"
);
},
{
closed = 1;
nodes = (
"507 -202 LINE",
"507 451 LINE",
"361 423 LINE",
"334 417 LINE",
"334 -202 LINE"
);
}
);
width = 575;
}
);
leftKerningGroup = o;
leftMetricsKey = o;
unicode = 0071;
},
{
color = 9;
glyphname = r;
lastChange = "2019-02-26 16:50:53 +0000";
layers = (
{
anchors = (
{
name = bottom;
position = "{193, 0}";
},
{
name = top;
position = "{263, 468}";
}
);
layerId = "3A083A2A-974B-4791-8355-BC872DC0CF17";
paths = (
{
closed = 1;
nodes = (
"278 339 LINE",
"317 334 OFFCURVE",
"355 303 OFFCURVE",
"385 278 CURVE",
"500 423 LINE",
"477 484 OFFCURVE",
"403 512 OFFCURVE",
"342 494 CURVE",
"183 314 LINE",
"155 249 LINE"
);
},
{
closed = 1;
nodes = (
"130 0 LINE",
"140 83 LINE",
"102 74 OFFCURVE",
"54 57 OFFCURVE",
"16 35 CURVE",
"18 0 LINE"
);
},
{
closed = 1;
nodes = (
"370 0 LINE",
"372 49 LINE",
"335 72 OFFCURVE",
"283 87 OFFCURVE",
"241 97 CURVE",
"216 0 LINE"
);
},
{
closed = 1;
nodes = (
"263 0 LINE",
"263 423 LINE",
"209 498 LINE",
"90 446 LINE",
"90 0 LINE"
);
},
{
closed = 1;
nodes = (
"209 428 LINE",
"209 498 LINE",
"139 496 OFFCURVE",
"69 483 OFFCURVE",
"11 461 CURVE",
"16 413 LINE",
"133 391 LINE"
);
}
);
width = 496;
}
);
leftKerningGroup = n;
leftMetricsKey = n;
rightKerningGroup = r;
unicode = 0072;
},
{
color = 3;
glyphname = s;
lastChange = "2019-02-26 16:50:53 +0000";
layers = (
{
layerId = "3A083A2A-974B-4791-8355-BC872DC0CF17";
paths = (
{
closed = 1;
nodes = (
"354 -20 OFFCURVE",
"431 47 OFFCURVE",
"431 135 CURVE SMOOTH",
"431 290 OFFCURVE",
"189 298 OFFCURVE",
"189 381 CURVE SMOOTH",
"189 396 OFFCURVE",
"196 413 OFFCURVE",
"229 423 CURVE",
"273 422 OFFCURVE",
"332 406 OFFCURVE",
"374 379 CURVE",
"409 467 LINE",
"365 490 OFFCURVE",
"305 500 OFFCURVE",
"254 500 CURVE SMOOTH",
"125 500 OFFCURVE",
"33 437 OFFCURVE",
"33 343 CURVE SMOOTH",
"33 192 OFFCURVE",
"272 185 OFFCURVE",
"272 102 CURVE SMOOTH",
"272 89 OFFCURVE",
"265 74 OFFCURVE",
"254 65 CURVE",
"191 87 OFFCURVE",
"128 123 OFFCURVE",
"74 165 CURVE",
"17 34 LINE",
"89 -4 OFFCURVE",
"163 -20 OFFCURVE",
"226 -20 CURVE SMOOTH"
);
},
{
closed = 1;
nodes = (
"394 327 LINE",
"409 372 OFFCURVE",
"414 420 OFFCURVE",
"409 467 CURVE",
"256 473 LINE",
"306 327 LINE"
);
}
);
width = 459;
}
);
leftKerningGroup = s;
rightKerningGroup = s;
unicode = 0073;
},
{
color = 3;
glyphname = t;
lastChange = "2019-02-26 16:50:53 +0000";
layers = (
{
anchors = (
{
name = bottom;
position = "{197, 0}";
},
{
name = center;
position = "{207, 234}";
},
{
name = topright;
position = "{394, 468}";
}
);
layerId = "3A083A2A-974B-4791-8355-BC872DC0CF17";
paths = (
{
closed = 1;
nodes = (
"376 68 LINE",
"369 120 LINE",
"344 115 OFFCURVE",
"312 111 OFFCURVE",
"289 111 CURVE SMOOTH",
"263 111 OFFCURVE",
"251 121 OFFCURVE",
"251 154 CURVE SMOOTH",
"251 444 LINE",
"221 607 LINE",
"142 607 LINE",
"78 451 LINE",
"78 92 LINE SMOOTH",
"78 33 OFFCURVE",
"144 -20 OFFCURVE",
"211 -17 CURVE"
);
},
{
closed = 1;
nodes = (
"192 362 LINE",
"206 431 LINE",
"179 522 LINE",
"109 488 OFFCURVE",
"50 454 OFFCURVE",
"2 415 CURVE",
"5 361 LINE"
);
},
{
closed = 1;
nodes = (
"335 360 LINE",
"385 423 LINE",
"384 473 LINE",
"201 473 LINE",
"201 360 LINE"
);
}
);
width = 402;
}
);
leftKerningGroup = t;
rightKerningGroup = t;
unicode = 0074;
},
{
color = 3;
glyphname = u;
lastChange = "2019-02-26 16:50:53 +0000";
layers = (
{
anchors = (
{
name = ogonek;
position = "{569, 11}";
},
{
name = top;
position = "{294, 468}";
}
);
layerId = "3A083A2A-974B-4791-8355-BC872DC0CF17";
paths = (
{
closed = 1;
nodes = (
"307 6 OFFCURVE",
"402 65 OFFCURVE",
"478 146 CURVE",
"473 173 LINE",
"423 138 OFFCURVE",
"370 105 OFFCURVE",
"322 103 CURVE SMOOTH",
"274 100 OFFCURVE",
"252 128 OFFCURVE",
"252 186 CURVE SMOOTH",
"252 450 LINE",
"198 498 LINE",
"79 449 LINE",
"79 185 LINE SMOOTH",
"79 101 OFFCURVE",
"82 75 OFFCURVE",
"93 58 CURVE SMOOTH",
"128 3 OFFCURVE",
"191 -17 OFFCURVE",
"230 -17 CURVE"
);
},
{
closed = 1;
nodes = (
"198 428 LINE",
"198 498 LINE",
"128 496 OFFCURVE",
"58 483 OFFCURVE",
"0 461 CURVE",
"5 413 LINE",
"122 391 LINE"
);
},
{
closed = 1;
nodes = (
"630 57 LINE",
"624 101 LINE",
"602 100 OFFCURVE",
"588 98 OFFCURVE",
"573 98 CURVE SMOOTH",
"557 98 OFFCURVE",
"548 108 OFFCURVE",
"548 122 CURVE",
"548 450 LINE",
"494 498 LINE",
"375 449 LINE",
"375 78 LINE",
"389 73 LINE",
"412 21 OFFCURVE",
"457 -15 OFFCURVE",
"497 -17 CURVE"
);
},
{
closed = 1;
nodes = (
"494 428 LINE",
"494 498 LINE",
"430 497 OFFCURVE",
"366 485 OFFCURVE",
"314 464 CURVE",
"319 416 LINE",
"418 391 LINE"
);
}
);
width = 634;
}
);
leftKerningGroup = u;
rightKerningGroup = u;
rightMetricsKey = d;
unicode = 0075;
},
{
color = 9;
glyphname = v;
lastChange = "2019-02-26 16:50:53 +0000";
layers = (
{
layerId = "3A083A2A-974B-4791-8355-BC872DC0CF17";
paths = (
{
closed = 1;
nodes = (
"225 -11 OFFCURVE",
"305 -10 OFFCURVE",
"349 3 CURVE",
"417 156 OFFCURVE",
"477 325 OFFCURVE",
"542 479 CURVE",
"355 479 LINE",
"342 375 OFFCURVE",
"323 254 OFFCURVE",
"303 150 CURVE",
"289 150 LINE",
"275 226 LINE",
"196 479 LINE",
"16 455 LINE",
"185 -4 LINE"
);
},
{
closed = 1;
nodes = (
"196 479 LINE",
"-22 479 LINE",
"-23 424 LINE",
"151 325 LINE"
);
},
{
closed = 1;
nodes = (
"515 403 OFFCURVE",
"537 415 OFFCURVE",
"559 430 CURVE",
"556 479 LINE",
"403 479 LINE",
"490 393 LINE"
);
}
);
width = 556;
}
);
leftKerningGroup = v;
rightKerningGroup = v;
unicode = 0076;
},
{
color = 9;
glyphname = w;
lastChange = "2019-02-26 16:50:53 +0000";
layers = (
{
anchors = (
{
name = top;
position = "{152, 200}";
}
);
layerId = "3A083A2A-974B-4791-8355-BC872DC0CF17";
paths = (
{
closed = 1;
nodes = (
"487 -12 OFFCURVE",
"561 -10 OFFCURVE",
"607 5 CURVE",
"776 479 LINE",
"588 479 LINE",
"561 136 LINE",
"548 136 LINE",
"459 475 LINE",
"283 467 LINE",
"447 -4 LINE"
);
},
{
closed = 1;
nodes = (
"209 -11 OFFCURVE",
"288 -10 OFFCURVE",
"333 5 CURVE",
"407 176 LINE",
"426 274 LINE",
"362 313 LINE",
"298 136 LINE",
"284 136 LINE",
"188 479 LINE",
"11 455 LINE",
"168 -4 LINE"
);
},
{
closed = 1;
nodes = (
"187 479 LINE",
"-22 479 LINE",
"-23 424 LINE",
"145 325 LINE"
);
},
{
closed = 1;
nodes = (
"751 403 OFFCURVE",
"773 415 OFFCURVE",
"795 430 CURVE",
"792 479 LINE",
"639 479 LINE",
"726 393 LINE"
);
}
);
width = 792;
}
);
leftKerningGroup = v;
leftMetricsKey = v;
rightKerningGroup = v;
rightMetricsKey = v;
unicode = 0077;
},
{
color = 3;
glyphname = x;
lastChange = "2019-02-26 16:50:53 +0000";
layers = (
{
layerId = "3A083A2A-974B-4791-8355-BC872DC0CF17";
paths = (
{
closed = 1;
nodes = (
"558 0 LINE",
"213 479 LINE",
"41 444 LINE",
"373 0 LINE"
);
},
{
closed = 1;
nodes = (
"110 0 LINE",
"120 83 LINE",
"82 74 OFFCURVE",
"34 57 OFFCURVE",
"-4 35 CURVE",
"-2 0 LINE"
);
},
{
closed = 1;
nodes = (
"274 0 LINE",
"276 49 LINE",
"239 75 OFFCURVE",
"195 93 OFFCURVE",
"153 103 CURVE",
"124 0 LINE"
);
},
{
closed = 1;
nodes = (
"196 0 LINE",
"264 183 LINE",
"216 258 LINE",
"16 17 LINE",
"42 0 LINE"
);
},
{
closed = 1;
nodes = (
"436 0 LINE",
"426 83 LINE",
"388 74 OFFCURVE",
"340 57 OFFCURVE",
"302 35 CURVE",
"304 0 LINE"
);
},
{
closed = 1;
nodes = (
"221 479 LINE",
"14 479 LINE",
"14 424 LINE",
"191 325 LINE"
);
},
{
closed = 1;
nodes = (
"579 0 LINE",
"581 49 LINE",
"544 75 OFFCURVE",
"500 93 OFFCURVE",
"458 103 CURVE",
"429 0 LINE"
);
},
{
closed = 1;
nodes = (
"237 403 OFFCURVE",
"259 415 OFFCURVE",
"281 430 CURVE",
"278 479 LINE",
"167 479 LINE",
"212 393 LINE SMOOTH"
);
},
{
closed = 1;
nodes = (
"513 414 LINE",
"528 479 LINE",
"372 479 LINE",
"311 302 LINE",
"345 220 LINE"
);
},
{
closed = 1;
nodes = (
"530 479 LINE",
"311 479 LINE",
"311 424 LINE",
"422 375 LINE"
);
},
{
closed = 1;
nodes = (
"500 398 OFFCURVE",
"538 417 OFFCURVE",
"560 430 CURVE",
"557 479 LINE",
"404 479 LINE",
"473 390 LINE"
);
}
);
width = 584;
}
);
leftKerningGroup = x;
rightKerningGroup = x;
unicode = 0078;
},
{
color = 9;
glyphname = y;
lastChange = "2019-02-26 16:50:53 +0000";
layers = (
{
anchors = (
{
name = top;
position = "{298, 468}";
}
);
layerId = "3A083A2A-974B-4791-8355-BC872DC0CF17";
paths = (
{
closed = 1;
nodes = (
"296 -145 OFFCURVE",
"371 -49 OFFCURVE",
"424 83 CURVE SMOOTH",
"472 209 OFFCURVE",
"509 355 OFFCURVE",
"545 479 CURVE",
"365 479 LINE",
"349 375 OFFCURVE",
"322 256 OFFCURVE",
"297 156 CURVE",
"281 156 LINE",
"273 236 LINE",
"203 479 LINE",
"28 451 LINE",
"177 44 LINE",
"209 34 OFFCURVE",
"240 24 OFFCURVE",
"275 16 CURVE",
"205 -22 OFFCURVE",
"130 -50 OFFCURVE",
"51 -74 CURVE",
"141 -230 LINE"
);
},
{
closed = 1;
nodes = (
"202 479 LINE",
"-22 479 LINE",
"-23 424 LINE",
"158 325 LINE"
);
},
{
closed = 1;
nodes = (
"523 403 OFFCURVE",
"551 415 OFFCURVE",
"573 430 CURVE",
"570 479 LINE",
"411 479 LINE",
"498 393 LINE"
);
}
);
width = 570;
}
);
leftKerningGroup = v;
leftMetricsKey = v;
rightKerningGroup = y;
rightMetricsKey = v;
unicode = 0079;
},
{
color = 9;
glyphname = z;
lastChange = "2019-02-26 16:50:53 +0000";
layers = (
{
anchors = (
{
name = top;
position = "{269, 468}";
}
);
layerId = "3A083A2A-974B-4791-8355-BC872DC0CF17";
paths = (
{
closed = 1;
nodes = (
"149 36 LINE",
"212 45 LINE",
"508 447 LINE",
"452 500 LINE",
"394 463 LINE",
"327 467 LINE",
"16 33 LINE",
"77 -18 LINE"
);
},
{
closed = 1;
nodes = (
"479 41 OFFCURVE",
"490 95 OFFCURVE",
"501 158 CURVE",
"446 144 LINE",
"399 131 LINE",
"125 78 LINE",
"95 30 LINE",
"465 -18 LINE"
);
},
{
closed = 1;
nodes = (
"144 298 LINE",
"202 443 LINE",
"48 479 LINE",
"40 426 OFFCURVE",
"42 351 OFFCURVE",
"52 298 CURVE"
);
},
{
closed = 1;
nodes = (
"403 429 LINE",
"443 479 LINE",
"47 479 LINE",
"49 375 LINE"
);
}
);
width = 525;
}
);
leftKerningGroup = z;
rightKerningGroup = z;
unicode = 007A;
},
{
color = 3;
glyphname = braceleft;
lastChange = "2019-02-26 16:50:53 +0000";
layers = (
{
layerId = "3A083A2A-974B-4791-8355-BC872DC0CF17";
paths = (
{
closed = 1;
nodes = (
"443 -36 LINE",
"329 -24 LINE",
"341 149 LINE SMOOTH",
"346 202 OFFCURVE",
"325 252 OFFCURVE",
"285 295 CURVE",
"285 304 LINE",
"325 346 OFFCURVE",
"346 397 OFFCURVE",
"341 449 CURVE SMOOTH",
"329 620 LINE",
"446 620 LINE",
"440 729 LINE",
"239 715 OFFCURVE",
"157 622 OFFCURVE",
"157 543 CURVE SMOOTH",
"157 443 LINE SMOOTH",
"157 374 OFFCURVE",
"150 333 OFFCURVE",
"70 327 CURVE",
"64 268 LINE",
"152 262 OFFCURVE",
"157 223 OFFCURVE",
"157 142 CURVE SMOOTH",
"157 28 LINE SMOOTH",
"157 -42 OFFCURVE",
"253 -135 OFFCURVE",
"433 -145 CURVE"
);
}
);
width = 529;
}
);
rightKerningGroup = space;
unicode = 007B;
},
{
color = 3;
glyphname = bar;
lastChange = "2019-02-26 16:50:53 +0000";
layers = (
{
layerId = "3A083A2A-974B-4791-8355-BC872DC0CF17";
paths = (
{
closed = 1;
nodes = (
"225 -225 LINE",
"224 735 LINE",
"96 735 LINE",
"96 -225 LINE"
);
}
);
width = 323;
}
);
rightKerningGroup = space;
unicode = 007C;
},
{
color = 3;
glyphname = braceright;
lastChange = "2019-02-26 16:50:53 +0000";
layers = (
{
layerId = "3A083A2A-974B-4791-8355-BC872DC0CF17";
paths = (
{
closed = 1;
nodes = (
"277 -135 OFFCURVE",
"373 -42 OFFCURVE",
"373 28 CURVE SMOOTH",
"373 142 LINE SMOOTH",
"373 223 OFFCURVE",
"378 262 OFFCURVE",
"466 268 CURVE",
"460 327 LINE",
"380 333 OFFCURVE",
"373 374 OFFCURVE",
"373 443 CURVE SMOOTH",
"373 543 LINE SMOOTH",
"373 622 OFFCURVE",
"291 715 OFFCURVE",
"90 729 CURVE",
"84 620 LINE",
"201 620 LINE",
"189 449 LINE SMOOTH",
"185 397 OFFCURVE",
"207 346 OFFCURVE",
"245 304 CURVE",
"245 295 LINE",
"207 252 OFFCURVE",
"185 202 OFFCURVE",
"189 149 CURVE SMOOTH",
"201 -24 LINE",
"87 -36 LINE",
"97 -145 LINE"
);
}
);
width = 532;
}
);
rightKerningGroup = space;
unicode = 007D;
},
{
color = 3;
glyphname = cent;
lastChange = "2018-12-16 00:51:22 +0000";
layers = (
{
components = (
{
name = c;
transform = "{1, 0, 0, 0.938, 0, 19}";
}
);
layerId = "3A083A2A-974B-4791-8355-BC872DC0CF17";
paths = (
{
closed = 1;
nodes = (
"314 465 LINE",
"314 599 LINE",
"216 599 LINE",
"216 465 LINE"
);
},
{
closed = 1;
nodes = (
"314 -117 LINE",
"314 17 LINE",
"216 17 LINE",
"216 -117 LINE"
);
}
);
width = 463;
}
);
leftMetricsKey = c;
rightMetricsKey = c;
unicode = 00A2;
},
{
color = 3;
glyphname = sterling;
lastChange = "2018-12-16 00:51:22 +0000";
layers = (
{
layerId = "3A083A2A-974B-4791-8355-BC872DC0CF17";
paths = (
{
closed = 1;
nodes = (
"155 0 LINE",
"391 192 OFFCURVE",
"254 363 OFFCURVE",
"254 488 CURVE SMOOTH",
"254 522 OFFCURVE",
"263 555 OFFCURVE",
"297 576 CURVE",
"365 568 OFFCURVE",
"420 547 OFFCURVE",
"474 492 CURVE",
"534 621 LINE",
"481 648 OFFCURVE",
"403 670 OFFCURVE",
"330 670 CURVE SMOOTH",
"162 670 OFFCURVE",
"71 559 OFFCURVE",
"71 461 CURVE SMOOTH",
"71 335 OFFCURVE",
"220 218 OFFCURVE",
"52 0 CURVE"
);
},
{
closed = 1;
nodes = (
"116 0 LINE",
"115 85 LINE",
"78 69 OFFCURVE",
"45 52 OFFCURVE",
"16 32 CURVE",
"22 0 LINE"
);
},
{
closed = 1;
nodes = (
"553 0 LINE",
"536 115 LINE",
"232 96 LINE",
"126 0 LINE"
);
},
{
closed = 1;
nodes = (
"206 246 LINE",
"243 262 LINE",
"382 262 LINE",
"425 302 LINE",
"419 337 LINE",
"258 337 LINE",
"221 321 LINE",
"61 321 LINE",
"18 281 LINE",
"24 246 LINE"
);
},
{
closed = 1;
nodes = (
"559 47 OFFCURVE",
"556 169 OFFCURVE",
"547 224 CURVE",
"465 231 LINE",
"370 16 LINE",
"552 0 LINE"
);
},
{
closed = 1;
nodes = (
"521 429 LINE",
"534 482 OFFCURVE",
"538 578 OFFCURVE",
"534 621 CURVE",
"345 611 LINE",
"433 429 LINE"
);
}
);
width = 591;
}
);
unicode = 00A3;
},
{
color = 3;
glyphname = currency;
lastChange = "2018-12-16 00:51:22 +0000";
layers = (
{
layerId = "3A083A2A-974B-4791-8355-BC872DC0CF17";
paths = (
{
closed = 1;
nodes = (
"344 161 OFFCURVE",
"439 230 OFFCURVE",
"439 357 CURVE SMOOTH",
"439 484 OFFCURVE",
"352 550 OFFCURVE",
"258 550 CURVE SMOOTH",
"164 550 OFFCURVE",
"69 475 OFFCURVE",
"69 357 CURVE SMOOTH",
"69 247 OFFCURVE",
"147 161 OFFCURVE",
"254 161 CURVE SMOOTH"
);
},
{
closed = 1;
nodes = (
"181 213 LINE",
"132 257 LINE",
"54 170 LINE",
"106 123 LINE"
);
},
{
closed = 1;
nodes = (
"460 174 LINE",
"380 261 LINE",
"330 212 LINE",
"410 125 LINE"
);
},
{
closed = 1;
nodes = (
"201 253 OFFCURVE",
"171 308 OFFCURVE",
"171 363 CURVE SMOOTH",
"171 400 OFFCURVE",
"185 435 OFFCURVE",
"205 453 CURVE",
"218 455 OFFCURVE",
"227 456 OFFCURVE",
"238 456 CURVE SMOOTH",
"312 456 OFFCURVE",
"337 401 OFFCURVE",
"337 348 CURVE SMOOTH",
"337 309 OFFCURVE",
"323 272 OFFCURVE",
"305 257 CURVE",
"293 254 OFFCURVE",
"279 253 OFFCURVE",
"271 253 CURVE SMOOTH"
);
},
{
closed = 1;
nodes = (
"177 500 LINE",
"101 585 LINE",
"48 538 LINE",
"127 449 LINE"
);
},
{
closed = 1;
nodes = (
"462 539 LINE",
"408 584 LINE",
"333 495 LINE",
"380 448 LINE"
);
}
);
width = 510;
}
);
unicode = 00A4;
},
{
color = 3;
glyphname = yen;
lastChange = "2018-12-16 00:51:22 +0000";
layers = (
{
components = (
{
name = Y;
transform = "{1, 0, 0, 1, -20, 0}";
}
);
layerId = "3A083A2A-974B-4791-8355-BC872DC0CF17";
paths = (
{
closed = 1;
nodes = (
"497 117 LINE",
"540 153 LINE",
"534 188 LINE",
"141 188 LINE",
"98 152 LINE",
"104 117 LINE"
);
},
{
closed = 1;
nodes = (
"497 236 LINE",
"540 271 LINE",
"534 306 LINE",
"141 306 LINE",
"98 271 LINE",
"104 236 LINE"
);
}
);
width = 657;
}
);
leftMetricsKey = y;
rightMetricsKey = Y;
unicode = 00A5;
},
{
color = 3;
glyphname = brokenbar;
lastChange = "2019-02-26 16:50:53 +0000";
layers = (
{
layerId = "3A083A2A-974B-4791-8355-BC872DC0CF17";
paths = (
{
closed = 1;
nodes = (
"224 358 LINE",
"224 616 LINE",
"96 616 LINE",
"96 358 LINE"
);
},
{
closed = 1;
nodes = (
"224 -76 LINE",
"224 182 LINE",
"96 182 LINE",
"96 -76 LINE"
);
}
);
width = 322;
}
);
leftMetricsKey = bar;
rightKerningGroup = space;
rightMetricsKey = bar;
unicode = 00A6;
},
{
color = 3;
glyphname = section;
lastChange = "2019-02-26 16:50:53 +0000";
layers = (
{
layerId = "3A083A2A-974B-4791-8355-BC872DC0CF17";
paths = (
{
closed = 1;
nodes = (
"445 146 OFFCURVE",
"487 194 OFFCURVE",
"487 258 CURVE SMOOTH",
"487 352 OFFCURVE",
"397 397 OFFCURVE",
"319 433 CURVE SMOOTH",
"249 466 OFFCURVE",
"204 484 OFFCURVE",
"204 527 CURVE SMOOTH",
"204 553 OFFCURVE",
"222 578 OFFCURVE",
"249 590 CURVE",
"313 594 OFFCURVE",
"378 571 OFFCURVE",
"417 537 CURVE",
"458 637 LINE",
"410 658 OFFCURVE",
"344 671 OFFCURVE",
"289 671 CURVE SMOOTH",
"159 671 OFFCURVE",
"60 603 OFFCURVE",
"60 503 CURVE SMOOTH",
"60 427 OFFCURVE",
"117 378 OFFCURVE",
"215 333 CURVE SMOOTH",
"280 303 OFFCURVE",
"360 278 OFFCURVE",
"360 217 CURVE SMOOTH",
"360 195 OFFCURVE",
"348 177 OFFCURVE",
"318 155 CURVE",
"370 113 LINE"
);
},
{
closed = 1;
nodes = (
"378 -149 OFFCURVE",
"465 -83 OFFCURVE",
"465 11 CURVE SMOOTH",
"465 88 OFFCURVE",
"407 138 OFFCURVE",
"323 175 CURVE SMOOTH",
"254 205 OFFCURVE",
"177 225 OFFCURVE",
"177 280 CURVE SMOOTH",
"177 310 OFFCURVE",
"199 334 OFFCURVE",
"231 355 CURVE",
"204 410 LINE",
"110 382 OFFCURVE",
"51 326 OFFCURVE",
"51 251 CURVE SMOOTH",
"51 165 OFFCURVE",
"130 121 OFFCURVE",
"222 78 CURVE SMOOTH",
"283 51 OFFCURVE",
"337 35 OFFCURVE",
"337 -8 CURVE SMOOTH",
"337 -26 OFFCURVE",
"326 -45 OFFCURVE",
"307 -57 CURVE",
"247 -42 OFFCURVE",
"180 -13 OFFCURVE",
"122 35 CURVE",
"54 -89 LINE",
"122 -132 OFFCURVE",
"205 -149 OFFCURVE",
"264 -149 CURVE SMOOTH"
);
},
{
closed = 1;
nodes = (
"446 481 LINE",
"459 534 OFFCURVE",
"463 594 OFFCURVE",
"459 637 CURVE",
"306 627 LINE",
"358 481 LINE"
);
}
);
width = 523;
}
);
leftMetricsKey = S;
rightKerningGroup = space;
rightMetricsKey = S;
unicode = 00A7;
},
{
color = 3;
glyphname = copyright;
lastChange = "2018-12-16 00:51:22 +0000";
layers = (
{
layerId = "3A083A2A-974B-4791-8355-BC872DC0CF17";
paths = (
{
closed = 1;
nodes = (
"592 -24 OFFCURVE",
"750 132 OFFCURVE",
"750 331 CURVE SMOOTH",
"750 532 OFFCURVE",
"587 691 OFFCURVE",
"389 691 CURVE SMOOTH",
"191 691 OFFCURVE",
"33 532 OFFCURVE",
"33 332 CURVE SMOOTH",
"33 130 OFFCURVE",
"193 -24 OFFCURVE",
"392 -24 CURVE SMOOTH"
);
},
{
closed = 1;
nodes = (
"558 204 LINE",
"540 249 LINE",
"511 239 OFFCURVE",
"489 233 OFFCURVE",
"461 233 CURVE SMOOTH",
"376 233 OFFCURVE",
"331 284 OFFCURVE",
"331 349 CURVE SMOOTH",
"331 384 OFFCURVE",
"345 429 OFFCURVE",
"374 458 CURVE",
"416 438 OFFCURVE",
"439 407 OFFCURVE",
"460 360 CURVE",
"570 420 LINE",
"533 503 OFFCURVE",
"472 529 OFFCURVE",
"405 529 CURVE SMOOTH",
"287 529 OFFCURVE",
"200 448 OFFCURVE",
"200 330 CURVE SMOOTH",
"200 200 OFFCURVE",
"306 125 OFFCURVE",
"430 136 CURVE"
);
},
{
closed = 1;
nodes = (
"233 53 OFFCURVE",
"112 173 OFFCURVE",
"112 330 CURVE SMOOTH",
"112 489 OFFCURVE",
"238 613 OFFCURVE",
"392 613 CURVE SMOOTH",
"546 613 OFFCURVE",
"672 488 OFFCURVE",
"672 333 CURVE SMOOTH",
"672 179 OFFCURVE",
"550 53 OFFCURVE",
"389 53 CURVE SMOOTH"
);
}
);
width = 784;
}
);
unicode = 00A9;
},
{
color = 3;
glyphname = ordfeminine;
lastChange = "2018-12-16 00:51:22 +0000";
layers = (
{
layerId = "3A083A2A-974B-4791-8355-BC872DC0CF17";
paths = (
{
closed = 1;
nodes = (
"399 347 LINE",
"396 376 LINE",
"381 375 OFFCURVE",
"372 374 OFFCURVE",
"361 374 CURVE SMOOTH",
"350 374 OFFCURVE",
"345 381 OFFCURVE",
"345 391 CURVE",
"345 510 LINE SMOOTH",
"345 547 OFFCURVE",
"344 563 OFFCURVE",
"338 575 CURVE SMOOTH",
"318 604 OFFCURVE",
"287 625 OFFCURVE",
"245 628 CURVE SMOOTH",
"190 628 OFFCURVE",
"111 614 OFFCURVE",
"56 591 CURVE",
"54 560 OFFCURVE",
"58 519 OFFCURVE",
"65 489 CURVE",
"137 491 LINE",
"154 566 LINE",
"163 568 OFFCURVE",
"178 570 OFFCURVE",
"194 570 CURVE",
"210 563 OFFCURVE",
"225 545 OFFCURVE",
"225 507 CURVE SMOOTH",
"225 353 LINE",
"231 351 LINE",
"247 316 OFFCURVE",
"278 296 OFFCURVE",
"307 295 CURVE"
);
},
{
closed = 1;
nodes = (
"411 192 LINE",
"411 255 LINE",
"31 255 LINE",
"31 192 LINE"
);
},
{
closed = 1;
nodes = (
"247 355 LINE",
"237 377 LINE",
"220 372 OFFCURVE",
"184 363 OFFCURVE",
"161 362 CURVE",
"153 367 OFFCURVE",
"149 375 OFFCURVE",
"149 385 CURVE SMOOTH",
"149 412 OFFCURVE",
"184 419 OFFCURVE",
"214 417 CURVE SMOOTH",
"241 414 LINE",
"241 458 LINE",
"89 456 LINE",
"52 435 OFFCURVE",
"38 404 OFFCURVE",
"38 378 CURVE SMOOTH",
"38 330 OFFCURVE",
"82 286 OFFCURVE",
"163 298 CURVE"
);
}
);
width = 441;
}
);
unicode = 00AA;
},
{
color = 3;
glyphname = guillemetleft;
lastChange = "2019-02-26 16:50:53 +0000";
layers = (
{
layerId = "3A083A2A-974B-4791-8355-BC872DC0CF17";
paths = (
{
closed = 1;
nodes = (
"565 95 LINE",
"471 253 LINE",
"559 420 LINE",
"476 476 LINE",
"310 293 LINE",
"310 214 LINE",
"477 33 LINE"
);
},
{
closed = 1;
nodes = (
"309 95 LINE",
"215 253 LINE",
"303 420 LINE",
"220 476 LINE",
"54 293 LINE",
"54 214 LINE",
"221 33 LINE"
);
}
);
width = 619;
}
);
leftMetricsKey = guilsinglleft;
rightKerningGroup = space;
rightMetricsKey = guilsinglleft;
unicode = 00AB;
},
{
color = 3;
glyphname = logicalnot;
lastChange = "2018-12-16 00:51:22 +0000";
layers = (
{
layerId = "3A083A2A-974B-4791-8355-BC872DC0CF17";
paths = (
{
closed = 1;
nodes = (
"538 179 LINE",
"538 278 LINE",
"54 278 LINE",
"54 179 LINE"
);
},
{
closed = 1;
nodes = (
"538 0 LINE",
"538 278 LINE",
"431 278 LINE",
"431 0 LINE"
);
}
);
width = 592;
}
);
leftMetricsKey = minus;
rightMetricsKey = minus;
unicode = 00AC;
},
{
color = 3;
glyphname = softhyphen;
layers = (
{
layerId = "3A083A2A-974B-4791-8355-BC872DC0CF17";
paths = (
{
closed = 1;
nodes = (
"393 222 LINE",
"414 264 LINE",
"358 354 LINE",
"54 354 LINE",
"33 312 LINE",
"89 222 LINE"
);
}
);
width = 463;
}
);
unicode = 00AD;
},
{
color = 3;
glyphname = registered;
lastChange = "2018-12-16 00:51:22 +0000";
layers = (
{
layerId = "3A083A2A-974B-4791-8355-BC872DC0CF17";
paths = (
{
closed = 1;
nodes = (
"449 232 OFFCURVE",
"561 351 OFFCURVE",
"561 505 CURVE SMOOTH",
"561 662 OFFCURVE",
"445 776 OFFCURVE",
"289 776 CURVE SMOOTH",
"131 776 OFFCURVE",
"12 662 OFFCURVE",
"12 503 CURVE SMOOTH",
"12 349 OFFCURVE",
"124 232 OFFCURVE",
"286 232 CURVE SMOOTH"
);
},
{
closed = 1;
nodes = (
"186 378 LINE",
"190 418 LINE",
"181 413 OFFCURVE",
"154 403 OFFCURVE",
"141 394 CURVE",
"144 378 LINE"
);
},
{
closed = 1;
nodes = (
"290 378 LINE",
"291 403 LINE",
"231 411 LINE",
"230 378 LINE"
);
},
{
closed = 1;
nodes = (
"255 378 LINE",
"255 643 LINE",
"179 643 LINE",
"179 378 LINE"
);
},
{
closed = 1;
nodes = (
"424 378 LINE",
"346 502 LINE",
"270 497 LINE",
"336 378 LINE"
);
},
{
closed = 1;
nodes = (
"158 289 OFFCURVE",
"72 371 OFFCURVE",
"72 499 CURVE SMOOTH",
"72 630 OFFCURVE",
"163 720 OFFCURVE",
"286 720 CURVE SMOOTH",
"411 720 OFFCURVE",
"501 631 OFFCURVE",
"501 503 CURVE SMOOTH",
"501 376 OFFCURVE",
"410 289 OFFCURVE",
"282 289 CURVE SMOOTH"
);
},
{
closed = 1;
nodes = (
"201 643 LINE",
"145 643 LINE",
"145 616 LINE",
"201 609 LINE"
);
},
{
closed = 1;
nodes = (
"435 378 LINE",
"435 403 LINE",
"375 411 LINE",
"374 378 LINE"
);
},
{
closed = 1;
nodes = (
"303 477 LINE SMOOTH",
"376 477 OFFCURVE",
"412 517 OFFCURVE",
"412 560 CURVE SMOOTH",
"412 606 OFFCURVE",
"369 643 OFFCURVE",
"294 643 CURVE",
"214 643 LINE",
"247 599 LINE",
"301 606 LINE",
"320 595 OFFCURVE",
"330 577 OFFCURVE",
"330 557 CURVE SMOOTH",
"330 532 OFFCURVE",
"315 514 OFFCURVE",
"275 514 CURVE SMOOTH",
"263 514 OFFCURVE",
"251 516 OFFCURVE",
"240 518 CURVE",
"239 477 LINE"
);
}
);
width = 574;
}
);
unicode = 00AE;
},
{
color = 3;
glyphname = degree;
lastChange = "2018-12-16 00:51:22 +0000";
layers = (
{
layerId = "3A083A2A-974B-4791-8355-BC872DC0CF17";
paths = (
{
closed = 1;
nodes = (
"252 379 OFFCURVE",
"309 433 OFFCURVE",
"309 517 CURVE SMOOTH",
"309 596 OFFCURVE",
"248 657 OFFCURVE",
"168 657 CURVE SMOOTH",
"90 657 OFFCURVE",
"30 596 OFFCURVE",
"30 517 CURVE SMOOTH",
"30 434 OFFCURVE",
"96 379 OFFCURVE",
"172 379 CURVE SMOOTH"
);
},
{
closed = 1;
nodes = (
"135 455 OFFCURVE",
"116 489 OFFCURVE",
"116 522 CURVE SMOOTH",
"116 540 OFFCURVE",
"122 558 OFFCURVE",
"132 571 CURVE",
"142 576 OFFCURVE",
"152 578 OFFCURVE",
"162 578 CURVE SMOOTH",
"199 578 OFFCURVE",
"219 543 OFFCURVE",
"219 509 CURVE SMOOTH",
"219 490 OFFCURVE",
"213 472 OFFCURVE",
"201 459 CURVE",
"192 456 OFFCURVE",
"183 455 OFFCURVE",
"175 455 CURVE SMOOTH"
);
}
);
width = 369;
}
);
unicode = 00B0;
},
{
color = 3;
glyphname = plusminus;
lastChange = "2018-12-16 00:51:22 +0000";
layers = (
{
layerId = "3A083A2A-974B-4791-8355-BC872DC0CF17";
paths = (
{
closed = 1;
nodes = (
"330 160 LINE",
"330 337 LINE",
"500 337 LINE",
"500 434 LINE",
"330 434 LINE",
"330 610 LINE",
"223 610 LINE",
"223 434 LINE",
"54 434 LINE",
"54 337 LINE",
"223 337 LINE",
"223 160 LINE"
);
},
{
closed = 1;
nodes = (
"495 0 LINE",
"495 97 LINE",
"56 97 LINE",
"56 0 LINE"
);
}
);
width = 554;
}
);
leftMetricsKey = minus;
rightMetricsKey = minus;
unicode = 00B1;
},
{
color = 3;
glyphname = twosuperior;
lastChange = "2019-02-26 16:50:53 +0000";
layers = (
{
layerId = "3A083A2A-974B-4791-8355-BC872DC0CF17";
paths = (
{
closed = 1;
nodes = (
"279 418 LINE",
"295 516 LINE",
"158 485 LINE",
"154 492 LINE",
"238 545 OFFCURVE",
"283 597 OFFCURVE",
"283 648 CURVE SMOOTH",
"283 703 OFFCURVE",
"234 751 OFFCURVE",
"157 751 CURVE SMOOTH",
"115 751 OFFCURVE",
"69 737 OFFCURVE",
"31 710 CURVE",
"83 690 LINE",
"98 698 OFFCURVE",
"116 702 OFFCURVE",
"128 702 CURVE SMOOTH",
"157 702 OFFCURVE",
"179 678 OFFCURVE",
"179 647 CURVE SMOOTH",
"179 620 OFFCURVE",
"160 588 OFFCURVE",
"101 533 CURVE SMOOTH",
"27 467 LINE",
"46 418 LINE"
);
},
{
closed = 1;
nodes = (
"100 603 LINE",
"134 708 LINE",
"31 710 LINE",
"28 685 OFFCURVE",
"35 627 OFFCURVE",
"41 603 CURVE"
);
}
);
width = 322;
}
);
rightKerningGroup = space;
unicode = 00B2;
},
{
color = 3;
glyphname = threesuperior;
lastChange = "2019-02-26 16:50:53 +0000";
layers = (
{
layerId = "3A083A2A-974B-4791-8355-BC872DC0CF17";
paths = (
{
closed = 1;
nodes = (
"232 408 OFFCURVE",
"302 438 OFFCURVE",
"302 504 CURVE SMOOTH",
"302 558 OFFCURVE",
"254 594 OFFCURVE",
"201 586 CURVE",
"205 596 LINE",
"109 594 LINE",
"102 594 LINE",
"104 544 LINE",
"137 544 LINE SMOOTH",
"176 544 OFFCURVE",
"196 521 OFFCURVE",
"196 497 CURVE SMOOTH",
"196 483 OFFCURVE",
"189 468 OFFCURVE",
"172 460 CURVE",
"138 472 OFFCURVE",
"92 501 OFFCURVE",
"54 531 CURVE",
"30 435 LINE",
"70 416 OFFCURVE",
"120 408 OFFCURVE",
"159 408 CURVE SMOOTH"
);
},
{
closed = 1;
nodes = (
"99 623 LINE",
"149 724 LINE",
"42 718 LINE",
"40 695 OFFCURVE",
"43 647 OFFCURVE",
"49 623 CURVE"
);
},
{
closed = 1;
nodes = (
"236 583 LINE",
"236 587 LINE",
"271 601 OFFCURVE",
"286 631 OFFCURVE",
"286 658 CURVE SMOOTH",
"286 707 OFFCURVE",
"237 751 OFFCURVE",
"164 751 CURVE SMOOTH",
"121 751 OFFCURVE",
"69 736 OFFCURVE",
"42 718 CURVE",
"61 683 LINE",
"81 696 OFFCURVE",
"110 700 OFFCURVE",
"127 700 CURVE SMOOTH",
"164 700 OFFCURVE",
"187 677 OFFCURVE",
"187 648 CURVE SMOOTH",
"187 624 OFFCURVE",
"169 594 OFFCURVE",
"119 594 CURVE SMOOTH",
"108 594 LINE",
"112 545 LINE"
);
}
);
width = 331;
}
);
rightKerningGroup = space;
unicode = 00B3;
},
{
color = 3;
glyphname = foursuperior;
lastChange = "2019-02-26 16:50:53 +0000";
layers = (
{
layerId = "3A083A2A-974B-4791-8355-BC872DC0CF17";
paths = (
{
closed = 1;
nodes = (
"292 489 LINE",
"310 510 LINE",
"310 547 LINE",
"54 544 LINE",
"76 526 LINE",
"199 696 LINE",
"220 692 LINE",
"205 739 LINE",
"167 751 LINE",
"-2 537 LINE",
"19 489 LINE"
);
},
{
closed = 1;
nodes = (
"165 418 LINE",
"165 465 LINE",
"140 459 OFFCURVE",
"107 446 OFFCURVE",
"87 433 CURVE",
"90 418 LINE"
);
},
{
closed = 1;
nodes = (
"290 418 LINE",
"290 447 LINE",
"229 460 LINE",
"227 418 LINE"
);
},
{
closed = 1;
nodes = (
"253 418 LINE",
"253 736 LINE",
"166 751 LINE",
"175 689 LINE",
"155 582 LINE",
"155 418 LINE"
);
}
);
width = 330;
}
);
rightKerningGroup = space;
unicode = 2074;
},
{
color = 3;
glyphname = micro;
lastChange = "2018-12-16 00:54:20 +0000";
layers = (
{
layerId = "3A083A2A-974B-4791-8355-BC872DC0CF17";
paths = (
{
closed = 1;
nodes = (
"115 -244 OFFCURVE",
"204 -215 OFFCURVE",
"226 -189 CURVE",
"139 29 LINE",
"161 3 OFFCURVE",
"183 -13 OFFCURVE",
"205 -14 CURVE",
"272 9 OFFCURVE",
"367 62 OFFCURVE",
"451 146 CURVE",
"446 173 LINE",
"397 138 OFFCURVE",
"342 105 OFFCURVE",
"294 103 CURVE SMOOTH",
"247 101 OFFCURVE",
"221 127 OFFCURVE",
"221 186 CURVE SMOOTH",
"221 493 LINE",
"159 494 OFFCURVE",
"81 481 OFFCURVE",
"48 473 CURVE",
"49 -227 LINE"
);
},
{
closed = 1;
nodes = (
"176 19 LINE",
"176 54 LINE",
"112 54 LINE",
"112 19 LINE"
);
},
{
closed = 1;
nodes = (
"599 57 LINE",
"593 101 LINE",
"571 100 OFFCURVE",
"557 98 OFFCURVE",
"542 98 CURVE SMOOTH",
"526 98 OFFCURVE",
"517 108 OFFCURVE",
"517 122 CURVE",
"517 493 LINE",
"455 494 OFFCURVE",
"377 481 OFFCURVE",
"344 473 CURVE",
"344 78 LINE",
"358 73 LINE",
"381 21 OFFCURVE",
"426 -16 OFFCURVE",
"466 -17 CURVE"
);
}
);
width = 603;
}
);
rightMetricsKey = u;
unicode = 00B5;
},
{
color = 3;
glyphname = paragraph;
lastChange = "2019-02-26 16:50:53 +0000";
layers = (
{
layerId = "3A083A2A-974B-4791-8355-BC872DC0CF17";
paths = (
{
closed = 1;
nodes = (
"219 290 LINE",
"194 332 OFFCURVE",
"180 371 OFFCURVE",
"180 417 CURVE SMOOTH",
"180 533 OFFCURVE",
"269 599 OFFCURVE",
"383 592 CURVE SMOOTH",
"660 577 LINE",
"667 646 LINE",
"326 690 LINE",
"97 704 OFFCURVE",
"0 586 OFFCURVE",
"0 473 CURVE SMOOTH",
"0 379 OFFCURVE",
"68 286 OFFCURVE",
"181 253 CURVE"
);
},
{
closed = 1;
nodes = (
"308 -165 LINE",
"308 -84 LINE",
"308 -84 OFFCURVE",
"226 -101 OFFCURVE",
"178 -123 CURVE",
"184 -165 LINE"
);
},
{
closed = 1;
nodes = (
"662 -165 LINE",
"663 -114 LINE",
"525 -98 LINE",
"522 -165 LINE"
);
},
{
closed = 1;
nodes = (
"397 -166 LINE",
"397 609 LINE",
"288 609 LINE",
"288 -166 LINE"
);
},
{
closed = 1;
nodes = (
"580 -166 LINE",
"580 609 LINE",
"471 609 LINE",
"471 -166 LINE"
);
}
);
width = 687;
}
);
rightKerningGroup = space;
rightMetricsKey = l;
unicode = 00B6;
},
{
color = 3;
glyphname = periodcentered;
lastChange = "2019-02-26 16:50:53 +0000";
layers = (
{
layerId = "3A083A2A-974B-4791-8355-BC872DC0CF17";
paths = (
{
closed = 1;
nodes = (
"174 205 OFFCURVE",
"209 251 OFFCURVE",
"224 290 CURVE",
"203 318 OFFCURVE",
"158 359 OFFCURVE",
"119 375 CURVE",
"85 356 OFFCURVE",
"51 310 OFFCURVE",
"30 267 CURVE",
"53 235 OFFCURVE",
"105 196 OFFCURVE",
"140 182 CURVE"
);
}
);
width = 282;
}
);
rightKerningGroup = space;
unicode = 00B7;
},
{
color = 3;
glyphname = onesuperior;
lastChange = "2019-02-26 16:50:53 +0000";
layers = (
{
layerId = "3A083A2A-974B-4791-8355-BC872DC0CF17";
paths = (
{
closed = 1;
nodes = (
"197 418 LINE",
"197 716 LINE",
"90 706 LINE",
"90 418 LINE"
);
},
{
closed = 1;
nodes = (
"99 418 LINE",
"99 467 LINE",
"75 462 OFFCURVE",
"41 446 OFFCURVE",
"25 433 CURVE",
"28 418 LINE"
);
},
{
closed = 1;
nodes = (
"253 418 LINE",
"253 446 LINE",
"186 465 LINE",
"184 418 LINE"
);
},
{
closed = 1;
nodes = (
"154 676 LINE",
"162 723 LINE",
"152 745 LINE",
"12 667 LINE",
"31 629 LINE"
);
},
{
closed = 1;
nodes = (
"196 716 LINE",
"150 745 LINE",
"145 706 LINE"
);
}
);
width = 272;
}
);
rightKerningGroup = space;
unicode = 00B9;
},
{
color = 3;
glyphname = ordmasculine;
lastChange = "2018-12-16 00:51:22 +0000";
layers = (
{
layerId = "3A083A2A-974B-4791-8355-BC872DC0CF17";
paths = (
{
closed = 1;
nodes = (
"293 285 OFFCURVE",
"375 345 OFFCURVE",
"375 455 CURVE SMOOTH",
"375 565 OFFCURVE",
"294 631 OFFCURVE",
"206 631 CURVE SMOOTH",
"122 631 OFFCURVE",
"30 570 OFFCURVE",
"30 457 CURVE SMOOTH",
"30 351 OFFCURVE",
"111 285 OFFCURVE",
"204 285 CURVE SMOOTH"
);
},
{
closed = 1;
nodes = (
"391 192 LINE",
"391 255 LINE",
"17 255 LINE",
"17 192 LINE"
);
},
{
closed = 1;
nodes = (
"174 355 OFFCURVE",
"154 389 OFFCURVE",
"154 457 CURVE SMOOTH",
"154 503 OFFCURVE",
"164 541 OFFCURVE",
"177 549 CURVE",
"183 551 OFFCURVE",
"188 553 OFFCURVE",
"196 553 CURVE SMOOTH",
"236 553 OFFCURVE",
"252 506 OFFCURVE",
"252 441 CURVE SMOOTH",
"252 389 OFFCURVE",
"239 361 OFFCURVE",
"231 356 CURVE",
"225 356 OFFCURVE",
"220 355 OFFCURVE",
"213 355 CURVE SMOOTH"
);
}
);
width = 435;
}
);
unicode = 00BA;
},
{
color = 3;
glyphname = guillemetright;
lastChange = "2019-02-26 16:50:53 +0000";
layers = (
{
layerId = "3A083A2A-974B-4791-8355-BC872DC0CF17";
paths = (
{
closed = 1;
nodes = (
"565 214 LINE",
"565 293 LINE",
"400 476 LINE",
"317 420 LINE",
"405 253 LINE",
"310 95 LINE",
"398 33 LINE"
);
},
{
closed = 1;
nodes = (
"309 214 LINE",
"309 293 LINE",
"144 476 LINE",
"61 420 LINE",
"149 253 LINE",
"54 95 LINE",
"142 33 LINE"
);
}
);
width = 619;
}
);
leftMetricsKey = "=|";
rightKerningGroup = space;
rightMetricsKey = "=|guillemetleft";
unicode = 00BB;
},
{
color = 3;
glyphname = AE;
lastChange = "2019-02-26 16:50:53 +0000";
layers = (
{
anchors = (
{
name = top;
position = "{521, 650}";
}
);
layerId = "3A083A2A-974B-4791-8355-BC872DC0CF17";
paths = (
{
closed = 1;
nodes = (
"150 0 LINE",
"467 628 LINE",
"372 653 LINE",
"32 0 LINE"
);
},
{
closed = 1;
nodes = (
"80 0 LINE",
"79 87 LINE",
"56 75 OFFCURVE",
"7 54 OFFCURVE",
"-20 34 CURVE",
"-14 0 LINE"
);
},
{
closed = 1;
nodes = (
"266 0 LINE",
"267 53 LINE",
"129 75 LINE",
"126 0 LINE"
);
},
{
closed = 1;
nodes = (
"436 0 LINE",
"435 87 LINE",
"412 75 OFFCURVE",
"363 54 OFFCURVE",
"336 34 CURVE",
"342 0 LINE"
);
},
{
closed = 1;
nodes = (
"523 172 LINE",
"523 256 LINE",
"200 256 LINE",
"200 172 LINE"
);
},
{
closed = 1;
nodes = (
"882 0 LINE",
"886 115 LINE",
"570 96 LINE",
"495 0 LINE"
);
},
{
closed = 1;
nodes = (
"596 0 LINE",
"596 662 LINE",
"421 662 LINE",
"421 0 LINE"
);
},
{
closed = 1;
nodes = (
"902 59 OFFCURVE",
"908 151 OFFCURVE",
"906 208 CURVE",
"807 216 LINE",
"741 16 LINE",
"894 0 LINE"
);
},
{
closed = 1;
nodes = (
"454 662 LINE",
"272 662 LINE",
"271 609 LINE",
"393 591 LINE"
);
},
{
closed = 1;
nodes = (
"811 388 LINE",
"571 368 LINE",
"571 290 LINE",
"811 280 LINE"
);
},
{
closed = 1;
nodes = (
"900 662 LINE",
"489 662 LINE",
"564 573 LINE",
"886 554 LINE"
);
},
{
closed = 1;
nodes = (
"882 460 LINE",
"896 527 OFFCURVE",
"903 619 OFFCURVE",
"900 662 CURVE",
"749 644 LINE",
"782 460 LINE"
);
}
);
width = 956;
}
);
leftKerningGroup = A;
leftMetricsKey = A;
rightKerningGroup = E;
rightMetricsKey = E;
unicode = 00C6;
},
{
color = 3;
glyphname = multiply;
lastChange = "2018-12-16 00:51:22 +0000";
layers = (
{
layerId = "3A083A2A-974B-4791-8355-BC872DC0CF17";
paths = (
{
closed = 1;
nodes = (
"497 92 LINE",
"350 240 LINE",
"497 390 LINE",
"424 460 LINE",
"281 311 LINE",
"135 461 LINE",
"60 389 LINE",
"207 238 LINE",
"62 90 LINE",
"134 19 LINE",
"278 168 LINE",
"423 18 LINE"
);
}
);
width = 557;
}
);
unicode = 00D7;
},
{
color = 3;
glyphname = Oslash;
lastChange = "2019-02-26 16:50:53 +0000";
layers = (
{
components = (
{
name = O;
}
);
layerId = "3A083A2A-974B-4791-8355-BC872DC0CF17";
paths = (
{
closed = 1;
nodes = (
"612 703 LINE",
"537 746 LINE",
"101 -49 LINE",
"176 -90 LINE"
);
}
);
width = 687;
}
);
leftKerningGroup = O;
leftMetricsKey = O;
rightKerningGroup = O;
rightMetricsKey = O;
unicode = 00D8;
},
{
color = 3;
glyphname = Thorn;
lastChange = "2019-02-26 16:50:53 +0000";
layers = (
{
layerId = "3A083A2A-974B-4791-8355-BC872DC0CF17";
paths = (
{
closed = 1;
nodes = (
"378 144 LINE SMOOTH",
"540 145 OFFCURVE",
"621 236 OFFCURVE",
"621 331 CURVE SMOOTH",
"621 426 OFFCURVE",
"539 524 OFFCURVE",
"374 524 CURVE SMOOTH",
"182 524 LINE",
"273 416 LINE",
"386 432 LINE",
"425 405 OFFCURVE",
"443 366 OFFCURVE",
"443 328 CURVE SMOOTH",
"443 274 OFFCURVE",
"407 228 OFFCURVE",
"333 228 CURVE SMOOTH",
"304 228 OFFCURVE",
"280 235 OFFCURVE",
"255 246 CURVE",
"252 143 LINE"
);
},
{
closed = 1;
nodes = (
"124 0 LINE",
"123 87 LINE",
"100 75 OFFCURVE",
"51 54 OFFCURVE",
"24 34 CURVE",
"30 0 LINE"
);
},
{
closed = 1;
nodes = (
"382 0 LINE",
"383 53 LINE",
"245 75 LINE",
"242 0 LINE"
);
},
{
closed = 1;
nodes = (
"292 0 LINE",
"292 650 LINE",
"111 650 LINE",
"111 0 LINE"
);
},
{
closed = 1;
nodes = (
"173 650 LINE",
"33 650 LINE",
"32 597 LINE",
"170 575 LINE"
);
},
{
closed = 1;
nodes = (
"297 576 OFFCURVE",
"346 597 OFFCURVE",
"373 617 CURVE",
"367 650 LINE",
"273 650 LINE",
"274 564 LINE"
);
}
);
width = 633;
}
);
leftKerningGroup = I;
leftMetricsKey = I;
rightMetricsKey = P;
unicode = 00DE;
},
{
color = 3;
glyphname = germandbls;
lastChange = "2019-02-26 16:50:53 +0000";
layers = (
{
layerId = "3A083A2A-974B-4791-8355-BC872DC0CF17";
paths = (
{
closed = 1;
nodes = (
"558 -18 OFFCURVE",
"642 39 OFFCURVE",
"642 137 CURVE SMOOTH",
"642 272 OFFCURVE",
"481 306 OFFCURVE",
"464 374 CURVE",
"523 418 OFFCURVE",
"548 462 OFFCURVE",
"548 510 CURVE SMOOTH",
"548 601 OFFCURVE",
"457 687 OFFCURVE",
"328 687 CURVE SMOOTH",
"249 687 OFFCURVE",
"93 640 OFFCURVE",
"93 478 CURVE SMOOTH",
"93 0 LINE",
"265 0 LINE",
"265 436 LINE",
"259 567 LINE",
"289 585 OFFCURVE",
"334 588 OFFCURVE",
"360 582 CURVE",
"421 510 OFFCURVE",
"365 411 OFFCURVE",
"316 339 CURVE",
"328 222 OFFCURVE",
"478 210 OFFCURVE",
"478 130 CURVE SMOOTH",
"478 116 OFFCURVE",
"472 102 OFFCURVE",
"460 88 CURVE",
"419 97 OFFCURVE",
"376 125 OFFCURVE",
"346 152 CURVE",
"305 8 LINE",
"351 -8 OFFCURVE",
"405 -18 OFFCURVE",
"450 -18 CURVE SMOOTH"
);
},
{
closed = 1;
nodes = (
"135 0 LINE",
"145 83 LINE",
"107 74 OFFCURVE",
"59 57 OFFCURVE",
"21 35 CURVE",
"23 0 LINE"
);
},
{
closed = 1;
nodes = (
"201 356 LINE",
"214 425 LINE",
"147 485 LINE",
"97 468 OFFCURVE",
"51 444 OFFCURVE",
"11 409 CURVE",
"13 354 LINE"
);
}
);
width = 658;
}
);
leftKerningGroup = f;
leftMetricsKey = f;
unicode = 00DF;
},
{
color = 3;
glyphname = ae;
lastChange = "2019-02-26 16:50:53 +0000";
layers = (
{
anchors = (
{
name = bottom;
position = "{210, 0}";
},
{
name = ogonek;
position = "{282, 20}";
},
{
name = top;
position = "{210, 188}";
}
);
layerId = "3A083A2A-974B-4791-8355-BC872DC0CF17";
paths = (
{
closed = 1;
nodes = (
"765 77 LINE",
"740 134 LINE",
"693 109 OFFCURVE",
"656 96 OFFCURVE",
"611 96 CURVE SMOOTH",
"528 96 OFFCURVE",
"464 144 OFFCURVE",
"464 256 CURVE SMOOTH",
"464 319 OFFCURVE",
"484 387 OFFCURVE",
"532 417 CURVE",
"592 414 OFFCURVE",
"631 340 OFFCURVE",
"621 273 CURVE",
"777 287 LINE",
"779 440 OFFCURVE",
"659 500 OFFCURVE",
"559 500 CURVE SMOOTH",
"502 500 OFFCURVE",
"447 479 OFFCURVE",
"403 444 CURVE",
"365 237 LINE",
"304 234 LINE",
"304 67 OFFCURVE",
"444 -35 OFFCURVE",
"608 -12 CURVE"
);
},
{
closed = 1;
nodes = (
"369 72 LINE",
"356 120 LINE",
"330 111 OFFCURVE",
"256 85 OFFCURVE",
"218 82 CURVE",
"206 93 OFFCURVE",
"201 111 OFFCURVE",
"201 125 CURVE SMOOTH",
"201 167 OFFCURVE",
"255 176 OFFCURVE",
"304 175 CURVE",
"332 174 LINE",
"333 237 LINE",
"111 232 LINE",
"54 203 OFFCURVE",
"30 155 OFFCURVE",
"30 114 CURVE SMOOTH",
"30 46 OFFCURVE",
"96 -31 OFFCURVE",
"216 -13 CURVE"
);
},
{
closed = 1;
nodes = (
"445 415 LINE",
"419 455 OFFCURVE",
"379 496 OFFCURVE",
"334 498 CURVE SMOOTH",
"257 498 OFFCURVE",
"146 474 OFFCURVE",
"61 441 CURVE",
"55 392 OFFCURVE",
"59 341 OFFCURVE",
"72 295 CURVE",
"176 292 LINE",
"200 402 LINE",
"214 408 OFFCURVE",
"237 412 OFFCURVE",
"256 413 CURVE",
"281 401 OFFCURVE",
"301 377 OFFCURVE",
"302 314 CURVE SMOOTH",
"303 199 LINE",
"409 157 LINE"
);
},
{
closed = 1;
nodes = (
"771 287 LINE",
"688 321 LINE",
"402 303 LINE",
"414 231 LINE",
"713 229 LINE"
);
}
);
width = 793;
}
);
leftKerningGroup = a;
leftMetricsKey = a;
rightKerningGroup = e;
rightMetricsKey = e;
unicode = 00E6;
},
{
color = 3;
glyphname = eth;
lastChange = "2019-02-26 16:50:53 +0000";
layers = (
{
layerId = "3A083A2A-974B-4791-8355-BC872DC0CF17";
paths = (
{
closed = 1;
nodes = (
"413 -27 OFFCURVE",
"524 78 OFFCURVE",
"524 257 CURVE SMOOTH",
"524 413 OFFCURVE",
"437 624 OFFCURVE",
"308 775 CURVE",
"187 714 LINE",
"265 603 OFFCURVE",
"301 515 OFFCURVE",
"331 430 CURVE",
"371 421 LINE",
"333 457 OFFCURVE",
"287 477 OFFCURVE",
"233 477 CURVE SMOOTH",
"118 477 OFFCURVE",
"11 389 OFFCURVE",
"11 238 CURVE SMOOTH",
"11 70 OFFCURVE",
"142 -27 OFFCURVE",
"275 -27 CURVE SMOOTH"
);
},
{
closed = 1;
nodes = (
"226 65 OFFCURVE",
"188 146 OFFCURVE",
"188 227 CURVE SMOOTH",
"188 291 OFFCURVE",
"211 358 OFFCURVE",
"246 387 CURVE",
"304 379 OFFCURVE",
"337 353 OFFCURVE",
"391 301 CURVE",
"331 401 LINE",
"378 294 OFFCURVE",
"366 130 OFFCURVE",
"309 68 CURVE"
);
},
{
closed = 1;
nodes = (
"499 641 LINE",
"448 740 LINE",
"141 604 LINE",
"149 564 LINE",
"216 521 LINE"
);
}
);
width = 535;
}
);
leftKerningGroup = o;
leftMetricsKey = d;
unicode = 00F0;
},
{
color = 3;
glyphname = divide;
lastChange = "2018-12-16 00:51:22 +0000";
layers = (
{
layerId = "3A083A2A-974B-4791-8355-BC872DC0CF17";
paths = (
{
closed = 1;
nodes = (
"542 207 LINE",
"542 306 LINE",
"54 306 LINE",
"54 207 LINE"
);
},
{
closed = 1;
nodes = (
"355 2 OFFCURVE",
"376 44 OFFCURVE",
"385 71 CURVE",
"376 99 OFFCURVE",
"349 139 OFFCURVE",
"294 163 CURVE",
"264 146 OFFCURVE",
"221 114 OFFCURVE",
"213 57 CURVE",
"227 31 OFFCURVE",
"255 -6 OFFCURVE",
"309 -20 CURVE"
);
},
{
closed = 1;
nodes = (
"356 370 OFFCURVE",
"377 411 OFFCURVE",
"386 438 CURVE",
"377 467 OFFCURVE",
"350 507 OFFCURVE",
"295 531 CURVE",
"265 514 OFFCURVE",
"222 481 OFFCURVE",
"214 425 CURVE",
"228 398 OFFCURVE",
"256 362 OFFCURVE",
"310 348 CURVE"
);
}
);
width = 596;
}
);
leftMetricsKey = minus;
rightMetricsKey = minus;
unicode = 00F7;
},
{
color = 3;
glyphname = oslash;
lastChange = "2019-02-26 16:50:53 +0000";
layers = (
{
anchors = (
{
name = top;
position = "{261, 468}";
}
);
layerId = "3A083A2A-974B-4791-8355-BC872DC0CF17";
paths = (
{
closed = 1;
nodes = (
"499 482 LINE",
"411 539 LINE",
"27 -28 LINE",
"113 -88 LINE"
);
},
{
closed = 1;
nodes = (
"397 -20 OFFCURVE",
"511 72 OFFCURVE",
"511 238 CURVE SMOOTH",
"511 408 OFFCURVE",
"392 500 OFFCURVE",
"262 500 CURVE SMOOTH",
"131 500 OFFCURVE",
"11 408 OFFCURVE",
"11 243 CURVE SMOOTH",
"11 77 OFFCURVE",
"133 -20 OFFCURVE",
"266 -20 CURVE SMOOTH"
);
},
{
closed = 1;
nodes = (
"210 70 OFFCURVE",
"186 147 OFFCURVE",
"186 241 CURVE SMOOTH",
"186 307 OFFCURVE",
"196 365 OFFCURVE",
"216 393 CURVE",
"225 400 OFFCURVE",
"240 404 OFFCURVE",
"255 404 CURVE SMOOTH",
"314 404 OFFCURVE",
"336 324 OFFCURVE",
"336 227 CURVE SMOOTH",
"336 160 OFFCURVE",
"328 97 OFFCURVE",
"299 75 CURVE",
"288 71 OFFCURVE",
"280 70 OFFCURVE",
"271 70 CURVE SMOOTH"
);
}
);
width = 527;
}
);
leftKerningGroup = o;
leftMetricsKey = o;
rightKerningGroup = o;
rightMetricsKey = o;
unicode = 00F8;
},
{
color = 3;
glyphname = thorn;
lastChange = "2019-02-26 16:50:53 +0000";
layers = (
{
layerId = "3A083A2A-974B-4791-8355-BC872DC0CF17";
paths = (
{
closed = 1;
nodes = (
"473 -18 OFFCURVE",
"568 118 OFFCURVE",
"568 262 CURVE SMOOTH",
"568 396 OFFCURVE",
"486 514 OFFCURVE",
"348 491 CURVE",
"176 366 LINE",
"185 330 LINE",
"224 354 OFFCURVE",
"258 373 OFFCURVE",
"291 373 CURVE SMOOTH",
"353 373 OFFCURVE",
"390 307 OFFCURVE",
"390 232 CURVE SMOOTH",
"390 172 OFFCURVE",
"368 110 OFFCURVE",
"329 76 CURVE",
"258 66 OFFCURVE",
"201 93 OFFCURVE",
"165 137 CURVE",
"68 20 LINE",
"138 -4 OFFCURVE",
"214 -18 OFFCURVE",
"277 -18 CURVE SMOOTH"
);
},
{
closed = 1;
nodes = (
"114 -202 LINE",
"124 -119 LINE",
"86 -134 OFFCURVE",
"38 -151 OFFCURVE",
"0 -167 CURVE",
"2 -202 LINE"
);
},
{
closed = 1;
nodes = (
"331 -202 LINE",
"333 -153 LINE",
"296 -133 OFFCURVE",
"252 -115 OFFCURVE",
"210 -99 CURVE",
"185 -202 LINE"
);
},
{
closed = 1;
nodes = (
"239 -202 LINE",
"239 444 LINE",
"185 492 LINE",
"66 440 LINE",
"66 -202 LINE"
);
},
{
closed = 1;
nodes = (
"241 42 LINE",
"241 687 LINE",
"187 737 LINE",
"67 684 LINE",
"67 14 LINE"
);
},
{
closed = 1;
nodes = (
"185 666 LINE",
"187 737 LINE",
"112 733 OFFCURVE",
"39 720 OFFCURVE",
"-23 697 CURVE",
"-19 649 LINE",
"110 615 LINE"
);
}
);
width = 584;
}
);
leftKerningGroup = b;
leftMetricsKey = b;
rightKerningGroup = o;
rightMetricsKey = p;
unicode = 00FE;
},
{
color = 3;
glyphname = Dcroat;
lastChange = "2019-02-26 16:50:53 +0000";
layers = (
{
components = (
{
name = D;
}
);
layerId = "3A083A2A-974B-4791-8355-BC872DC0CF17";
paths = (
{
closed = 1;
nodes = (
"381 268 LINE",
"424 311 LINE",
"418 346 LINE",
"56 346 LINE",
"13 303 LINE",
"19 268 LINE"
);
}
);
width = 732;
}
);
leftKerningGroup = I;
rightKerningGroup = O;
rightMetricsKey = D;
unicode = 0110;
},
{
color = 3;
glyphname = dcroat;
lastChange = "2019-02-26 16:50:53 +0000";
layers = (
{
components = (
{
name = d;
}
);
layerId = "3A083A2A-974B-4791-8355-BC872DC0CF17";
paths = (
{
closed = 1;
nodes = (
"556 532 LINE",
"599 568 LINE",
"593 603 LINE",
"261 603 LINE",
"218 567 LINE",
"224 532 LINE"
);
}
);
width = 606;
}
);
leftKerningGroup = o;
leftMetricsKey = d;
rightKerningGroup = l;
unicode = 0111;
},
{
color = 3;
glyphname = eogonek;
lastChange = "2019-02-26 16:50:53 +0000";
layers = (
{
components = (
{
name = e;
}
);
layerId = "3A083A2A-974B-4791-8355-BC872DC0CF17";
paths = (
{
closed = 1;
nodes = (
"456 -167 LINE",
"432 -117 LINE",
"353 -162 OFFCURVE",
"299 -140 OFFCURVE",
"299 -88 CURVE SMOOTH",
"299 -36 OFFCURVE",
"354 6 OFFCURVE",
"431 52 CURVE SMOOTH",
"472 77 LINE",
"422 80 LINE",
"263 35 OFFCURVE",
"180 -46 OFFCURVE",
"180 -121 CURVE SMOOTH",
"180 -185 OFFCURVE",
"240 -244 OFFCURVE",
"330 -234 CURVE"
);
}
);
width = 515;
}
);
leftKerningGroup = o;
leftMetricsKey = e;
rightKerningGroup = e;
unicode = 0119;
},
{
color = 3;
glyphname = Imacron;
lastChange = "2019-02-26 16:50:53 +0000";
layers = (
{
components = (
{
name = I;
}
);
layerId = "3A083A2A-974B-4791-8355-BC872DC0CF17";
paths = (
{
closed = 1;
nodes = (
"341 732 LINE",
"388 778 LINE",
"383 831 LINE",
"140 831 LINE",
"109 831 OFFCURVE",
"66 826 OFFCURVE",
"27 806 CURVE",
"33 732 LINE"
);
}
);
width = 412;
}
);
leftKerningGroup = I;
leftMetricsKey = I;
rightKerningGroup = I;
rightMetricsKey = I;
unicode = 012A;
},
{
color = 3;
glyphname = imacron;
lastChange = "2019-02-26 16:50:53 +0000";
layers = (
{
components = (
{
name = dotlessi;
transform = "{1, 0, 0, 1, 8, 0}";
}
);
layerId = "3A083A2A-974B-4791-8355-BC872DC0CF17";
paths = (
{
closed = 1;
nodes = (
"289 569 LINE",
"336 615 LINE",
"331 668 LINE",
"124 668 LINE",
"93 668 OFFCURVE",
"50 662 OFFCURVE",
"11 643 CURVE",
"17 569 LINE"
);
}
);
width = 349;
}
);
leftKerningGroup = n;
leftMetricsKey = i;
rightKerningGroup = i;
rightMetricsKey = i;
unicode = 012B;
},
{
color = 3;
glyphname = dotlessi;
lastChange = "2019-02-26 16:50:53 +0000";
layers = (
{
anchors = (
{
name = ogonek;
position = "{322, 10}";
},
{
name = top;
position = "{163, 468}";
}
);
layerId = "3A083A2A-974B-4791-8355-BC872DC0CF17";
paths = (
{
closed = 1;
nodes = (
"263 0 LINE",
"263 444 LINE",
"209 492 LINE",
"90 440 LINE",
"90 0 LINE"
);
},
{
closed = 1;
nodes = (
"130 0 LINE",
"140 83 LINE",
"102 74 OFFCURVE",
"54 57 OFFCURVE",
"16 35 CURVE",
"18 0 LINE"
);
},
{
closed = 1;
nodes = (
"319 0 LINE",
"321 49 LINE",
"284 75 OFFCURVE",
"240 93 OFFCURVE",
"198 103 CURVE",
"173 0 LINE"
);
},
{
closed = 1;
nodes = (
"209 422 LINE",
"209 492 LINE",
"139 490 OFFCURVE",
"69 477 OFFCURVE",
"11 455 CURVE",
"16 407 LINE",
"133 385 LINE"
);
}
);
width = 334;
}
);
leftKerningGroup = n;
leftMetricsKey = i;
rightKerningGroup = i;
rightMetricsKey = i;
unicode = 0131;
},
{
color = 3;
glyphname = Lslash;
lastChange = "2019-02-26 16:50:53 +0000";
layers = (
{
components = (
{
name = L;
transform = "{1, 0, 0, 1, 15, 0}";
}
);
layerId = "3A083A2A-974B-4791-8355-BC872DC0CF17";
paths = (
{
closed = 1;
nodes = (
"418 386 LINE",
"433 438 LINE",
"417 462 LINE",
"24 277 LINE",
"53 216 LINE"
);
}
);
width = 634;
}
);
leftKerningGroup = I;
leftMetricsKey = L;
rightKerningGroup = L;
rightMetricsKey = L;
unicode = 0141;
},
{
color = 3;
glyphname = lslash;
lastChange = "2019-02-26 16:50:53 +0000";
layers = (
{
components = (
{
name = l;
transform = "{1, 0, 0, 1, 28, 0}";
}
);
layerId = "3A083A2A-974B-4791-8355-BC872DC0CF17";
paths = (
{
closed = 1;
nodes = (
"379 426 LINE",
"379 482 LINE",
"353 498 LINE",
"11 325 LINE",
"46 258 LINE"
);
}
);
width = 437;
}
);
leftKerningGroup = l;
leftMetricsKey = l;
rightKerningGroup = l;
unicode = 0142;
},
{
color = 3;
glyphname = OE;
lastChange = "2019-02-26 16:50:53 +0000";
layers = (
{
layerId = "3A083A2A-974B-4791-8355-BC872DC0CF17";
paths = (
{
closed = 1;
nodes = (
"418 -16 OFFCURVE",
"481 -5 OFFCURVE",
"534 29 CURVE",
"485 134 LINE",
"465 99 OFFCURVE",
"411 80 OFFCURVE",
"364 80 CURVE SMOOTH",
"245 80 OFFCURVE",
"192 205 OFFCURVE",
"192 337 CURVE SMOOTH",
"192 434 OFFCURVE",
"221 527 OFFCURVE",
"271 568 CURVE",
"295 577 OFFCURVE",
"320 580 OFFCURVE",
"347 580 CURVE SMOOTH",
"399 580 OFFCURVE",
"460 566 OFFCURVE",
"484 521 CURVE",
"529 639 LINE",
"480 666 OFFCURVE",
"423 680 OFFCURVE",
"363 680 CURVE SMOOTH",
"185 680 OFFCURVE",
"11 559 OFFCURVE",
"11 331 CURVE SMOOTH",
"11 91 OFFCURVE",
"189 -16 OFFCURVE",
"356 -16 CURVE SMOOTH"
);
},
{
closed = 1;
nodes = (
"920 0 LINE",
"906 115 LINE",
"584 96 LINE",
"507 0 LINE"
);
},
{
closed = 1;
nodes = (
"618 0 LINE",
"618 662 LINE",
"437 662 LINE",
"437 0 LINE"
);
},
{
closed = 1;
nodes = (
"927 59 OFFCURVE",
"933 151 OFFCURVE",
"931 208 CURVE",
"832 216 LINE",
"766 16 LINE",
"919 0 LINE"
);
},
{
closed = 1;
nodes = (
"825 388 LINE",
"585 368 LINE",
"585 290 LINE",
"825 280 LINE"
);
},
{
closed = 1;
nodes = (
"925 662 LINE",
"503 662 LINE",
"578 573 LINE",
"900 554 LINE"
);
},
{
closed = 1;
nodes = (
"907 460 LINE",
"921 527 OFFCURVE",
"928 619 OFFCURVE",
"925 662 CURVE",
"774 644 LINE",
"807 460 LINE"
);
}
);
width = 981;
}
);
leftKerningGroup = O;
leftMetricsKey = O;
rightKerningGroup = E;
rightMetricsKey = E;
unicode = 0152;
},
{
color = 3;
glyphname = oe;
lastChange = "2019-02-26 16:50:53 +0000";
layers = (
{
anchors = (
{
name = bottom;
position = "{603, 0}";
},
{
name = ogonek;
position = "{805, 26}";
},
{
name = top;
position = "{600, 468}";
}
);
layerId = "3A083A2A-974B-4791-8355-BC872DC0CF17";
paths = (
{
closed = 1;
nodes = (
"338 -20 OFFCURVE",
"407 9 OFFCURVE",
"452 65 CURVE",
"452 411 LINE",
"405 470 OFFCURVE",
"336 500 OFFCURVE",
"262 500 CURVE SMOOTH",
"131 500 OFFCURVE",
"11 408 OFFCURVE",
"11 243 CURVE SMOOTH",
"11 77 OFFCURVE",
"133 -20 OFFCURVE",
"266 -20 CURVE SMOOTH"
);
},
{
closed = 1;
nodes = (
"210 70 OFFCURVE",
"186 147 OFFCURVE",
"186 240 CURVE SMOOTH",
"186 307 OFFCURVE",
"196 365 OFFCURVE",
"216 393 CURVE",
"225 400 OFFCURVE",
"240 404 OFFCURVE",
"254 404 CURVE SMOOTH",
"314 404 OFFCURVE",
"336 324 OFFCURVE",
"336 227 CURVE SMOOTH",
"336 160 OFFCURVE",
"328 97 OFFCURVE",
"299 75 CURVE",
"288 71 OFFCURVE",
"280 70 OFFCURVE",
"271 70 CURVE SMOOTH"
);
},
{
closed = 1;
nodes = (
"800 77 LINE",
"776 134 LINE",
"728 109 OFFCURVE",
"692 96 OFFCURVE",
"647 96 CURVE SMOOTH",
"559 96 OFFCURVE",
"497 148 OFFCURVE",
"497 250 CURVE SMOOTH",
"497 314 OFFCURVE",
"521 387 OFFCURVE",
"567 417 CURVE",
"627 414 OFFCURVE",
"666 340 OFFCURVE",
"656 273 CURVE",
"813 287 LINE",
"814 440 OFFCURVE",
"694 500 OFFCURVE",
"595 500 CURVE SMOOTH",
"508 500 OFFCURVE",
"428 454 OFFCURVE",
"381 380 CURVE",
"381 101 LINE",
"434 22 OFFCURVE",
"530 -28 OFFCURVE",
"644 -12 CURVE"
);
},
{
closed = 1;
nodes = (
"813 287 LINE",
"730 321 LINE",
"444 303 LINE",
"456 231 LINE",
"755 229 LINE"
);
}
);
width = 829;
}
);
leftKerningGroup = o;
leftMetricsKey = o;
rightKerningGroup = e;
rightMetricsKey = e;
unicode = 0153;
},
{
color = 3;
glyphname = pi;
lastChange = "2018-12-16 00:51:22 +0000";
layers = (
{
layerId = "3A083A2A-974B-4791-8355-BC872DC0CF17";
paths = (
{
closed = 1;
nodes = (
"349 -18 OFFCURVE",
"374 88 OFFCURVE",
"378 231 CURVE SMOOTH",
"385 448 LINE",
"217 450 LINE",
"207 194 LINE SMOOTH",
"205 142 OFFCURVE",
"203 83 OFFCURVE",
"191 63 CURVE",
"157 88 OFFCURVE",
"123 116 OFFCURVE",
"93 143 CURVE",
"42 17 LINE",
"106 -8 OFFCURVE",
"167 -18 OFFCURVE",
"209 -18 CURVE SMOOTH"
);
},
{
closed = 1;
nodes = (
"653 0 LINE",
"613 442 LINE",
"469 439 LINE",
"473 33 LINE",
"525 -2 LINE"
);
},
{
closed = 1;
nodes = (
"161 385 LINE",
"709 354 LINE",
"748 383 LINE",
"744 473 LINE",
"159 473 LINE",
"120 462 OFFCURVE",
"55 408 OFFCURVE",
"30 374 CURVE",
"66 320 LINE"
);
}
);
width = 772;
}
);
unicode = 03C0;
},
{
color = 3;
glyphname = endash;
lastChange = "2019-02-26 16:50:53 +0000";
layers = (
{
layerId = "3A083A2A-974B-4791-8355-BC872DC0CF17";
paths = (
{
closed = 1;
nodes = (
"477 218 LINE",
"524 269 LINE",
"520 320 LINE",
"146 320 LINE",
"115 320 OFFCURVE",
"72 313 OFFCURVE",
"33 293 CURVE",
"39 218 LINE"
);
}
);
width = 573;
}
);
leftMetricsKey = hyphen;
rightKerningGroup = space;
rightMetricsKey = hyphen;
unicode = 2013;
},
{
color = 3;
glyphname = emdash;
lastChange = "2019-02-26 16:50:53 +0000";
layers = (
{
layerId = "3A083A2A-974B-4791-8355-BC872DC0CF17";
paths = (
{
closed = 1;
nodes = (
"929 218 LINE",
"976 269 LINE",
"971 320 LINE",
"146 320 LINE",
"115 320 OFFCURVE",
"72 313 OFFCURVE",
"33 293 CURVE",
"39 218 LINE"
);
}
);
width = 1025;
}
);
leftMetricsKey = hyphen;
rightKerningGroup = space;
rightMetricsKey = hyphen;
unicode = 2014;
},
{
color = 3;
glyphname = quoteleft;
lastChange = "2019-02-26 16:50:53 +0000";
layers = (
{
layerId = "3A083A2A-974B-4791-8355-BC872DC0CF17";
paths = (
{
closed = 1;
nodes = (
"160 456 OFFCURVE",
"198 504 OFFCURVE",
"206 543 CURVE",
"149 595 LINE",
"157 641 OFFCURVE",
"181 677 OFFCURVE",
"217 708 CURVE",
"179 755 LINE",
"88 712 OFFCURVE",
"24 636 OFFCURVE",
"24 561 CURVE SMOOTH",
"24 523 OFFCURVE",
"42 471 OFFCURVE",
"115 443 CURVE"
);
}
);
width = 257;
}
);
rightKerningGroup = quoteleft;
unicode = 2018;
},
{
color = 3;
glyphname = quoteright;
lastChange = "2019-02-26 16:50:53 +0000";
layers = (
{
layerId = "3A083A2A-974B-4791-8355-BC872DC0CF17";
paths = (
{
closed = 1;
nodes = (
"169 486 OFFCURVE",
"233 562 OFFCURVE",
"233 636 CURVE SMOOTH",
"233 673 OFFCURVE",
"215 728 OFFCURVE",
"143 755 CURVE",
"97 743 OFFCURVE",
"59 694 OFFCURVE",
"51 656 CURVE",
"108 604 LINE",
"101 558 OFFCURVE",
"76 520 OFFCURVE",
"40 490 CURVE",
"78 443 LINE"
);
}
);
width = 257;
}
);
leftKerningGroup = quotesright;
unicode = 2019;
},
{
color = 3;
glyphname = dagger;
lastChange = "2019-02-26 16:50:53 +0000";
layers = (
{
layerId = "3A083A2A-974B-4791-8355-BC872DC0CF17";
paths = (
{
closed = 1;
nodes = (
"336 -180 LINE",
"376 685 LINE",
"225 689 LINE",
"185 645 LINE",
"215 -180 LINE"
);
},
{
closed = 1;
nodes = (
"486 377 LINE",
"529 434 LINE",
"523 469 LINE",
"81 469 LINE",
"38 412 LINE",
"44 377 LINE"
);
}
);
width = 567;
}
);
rightKerningGroup = space;
unicode = 2020;
},
{
color = 3;
glyphname = daggerdbl;
lastChange = "2019-02-26 16:50:53 +0000";
layers = (
{
layerId = "3A083A2A-974B-4791-8355-BC872DC0CF17";
paths = (
{
closed = 1;
nodes = (
"340 -180 LINE",
"380 685 LINE",
"229 689 LINE",
"189 645 LINE",
"219 -180 LINE"
);
},
{
closed = 1;
nodes = (
"486 135 LINE",
"529 191 LINE",
"523 226 LINE",
"81 226 LINE",
"38 170 LINE",
"44 135 LINE"
);
},
{
closed = 1;
nodes = (
"490 377 LINE",
"533 434 LINE",
"527 469 LINE",
"85 469 LINE",
"42 412 LINE",
"48 377 LINE"
);
}
);
width = 571;
}
);
leftMetricsKey = dagger;
rightKerningGroup = space;
rightMetricsKey = dagger;
unicode = 2021;
},
{
color = 3;
glyphname = bullet;
lastChange = "2019-02-26 16:50:53 +0000";
layers = (
{
layerId = "3A083A2A-974B-4791-8355-BC872DC0CF17";
paths = (
{
closed = 1;
nodes = (
"294 130 OFFCURVE",
"338 185 OFFCURVE",
"359 254 CURVE",
"334 328 OFFCURVE",
"273 384 OFFCURVE",
"199 415 CURVE",
"125 374 OFFCURVE",
"72 315 OFFCURVE",
"58 229 CURVE",
"92 164 OFFCURVE",
"147 120 OFFCURVE",
"224 95 CURVE"
);
}
);
width = 417;
}
);
rightKerningGroup = space;
unicode = 2022;
},
{
color = 3;
glyphname = ellipsis;
lastChange = "2019-02-26 16:50:53 +0000";
layers = (
{
layerId = "3A083A2A-974B-4791-8355-BC872DC0CF17";
paths = (
{
closed = 1;
nodes = (
"856 3 OFFCURVE",
"885 37 OFFCURVE",
"898 82 CURVE",
"886 127 OFFCURVE",
"846 162 OFFCURVE",
"798 183 CURVE",
"750 158 OFFCURVE",
"716 119 OFFCURVE",
"708 66 CURVE",
"730 24 OFFCURVE",
"765 -4 OFFCURVE",
"813 -20 CURVE"
);
},
{
closed = 1;
nodes = (
"244 3 OFFCURVE",
"273 37 OFFCURVE",
"286 82 CURVE",
"274 127 OFFCURVE",
"234 162 OFFCURVE",
"186 183 CURVE",
"138 158 OFFCURVE",
"104 119 OFFCURVE",
"96 66 CURVE",
"118 24 OFFCURVE",
"153 -4 OFFCURVE",
"201 -20 CURVE"
);
},
{
closed = 1;
nodes = (
"550 3 OFFCURVE",
"579 37 OFFCURVE",
"592 82 CURVE",
"580 127 OFFCURVE",
"540 162 OFFCURVE",
"492 183 CURVE",
"444 158 OFFCURVE",
"410 119 OFFCURVE",
"402 66 CURVE",
"424 24 OFFCURVE",
"459 -4 OFFCURVE",
"507 -20 CURVE"
);
}
);
width = 898;
}
);
leftMetricsKey = period;
rightKerningGroup = space;
rightMetricsKey = period;
unicode = 2026;
},
{
color = 3;
glyphname = perthousand;
lastChange = "2019-02-26 16:50:53 +0000";
layers = (
{
layerId = "3A083A2A-974B-4791-8355-BC872DC0CF17";
paths = (
{
closed = 1;
nodes = (
"641 538 LINE",
"571 591 LINE",
"163 17 LINE",
"232 -38 LINE"
);
},
{
closed = 1;
nodes = (
"296 265 OFFCURVE",
"361 339 OFFCURVE",
"361 435 CURVE SMOOTH",
"361 524 OFFCURVE",
"290 607 OFFCURVE",
"200 607 CURVE SMOOTH",
"112 607 OFFCURVE",
"42 524 OFFCURVE",
"42 435 CURVE SMOOTH",
"42 340 OFFCURVE",
"117 265 OFFCURVE",
"205 265 CURVE SMOOTH"
);
},
{
closed = 1;
nodes = (
"166 353 OFFCURVE",
"144 406 OFFCURVE",
"144 448 CURVE SMOOTH",
"144 471 OFFCURVE",
"152 493 OFFCURVE",
"165 510 CURVE",
"174 513 OFFCURVE",
"182 515 OFFCURVE",
"189 515 CURVE SMOOTH",
"229 515 OFFCURVE",
"257 473 OFFCURVE",
"257 423 CURVE SMOOTH",
"257 401 OFFCURVE",
"252 375 OFFCURVE",
"233 355 CURVE",
"227 354 OFFCURVE",
"221 353 OFFCURVE",
"214 353 CURVE SMOOTH"
);
},
{
closed = 1;
nodes = (
"723 -23 OFFCURVE",
"788 51 OFFCURVE",
"788 147 CURVE SMOOTH",
"788 236 OFFCURVE",
"717 319 OFFCURVE",
"627 319 CURVE SMOOTH",
"539 319 OFFCURVE",
"469 236 OFFCURVE",
"469 147 CURVE SMOOTH",
"469 52 OFFCURVE",
"544 -23 OFFCURVE",
"632 -23 CURVE SMOOTH"
);
},
{
closed = 1;
nodes = (
"597 65 OFFCURVE",
"571 112 OFFCURVE",
"571 158 CURVE SMOOTH",
"571 178 OFFCURVE",
"576 203 OFFCURVE",
"592 222 CURVE",
"601 226 OFFCURVE",
"609 228 OFFCURVE",
"616 228 CURVE SMOOTH",
"657 228 OFFCURVE",
"684 181 OFFCURVE",
"684 135 CURVE SMOOTH",
"684 112 OFFCURVE",
"679 87 OFFCURVE",
"660 67 CURVE",
"654 66 OFFCURVE",
"649 65 OFFCURVE",
"643 65 CURVE SMOOTH"
);
},
{
closed = 1;
nodes = (
"1087 -23 OFFCURVE",
"1152 51 OFFCURVE",
"1152 147 CURVE SMOOTH",
"1152 236 OFFCURVE",
"1081 319 OFFCURVE",
"991 319 CURVE SMOOTH",
"903 319 OFFCURVE",
"833 236 OFFCURVE",
"833 147 CURVE SMOOTH",
"833 52 OFFCURVE",
"908 -23 OFFCURVE",
"996 -23 CURVE SMOOTH"
);
},
{
closed = 1;
nodes = (
"961 65 OFFCURVE",
"935 112 OFFCURVE",
"935 158 CURVE SMOOTH",
"935 177 OFFCURVE",
"940 203 OFFCURVE",
"956 222 CURVE",
"965 226 OFFCURVE",
"973 228 OFFCURVE",
"980 228 CURVE SMOOTH",
"1021 228 OFFCURVE",
"1048 181 OFFCURVE",
"1048 135 CURVE SMOOTH",
"1048 113 OFFCURVE",
"1043 87 OFFCURVE",
"1024 67 CURVE",
"1018 66 OFFCURVE",
"1013 65 OFFCURVE",
"1007 65 CURVE SMOOTH"
);
}
);
width = 1195;
}
);
leftMetricsKey = percent;
rightKerningGroup = space;
rightMetricsKey = percent;
unicode = 2030;
},
{
color = 3;
glyphname = guilsinglleft;
lastChange = "2019-02-26 16:50:53 +0000";
layers = (
{
layerId = "3A083A2A-974B-4791-8355-BC872DC0CF17";
paths = (
{
closed = 1;
nodes = (
"309 95 LINE",
"211 253 LINE",
"303 420 LINE",
"220 476 LINE",
"54 293 LINE",
"54 214 LINE",
"221 33 LINE"
);
}
);
width = 363;
}
);
rightKerningGroup = space;
unicode = 2039;
},
{
color = 3;
glyphname = guilsinglright;
lastChange = "2019-02-26 16:50:53 +0000";
layers = (
{
layerId = "3A083A2A-974B-4791-8355-BC872DC0CF17";
paths = (
{
closed = 1;
nodes = (
"309 214 LINE",
"309 293 LINE",
"144 476 LINE",
"61 420 LINE",
"153 253 LINE",
"54 95 LINE",
"142 33 LINE"
);
}
);
width = 363;
}
);
leftMetricsKey = "=|";
rightKerningGroup = space;
rightMetricsKey = "=|guilsinglleft";
unicode = 203A;
},
{
color = 3;
glyphname = fraction;
lastChange = "2019-02-26 16:50:53 +0000";
layers = (
{
layerId = "3A083A2A-974B-4791-8355-BC872DC0CF17";
paths = (
{
closed = 1;
nodes = (
"441 626 LINE",
"377 690 LINE",
"-211 75 LINE",
"-145 13 LINE"
);
}
);
width = 184;
}
);
rightKerningGroup = space;
unicode = 2044;
},
{
color = 3;
glyphname = euro;
lastChange = "2018-12-16 00:51:22 +0000";
layers = (
{
anchors = (
{
name = bottom;
position = "{418, 0}";
},
{
name = top;
position = "{418, 650}";
}
);
layerId = "3A083A2A-974B-4791-8355-BC872DC0CF17";
paths = (
{
closed = 1;
nodes = (
"632 53 LINE",
"605 132 LINE",
"459 93 LINE",
"316 103 OFFCURVE",
"260 193 OFFCURVE",
"260 323 CURVE SMOOTH",
"260 428 OFFCURVE",
"297 517 OFFCURVE",
"361 568 CURVE",
"437 574 OFFCURVE",
"511 547 OFFCURVE",
"584 486 CURVE",
"634 608 LINE",
"583 647 OFFCURVE",
"510 670 OFFCURVE",
"429 670 CURVE SMOOTH",
"196 670 OFFCURVE",
"85 485 OFFCURVE",
"85 311 CURVE SMOOTH",
"85 156 OFFCURVE",
"173 -27 OFFCURVE",
"447 -22 CURVE"
);
},
{
closed = 1;
nodes = (
"494 201 LINE",
"533 247 LINE",
"527 272 LINE",
"14 272 LINE",
"-26 226 LINE",
"-20 201 LINE"
);
},
{
closed = 1;
nodes = (
"534 336 LINE",
"573 382 LINE",
"567 407 LINE",
"37 407 LINE",
"-2 361 LINE",
"4 336 LINE"
);
},
{
closed = 1;
nodes = (
"600 449 LINE",
"615 490 OFFCURVE",
"627 545 OFFCURVE",
"635 608 CURVE",
"493 603 LINE",
"519 449 LINE"
);
}
);
width = 643;
}
);
rightMetricsKey = C;
unicode = 20AC;
},
{
color = 3;
glyphname = ruble;
lastChange = "2019-02-26 16:50:53 +0000";
layers = (
{
layerId = "3A083A2A-974B-4791-8355-BC872DC0CF17";
paths = (
{
closed = 1;
nodes = (
"391 233 LINE SMOOTH",
"548 233 OFFCURVE",
"651 328 OFFCURVE",
"651 447 CURVE SMOOTH",
"651 561 OFFCURVE",
"559 672 OFFCURVE",
"382 670 CURVE SMOOTH",
"37 662 LINE",
"280 571 LINE",
"415 584 LINE",
"450 561 OFFCURVE",
"468 494 OFFCURVE",
"468 444 CURVE SMOOTH",
"468 379 OFFCURVE",
"435 320 OFFCURVE",
"358 320 CURVE SMOOTH",
"266 320 LINE",
"263 233 LINE"
);
},
{
closed = 1;
nodes = (
"131 0 LINE",
"130 85 LINE",
"93 69 OFFCURVE",
"60 52 OFFCURVE",
"31 32 CURVE",
"37 0 LINE"
);
},
{
closed = 1;
nodes = (
"367 121 LINE",
"409 156 LINE",
"404 194 LINE",
"67 194 LINE",
"24 156 LINE",
"30 121 LINE"
);
},
{
closed = 1;
nodes = (
"412 0 LINE",
"413 53 LINE",
"275 75 LINE",
"272 0 LINE"
);
},
{
closed = 1;
nodes = (
"367 239 LINE",
"410 275 LINE",
"404 317 LINE",
"67 317 LINE",
"24 274 LINE",
"30 239 LINE"
);
},
{
closed = 1;
nodes = (
"291 0 LINE",
"291 662 LINE",
"110 662 LINE",
"110 0 LINE"
);
},
{
closed = 1;
nodes = (
"159 662 LINE",
"37 662 LINE",
"36 609 LINE",
"158 591 LINE"
);
}
);
width = 663;
}
);
leftKerningGroup = I;
leftMetricsKey = P;
rightMetricsKey = P;
unicode = 20BD;
},
{
color = 3;
glyphname = trademark;
lastChange = "2018-12-16 00:51:22 +0000";
layers = (
{
anchors = (
{
name = bottom;
position = "{217, 269}";
},
{
name = center;
position = "{204, 412}";
},
{
name = top;
position = "{217, 555}";
}
);
layerId = "3A083A2A-974B-4791-8355-BC872DC0CF17";
paths = (
{
closed = 1;
nodes = (
"649 456 LINE",
"650 518 LINE",
"562 735 LINE",
"466 715 LINE",
"575 446 LINE"
);
},
{
closed = 1;
nodes = (
"139 448 LINE",
"138 492 LINE",
"120 483 OFFCURVE",
"98 473 OFFCURVE",
"85 462 CURVE",
"88 448 LINE"
);
},
{
closed = 1;
nodes = (
"290 448 LINE",
"291 473 LINE",
"226 485 LINE",
"224 448 LINE"
);
},
{
closed = 1;
nodes = (
"80 608 LINE",
"100 730 LINE",
"8 737 LINE",
"5 715 OFFCURVE",
"12 629 OFFCURVE",
"19 608 CURVE"
);
},
{
closed = 1;
nodes = (
"244 448 LINE",
"244 728 LINE",
"133 728 LINE",
"133 448 LINE"
);
},
{
closed = 1;
nodes = (
"431 449 LINE",
"431 493 LINE",
"412 483 OFFCURVE",
"396 474 OFFCURVE",
"383 463 CURVE",
"386 449 LINE"
);
},
{
closed = 1;
nodes = (
"188 692 LINE",
"341 682 LINE",
"368 737 LINE",
"206 734 OFFCURVE",
"172 734 OFFCURVE",
"8 737 CURVE",
"34 682 LINE"
);
},
{
closed = 1;
nodes = (
"539 449 LINE",
"539 474 LINE SMOOTH",
"473 486 LINE",
"472 449 LINE"
);
},
{
closed = 1;
nodes = (
"355 608 LINE",
"363 629 OFFCURVE",
"370 715 OFFCURVE",
"368 737 CURVE",
"274 730 LINE",
"295 608 LINE SMOOTH"
);
},
{
closed = 1;
nodes = (
"494 449 LINE",
"499 592 LINE",
"491 680 LINE",
"562 735 LINE",
"435 735 LINE",
"423 449 LINE"
);
},
{
closed = 1;
nodes = (
"465 735 LINE",
"399 735 LINE",
"398 710 LINE",
"463 698 LINE"
);
},
{
closed = 1;
nodes = (
"734 449 LINE",
"734 493 LINE",
"715 483 OFFCURVE",
"699 474 OFFCURVE",
"686 463 CURVE",
"689 449 LINE"
);
},
{
closed = 1;
nodes = (
"755 719 LINE",
"712 735 LINE",
"604 465 LINE",
"649 456 LINE"
);
},
{
closed = 1;
nodes = (
"866 449 LINE",
"866 474 LINE",
"800 486 LINE",
"799 449 LINE"
);
},
{
closed = 1;
nodes = (
"827 449 LINE",
"815 735 LINE",
"712 735 LINE",
"727 678 LINE",
"720 589 LINE",
"728 449 LINE"
);
},
{
closed = 1;
nodes = (
"824 701 OFFCURVE",
"840 710 OFFCURVE",
"853 721 CURVE",
"850 735 LINE",
"805 735 LINE",
"805 691 LINE"
);
}
);
width = 890;
}
);
leftMetricsKey = T;
rightMetricsKey = M;
unicode = 2122;
},
{
color = 3;
glyphname = Ohm;
lastChange = "2018-12-16 00:51:22 +0000";
layers = (
{
layerId = "3A083A2A-974B-4791-8355-BC872DC0CF17";
paths = (
{
closed = 1;
nodes = (
"571 78 OFFCURVE",
"683 210 OFFCURVE",
"683 365 CURVE SMOOTH",
"683 542 OFFCURVE",
"530 670 OFFCURVE",
"352 670 CURVE SMOOTH",
"169 670 OFFCURVE",
"11 535 OFFCURVE",
"11 356 CURVE SMOOTH",
"11 198 OFFCURVE",
"129 83 OFFCURVE",
"293 18 CURVE",
"330 85 LINE",
"235 168 OFFCURVE",
"195 284 OFFCURVE",
"195 379 CURVE SMOOTH",
"195 497 OFFCURVE",
"253 583 OFFCURVE",
"355 583 CURVE SMOOTH",
"460 583 OFFCURVE",
"517 496 OFFCURVE",
"517 379 CURVE SMOOTH",
"517 287 OFFCURVE",
"480 172 OFFCURVE",
"389 81 CURVE",
"421 13 LINE"
);
},
{
closed = 1;
nodes = (
"330 0 LINE",
"330 85 LINE",
"225 80 OFFCURVE",
"100 60 OFFCURVE",
"40 32 CURVE",
"46 0 LINE"
);
},
{
closed = 1;
nodes = (
"659 0 LINE",
"660 53 LINE",
"389 81 LINE",
"389 0 LINE"
);
}
);
width = 694;
}
);
leftMetricsKey = O;
rightMetricsKey = O;
unicode = 2126;
},
{
color = 3;
glyphname = partialdiff;
lastChange = "2018-12-16 00:51:22 +0000";
layers = (
{
layerId = "3A083A2A-974B-4791-8355-BC872DC0CF17";
paths = (
{
closed = 1;
nodes = (
"448 -33 OFFCURVE",
"556 92 OFFCURVE",
"556 290 CURVE SMOOTH",
"556 486 OFFCURVE",
"454 683 OFFCURVE",
"201 761 CURVE",
"166 684 LINE",
"313 633 OFFCURVE",
"396 476 OFFCURVE",
"396 314 CURVE SMOOTH",
"396 207 OFFCURVE",
"362 104 OFFCURVE",
"298 60 CURVE",
"239 68 OFFCURVE",
"214 128 OFFCURVE",
"216 192 CURVE SMOOTH",
"220 285 OFFCURVE",
"289 386 OFFCURVE",
"429 364 CURVE",
"429 409 LINE",
"282 474 LINE",
"159 474 OFFCURVE",
"55 355 OFFCURVE",
"55 212 CURVE SMOOTH",
"55 73 OFFCURVE",
"148 -33 OFFCURVE",
"296 -33 CURVE SMOOTH"
);
}
);
width = 600;
}
);
unicode = 2202;
},
{
color = 3;
glyphname = increment;
lastChange = "2018-12-16 00:51:22 +0000";
layers = (
{
layerId = "3A083A2A-974B-4791-8355-BC872DC0CF17";
paths = (
{
closed = 1;
nodes = (
"685 71 LINE",
"427 674 LINE",
"271 634 LINE",
"525 0 LINE"
);
},
{
closed = 1;
nodes = (
"650 0 LINE",
"691 33 LINE",
"687 71 LINE",
"95 71 LINE",
"40 35 LINE",
"46 0 LINE"
);
},
{
closed = 1;
nodes = (
"365 609 LINE",
"272 634 LINE",
"40 35 LINE",
"151 23 LINE"
);
}
);
width = 725;
}
);
unicode = 2206;
},
{
color = 9;
glyphname = product;
lastChange = "2018-12-16 00:51:22 +0000";
layers = (
{
layerId = "3A083A2A-974B-4791-8355-BC872DC0CF17";
paths = (
{
closed = 1;
nodes = (
"681 -100 LINE",
"681 680 LINE",
"500 680 LINE",
"500 -100 LINE"
);
},
{
closed = 1;
nodes = (
"155 -100 LINE",
"154 -15 LINE",
"117 -31 OFFCURVE",
"84 -48 OFFCURVE",
"55 -68 CURVE",
"61 -100 LINE"
);
},
{
closed = 1;
nodes = (
"410 -100 LINE",
"411 -47 LINE",
"273 -25 LINE",
"270 -100 LINE"
);
},
{
closed = 1;
nodes = (
"321 -100 LINE",
"321 680 LINE",
"140 680 LINE",
"140 -100 LINE"
);
},
{
closed = 1;
nodes = (
"771 -100 LINE",
"772 -47 LINE",
"634 -25 LINE",
"631 -100 LINE"
);
},
{
closed = 1;
nodes = (
"759 638 LINE",
"803 682 LINE",
"799 735 LINE",
"129 735 LINE",
"98 735 OFFCURVE",
"61 726 OFFCURVE",
"24 706 CURVE",
"36 638 LINE"
);
}
);
width = 827;
}
);
leftMetricsKey = H;
rightMetricsKey = H;
unicode = 220F;
},
{
color = 3;
glyphname = summation;
lastChange = "2018-12-16 00:51:22 +0000";
layers = (
{
layerId = "3A083A2A-974B-4791-8355-BC872DC0CF17";
paths = (
{
closed = 1;
nodes = (
"373 307 LINE",
"179 723 LINE",
"30 663 LINE",
"231 243 LINE"
);
},
{
closed = 1;
nodes = (
"630 -100 LINE",
"613 15 LINE",
"249 2 LINE",
"42 -34 LINE",
"42 -100 LINE"
);
},
{
closed = 1;
nodes = (
"373 307 LINE",
"293 365 LINE",
"42 -33 LINE",
"124 -87 LINE"
);
},
{
closed = 1;
nodes = (
"632 -57 OFFCURVE",
"623 75 OFFCURVE",
"610 129 CURVE",
"504 128 LINE",
"439 -82 LINE",
"629 -100 LINE"
);
},
{
closed = 1;
nodes = (
"604 735 LINE",
"30 735 LINE",
"30 663 LINE",
"267 628 LINE",
"587 615 LINE"
);
},
{
closed = 1;
nodes = (
"584 507 LINE",
"597 560 OFFCURVE",
"606 692 OFFCURVE",
"603 735 CURVE",
"413 717 LINE",
"478 507 LINE"
);
}
);
width = 684;
}
);
unicode = 2211;
},
{
color = 3;
glyphname = minus;
lastChange = "2018-12-16 00:51:22 +0000";
layers = (
{
layerId = "3A083A2A-974B-4791-8355-BC872DC0CF17";
paths = (
{
closed = 1;
nodes = (
"542 207 LINE",
"542 306 LINE",
"54 306 LINE",
"54 207 LINE"
);
}
);
width = 596;
}
);
unicode = 2212;
},
{
color = 3;
glyphname = bulletoperator;
layers = (
{
layerId = "3A083A2A-974B-4791-8355-BC872DC0CF17";
paths = (
{
closed = 1;
nodes = (
"174 192 OFFCURVE",
"209 238 OFFCURVE",
"224 277 CURVE",
"203 305 OFFCURVE",
"158 346 OFFCURVE",
"119 362 CURVE",
"85 343 OFFCURVE",
"51 297 OFFCURVE",
"30 254 CURVE",
"53 222 OFFCURVE",
"105 183 OFFCURVE",
"140 169 CURVE"
);
}
);
width = 282;
}
);
unicode = 2219;
},
{
color = 3;
glyphname = radical;
lastChange = "2018-12-16 00:51:22 +0000";
layers = (
{
layerId = "3A083A2A-974B-4791-8355-BC872DC0CF17";
paths = (
{
closed = 1;
nodes = (
"356 -97 OFFCURVE",
"431 -92 OFFCURVE",
"469 -78 CURVE",
"703 708 LINE",
"580 751 LINE",
"343 -50 LINE",
"431 -51 LINE",
"291 473 LINE",
"184 473 LINE",
"36 341 LINE",
"99 254 LINE",
"251 353 LINE",
"167 399 LINE",
"314 -95 LINE"
);
}
);
width = 775;
}
);
unicode = 221A;
},
{
color = 3;
glyphname = infinity;
lastChange = "2018-12-16 00:51:22 +0000";
layers = (
{
layerId = "3A083A2A-974B-4791-8355-BC872DC0CF17";
paths = (
{
closed = 1;
nodes = (
"645 140 OFFCURVE",
"744 205 OFFCURVE",
"744 336 CURVE SMOOTH",
"744 454 OFFCURVE",
"665 528 OFFCURVE",
"580 528 CURVE SMOOTH",
"495 528 OFFCURVE",
"428 451 OFFCURVE",
"379 370 CURVE",
"416 325 LINE",
"454 374 OFFCURVE",
"509 407 OFFCURVE",
"551 407 CURVE SMOOTH",
"599 407 OFFCURVE",
"627 362 OFFCURVE",
"627 324 CURVE SMOOTH",
"627 306 OFFCURVE",
"621 285 OFFCURVE",
"608 271 CURVE",
"546 243 OFFCURVE",
"498 311 OFFCURVE",
"434 390 CURVE SMOOTH",
"380 454 OFFCURVE",
"315 529 OFFCURVE",
"221 529 CURVE SMOOTH",
"126 529 OFFCURVE",
"30 451 OFFCURVE",
"30 326 CURVE SMOOTH",
"30 202 OFFCURVE",
"127 142 OFFCURVE",
"206 142 CURVE SMOOTH",
"290 142 OFFCURVE",
"357 210 OFFCURVE",
"403 303 CURVE",
"361 349 LINE",
"331 300 OFFCURVE",
"291 273 OFFCURVE",
"247 273 CURVE SMOOTH",
"192 273 OFFCURVE",
"153 312 OFFCURVE",
"153 368 CURVE SMOOTH",
"153 384 OFFCURVE",
"159 396 OFFCURVE",
"167 408 CURVE",
"228 441 OFFCURVE",
"289 370 OFFCURVE",
"351 283 CURVE",
"406 213 OFFCURVE",
"464 140 OFFCURVE",
"557 140 CURVE SMOOTH"
);
}
);
width = 766;
}
);
unicode = 221E;
},
{
color = 3;
glyphname = integral;
lastChange = "2018-12-16 00:51:22 +0000";
layers = (
{
layerId = "3A083A2A-974B-4791-8355-BC872DC0CF17";
paths = (
{
closed = 1;
nodes = (
"251 -178 OFFCURVE",
"385 -55 OFFCURVE",
"385 92 CURVE",
"218 647 LINE",
"286 638 OFFCURVE",
"342 588 OFFCURVE",
"378 551 CURVE",
"463 702 LINE",
"397 737 OFFCURVE",
"351 751 OFFCURVE",
"300 751 CURVE SMOOTH",
"177 750 OFFCURVE",
"44 628 OFFCURVE",
"44 481 CURVE",
"211 -75 LINE",
"143 -66 OFFCURVE",
"87 -16 OFFCURVE",
"49 22 CURVE",
"-36 -129 LINE",
"32 -162 OFFCURVE",
"82 -180 OFFCURVE",
"129 -178 CURVE SMOOTH"
);
}
);
width = 427;
}
);
unicode = 222B;
},
{
color = 3;
glyphname = notequal;
lastChange = "2018-12-16 00:51:22 +0000";
layers = (
{
components = (
{
name = equal;
}
);
layerId = "3A083A2A-974B-4791-8355-BC872DC0CF17";
paths = (
{
closed = 1;
nodes = (
"477 489 LINE",
"427 517 LINE",
"118 18 LINE",
"168 -12 LINE"
);
}
);
width = 580;
}
);
leftMetricsKey = minus;
rightMetricsKey = minus;
unicode = 2260;
},
{
color = 3;
glyphname = lessequal;
lastChange = "2018-12-16 00:51:22 +0000";
layers = (
{
layerId = "3A083A2A-974B-4791-8355-BC872DC0CF17";
paths = (
{
closed = 1;
nodes = (
"521 223 LINE",
"208 368 LINE",
"207 374 LINE",
"521 534 LINE",
"477 610 LINE",
"70 402 LINE",
"78 332 LINE",
"477 144 LINE"
);
},
{
closed = 1;
nodes = (
"542 0 LINE",
"542 89 LINE",
"54 89 LINE",
"54 0 LINE"
);
}
);
width = 596;
}
);
leftMetricsKey = minus;
rightMetricsKey = minus;
unicode = 2264;
},
{
color = 3;
glyphname = greaterequal;
lastChange = "2018-12-16 00:51:22 +0000";
layers = (
{
layerId = "3A083A2A-974B-4791-8355-BC872DC0CF17";
paths = (
{
closed = 1;
nodes = (
"518 332 LINE",
"526 402 LINE",
"121 610 LINE",
"75 534 LINE",
"390 374 LINE",
"389 368 LINE",
"76 223 LINE",
"119 144 LINE"
);
},
{
closed = 1;
nodes = (
"542 0 LINE",
"542 89 LINE",
"54 89 LINE",
"54 0 LINE"
);
}
);
width = 596;
}
);
leftMetricsKey = minus;
rightMetricsKey = minus;
unicode = 2265;
},
{
color = 3;
glyphname = lozenge;
lastChange = "2018-12-16 00:51:22 +0000";
layers = (
{
layerId = "3A083A2A-974B-4791-8355-BC872DC0CF17";
paths = (
{
closed = 1;
nodes = (
"516 367 LINE",
"314 743 LINE",
"220 735 LINE",
"38 368 LINE",
"142 325 LINE",
"267 594 LINE",
"273 595 LINE",
"416 322 LINE"
);
},
{
closed = 1;
nodes = (
"334 0 LINE",
"516 367 LINE",
"412 410 LINE",
"288 141 LINE",
"282 140 LINE",
"138 413 LINE",
"38 368 LINE",
"240 -8 LINE"
);
}
);
width = 554;
}
);
unicode = 25CA;
},
{
color = 3;
glyphname = f_b.liga;
lastChange = "2019-02-26 16:50:53 +0000";
layers = (
{
components = (
{
name = b;
transform = "{1, 0, 0, 1, 393, 0}";
}
);
layerId = "3A083A2A-974B-4791-8355-BC872DC0CF17";
paths = (
{
closed = 1;
nodes = (
"261 0 LINE",
"261 437 LINE",
"263 465 LINE",
"216 624 LINE",
"521 594 LINE",
"568 737 LINE",
"300 737 LINE SMOOTH",
"186 737 OFFCURVE",
"87 656 OFFCURVE",
"87 529 CURVE SMOOTH",
"87 0 LINE"
);
},
{
closed = 1;
nodes = (
"135 0 LINE",
"145 83 LINE",
"107 74 OFFCURVE",
"59 57 OFFCURVE",
"21 35 CURVE",
"23 0 LINE"
);
},
{
closed = 1;
nodes = (
"344 0 LINE",
"346 49 LINE",
"309 75 OFFCURVE",
"265 93 OFFCURVE",
"223 103 CURVE",
"198 0 LINE"
);
},
{
closed = 1;
nodes = (
"201 362 LINE",
"214 431 LINE",
"147 491 LINE",
"103 468 OFFCURVE",
"57 444 OFFCURVE",
"11 415 CURVE",
"13 360 LINE SMOOTH"
);
},
{
closed = 1;
nodes = (
"317 360 LINE",
"368 424 LINE",
"366 473 LINE",
"207 473 LINE",
"207 360 LINE"
);
}
);
width = 964;
}
);
leftKerningGroup = f;
leftMetricsKey = f;
rightKerningGroup = o;
rightMetricsKey = b;
},
{
color = 3;
glyphname = f_h.liga;
lastChange = "2019-02-26 16:50:53 +0000";
layers = (
{
components = (
{
name = h;
transform = "{1, 0, 0, 1, 390, 0}";
}
);
layerId = "3A083A2A-974B-4791-8355-BC872DC0CF17";
paths = (
{
closed = 1;
nodes = (
"261 0 LINE",
"261 437 LINE",
"263 465 LINE",
"216 624 LINE",
"527 594 LINE",
"594 737 LINE",
"300 737 LINE SMOOTH",
"186 737 OFFCURVE",
"87 656 OFFCURVE",
"87 529 CURVE SMOOTH",
"87 0 LINE"
);
},
{
closed = 1;
nodes = (
"135 0 LINE",
"145 83 LINE",
"107 74 OFFCURVE",
"59 57 OFFCURVE",
"21 35 CURVE",
"23 0 LINE"
);
},
{
closed = 1;
nodes = (
"344 0 LINE",
"346 49 LINE",
"309 75 OFFCURVE",
"265 93 OFFCURVE",
"223 103 CURVE",
"198 0 LINE"
);
},
{
closed = 1;
nodes = (
"201 362 LINE",
"214 431 LINE",
"147 491 LINE",
"103 468 OFFCURVE",
"57 444 OFFCURVE",
"11 415 CURVE",
"13 360 LINE"
);
},
{
closed = 1;
nodes = (
"317 360 LINE",
"368 424 LINE",
"366 473 LINE",
"207 473 LINE",
"207 360 LINE"
);
}
);
width = 1032;
}
);
leftKerningGroup = f;
leftMetricsKey = f;
rightKerningGroup = n;
rightMetricsKey = h;
},
{
color = 3;
glyphname = f_k.liga;
lastChange = "2019-02-26 16:50:53 +0000";
layers = (
{
components = (
{
name = k;
transform = "{1, 0, 0, 1, 388, 0}";
}
);
layerId = "3A083A2A-974B-4791-8355-BC872DC0CF17";
paths = (
{
closed = 1;
nodes = (
"261 0 LINE",
"261 437 LINE",
"263 465 LINE",
"216 624 LINE",
"527 594 LINE",
"593 737 LINE",
"300 737 LINE SMOOTH",
"186 737 OFFCURVE",
"87 656 OFFCURVE",
"87 529 CURVE SMOOTH",
"87 0 LINE"
);
},
{
closed = 1;
nodes = (
"135 0 LINE",
"145 83 LINE",
"107 74 OFFCURVE",
"59 57 OFFCURVE",
"21 35 CURVE",
"23 0 LINE"
);
},
{
closed = 1;
nodes = (
"344 0 LINE",
"346 49 LINE",
"309 75 OFFCURVE",
"265 93 OFFCURVE",
"223 103 CURVE",
"198 0 LINE"
);
},
{
closed = 1;
nodes = (
"201 362 LINE",
"214 431 LINE",
"147 491 LINE",
"103 468 OFFCURVE",
"57 444 OFFCURVE",
"11 415 CURVE",
"13 360 LINE"
);
},
{
closed = 1;
nodes = (
"317 360 LINE",
"368 424 LINE",
"366 473 LINE",
"207 473 LINE",
"207 360 LINE"
);
}
);
width = 998;
}
);
leftKerningGroup = f;
leftMetricsKey = f;
rightKerningGroup = k;
rightMetricsKey = k;
},
{
color = 3;
glyphname = f_l.liga;
lastChange = "2019-02-26 16:50:53 +0000";
layers = (
{
components = (
{
name = l;
transform = "{1, 0, 0, 1, 390, 0}";
}
);
layerId = "3A083A2A-974B-4791-8355-BC872DC0CF17";
paths = (
{
closed = 1;
nodes = (
"261 0 LINE",
"261 437 LINE",
"263 465 LINE",
"216 624 LINE",
"527 594 LINE",
"594 737 LINE",
"300 737 LINE SMOOTH",
"186 737 OFFCURVE",
"87 656 OFFCURVE",
"87 529 CURVE SMOOTH",
"87 0 LINE"
);
},
{
closed = 1;
nodes = (
"135 0 LINE",
"145 83 LINE",
"107 74 OFFCURVE",
"59 57 OFFCURVE",
"21 35 CURVE",
"23 0 LINE"
);
},
{
closed = 1;
nodes = (
"344 0 LINE",
"346 49 LINE",
"309 75 OFFCURVE",
"265 93 OFFCURVE",
"223 103 CURVE",
"198 0 LINE"
);
},
{
closed = 1;
nodes = (
"201 362 LINE",
"214 431 LINE",
"147 491 LINE",
"103 468 OFFCURVE",
"57 444 OFFCURVE",
"11 415 CURVE",
"13 360 LINE"
);
},
{
closed = 1;
nodes = (
"317 360 LINE",
"368 424 LINE",
"366 473 LINE",
"207 473 LINE",
"207 360 LINE"
);
}
);
width = 745;
}
);
leftKerningGroup = f;
leftMetricsKey = f;
rightKerningGroup = l;
rightMetricsKey = l;
},
{
color = 3;
glyphname = acutecomb;
layers = (
{
anchors = (
{
name = _top;
position = "{0, 473}";
}
);
layerId = "3A083A2A-974B-4791-8355-BC872DC0CF17";
paths = (
{
closed = 1;
nodes = (
"44 588 OFFCURVE",
"103 647 OFFCURVE",
"163 695 CURVE",
"55 790 LINE",
"-99 602 LINE",
"-12 534 LINE"
);
}
);
width = 0;
}
);
unicode = 0301;
},
{
color = 3;
glyphname = brevecomb;
lastChange = "2018-12-16 00:51:22 +0000";
layers = (
{
anchors = (
{
name = _top;
position = "{0, 473}";
}
);
layerId = "3A083A2A-974B-4791-8355-BC872DC0CF17";
paths = (
{
closed = 1;
nodes = (
"90 550 OFFCURVE",
"168 605 OFFCURVE",
"170 715 CURVE",
"59 719 LINE",
"59 670 OFFCURVE",
"31 643 OFFCURVE",
"-3 643 CURVE SMOOTH",
"-35 643 OFFCURVE",
"-65 665 OFFCURVE",
"-70 720 CURVE",
"-168 715 LINE",
"-161 602 OFFCURVE",
"-78 550 OFFCURVE",
"4 550 CURVE SMOOTH"
);
}
);
width = 0;
}
);
unicode = 0306;
},
{
color = 3;
glyphname = caroncomb;
lastChange = "2018-12-16 00:51:22 +0000";
layers = (
{
anchors = (
{
name = _top;
position = "{0, 473}";
}
);
layerId = "3A083A2A-974B-4791-8355-BC872DC0CF17";
paths = (
{
closed = 1;
nodes = (
"63 543 LINE",
"196 712 LINE",
"122 775 LINE",
"3 633 LINE",
"-120 774 LINE",
"-208 695 LINE",
"-62 541 LINE"
);
}
);
width = 0;
}
);
unicode = 030C;
},
{
color = 3;
glyphname = acutecomb.case;
lastChange = "2018-12-16 00:51:22 +0000";
layers = (
{
anchors = (
{
name = _top;
position = "{1, 650}";
}
);
layerId = "3A083A2A-974B-4791-8355-BC872DC0CF17";
paths = (
{
closed = 1;
nodes = (
"-10 721 OFFCURVE",
"82 754 OFFCURVE",
"166 786 CURVE",
"104 910 LINE",
"-140 767 LINE",
"-93 686 LINE"
);
}
);
width = 0;
}
);
},
{
color = 3;
glyphname = brevecomb.case;
lastChange = "2018-12-16 00:51:22 +0000";
layers = (
{
anchors = (
{
name = _top;
position = "{-1, 650}";
}
);
layerId = "3A083A2A-974B-4791-8355-BC872DC0CF17";
paths = (
{
closed = 1;
nodes = (
"85 722 OFFCURVE",
"160 770 OFFCURVE",
"170 881 CURVE",
"59 883 LINE",
"55 835 OFFCURVE",
"28 813 OFFCURVE",
"-5 813 CURVE SMOOTH",
"-36 813 OFFCURVE",
"-63 834 OFFCURVE",
"-70 885 CURVE",
"-169 879 LINE",
"-158 776 OFFCURVE",
"-84 722 OFFCURVE",
"4 722 CURVE SMOOTH"
);
}
);
width = 0;
}
);
},
{
color = 3;
glyphname = caroncomb.case;
lastChange = "2018-12-16 00:51:22 +0000";
layers = (
{
anchors = (
{
name = _top;
position = "{0, 545}";
}
);
layerId = "3A083A2A-974B-4791-8355-BC872DC0CF17";
paths = (
{
closed = 1;
nodes = (
"54 608 LINE",
"204 755 LINE",
"136 816 LINE",
"1 696 LINE",
"-132 816 LINE",
"-212 743 LINE",
"-64 606 LINE"
);
}
);
width = 0;
}
);
},
{
color = 3;
glyphname = circumflexcomb.case;
lastChange = "2018-12-16 00:51:22 +0000";
layers = (
{
anchors = (
{
name = _top;
position = "{0, 545}";
}
);
layerId = "3A083A2A-974B-4791-8355-BC872DC0CF17";
paths = (
{
closed = 1;
nodes = (
"0 713 LINE",
"157 599 LINE",
"216 656 LINE",
"61 821 LINE",
"-59 821 LINE",
"-213 656 LINE",
"-151 599 LINE"
);
}
);
width = 0;
}
);
},
{
color = 3;
glyphname = gravecomb.case;
lastChange = "2018-12-16 00:51:22 +0000";
layers = (
{
anchors = (
{
name = _top;
position = "{-1, 650}";
}
);
layerId = "3A083A2A-974B-4791-8355-BC872DC0CF17";
paths = (
{
closed = 1;
nodes = (
"150 767 LINE",
"-94 910 LINE",
"-156 786 LINE",
"-72 754 OFFCURVE",
"20 721 OFFCURVE",
"103 686 CURVE"
);
}
);
width = 0;
}
);
},
{
color = 3;
glyphname = hungarumlautcomb.case;
lastChange = "2018-12-16 00:51:22 +0000";
layers = (
{
anchors = (
{
name = _top;
position = "{-1, 473}";
}
);
layerId = "3A083A2A-974B-4791-8355-BC872DC0CF17";
paths = (
{
closed = 1;
nodes = (
"160 565 OFFCURVE",
"221 616 OFFCURVE",
"279 659 CURVE",
"184 744 LINE",
"32 583 LINE",
"105 518 LINE"
);
},
{
closed = 1;
nodes = (
"-49 577 OFFCURVE",
"12 630 OFFCURVE",
"71 673 CURVE",
"-24 757 LINE",
"-177 596 LINE",
"-104 532 LINE"
);
}
);
width = 0;
}
);
},
{
color = 3;
glyphname = macroncomb.case;
lastChange = "2018-12-16 00:51:22 +0000";
layers = (
{
anchors = (
{
name = _top;
position = "{1, 650}";
}
);
layerId = "3A083A2A-974B-4791-8355-BC872DC0CF17";
paths = (
{
closed = 1;
nodes = (
"173 742 LINE",
"220 788 LINE",
"215 841 LINE",
"-85 841 LINE",
"-116 841 OFFCURVE",
"-159 836 OFFCURVE",
"-198 816 CURVE",
"-192 742 LINE"
);
}
);
width = 0;
}
);
},
{
color = 3;
glyphname = ogonekcomb.case;
lastChange = "2018-12-16 00:51:22 +0000";
layers = (
{
anchors = (
{
name = _ogonek;
position = "{0, 9}";
}
);
layerId = "3A083A2A-974B-4791-8355-BC872DC0CF17";
paths = (
{
closed = 1;
nodes = (
"3 -208 LINE",
"-21 -158 LINE",
"-100 -205 OFFCURVE",
"-155 -183 OFFCURVE",
"-155 -131 CURVE SMOOTH",
"-155 -79 OFFCURVE",
"-100 -36 OFFCURVE",
"-23 11 CURVE SMOOTH",
"-47 31 LINE",
"-197 -14 OFFCURVE",
"-274 -91 OFFCURVE",
"-274 -163 CURVE SMOOTH",
"-274 -228 OFFCURVE",
"-214 -285 OFFCURVE",
"-123 -275 CURVE"
);
}
);
width = 0;
}
);
},
{
color = 3;
glyphname = tildecomb.case;
lastChange = "2018-12-16 00:51:22 +0000";
layers = (
{
anchors = (
{
name = _top;
position = "{0, 650}";
}
);
layerId = "3A083A2A-974B-4791-8355-BC872DC0CF17";
paths = (
{
closed = 1;
nodes = (
"153 701 OFFCURVE",
"187 753 OFFCURVE",
"244 847 CURVE",
"199 885 LINE",
"112 814 LINE",
"6 869 OFFCURVE",
"-62 902 OFFCURVE",
"-93 902 CURVE SMOOTH",
"-132 902 OFFCURVE",
"-168 850 OFFCURVE",
"-226 763 CURVE",
"-172 723 LINE",
"-138 759 OFFCURVE",
"-112 783 OFFCURVE",
"-93 783 CURVE SMOOTH",
"-57 783 OFFCURVE",
"61 701 OFFCURVE",
"112 701 CURVE SMOOTH"
);
}
);
width = 0;
}
);
},
{
color = 3;
glyphname = cedillacomb;
lastChange = "2018-12-16 00:51:22 +0000";
layers = (
{
anchors = (
{
name = _bottom;
position = "{0, 0}";
}
);
layerId = "3A083A2A-974B-4791-8355-BC872DC0CF17";
paths = (
{
closed = 1;
nodes = (
"51 -269 OFFCURVE",
"121 -207 OFFCURVE",
"125 -146 CURVE SMOOTH",
"129 -101 OFFCURVE",
"76 -57 OFFCURVE",
"-5 -57 CURVE",
"31 6 LINE",
"-36 6 LINE",
"-99 -70 LINE",
"-72 -115 LINE",
"30 -106 OFFCURVE",
"25 -196 OFFCURVE",
"-97 -237 CURVE",
"-78 -271 LINE"
);
}
);
width = 0;
}
);
unicode = 0327;
},
{
color = 3;
glyphname = circumflexcomb;
lastChange = "2018-12-16 00:51:22 +0000";
layers = (
{
anchors = (
{
name = _top;
position = "{0, 473}";
}
);
layerId = "3A083A2A-974B-4791-8355-BC872DC0CF17";
paths = (
{
closed = 1;
nodes = (
"1 643 LINE",
"139 534 LINE",
"194 587 LINE",
"63 743 LINE",
"-52 743 LINE",
"-186 579 LINE",
"-121 529 LINE"
);
}
);
width = 0;
}
);
unicode = 0302;
},
{
color = 3;
glyphname = commaaccentcomb;
lastChange = "2018-12-16 00:51:22 +0000";
layers = (
{
anchors = (
{
name = _bottom;
position = "{0, 0}";
}
);
layerId = "3A083A2A-974B-4791-8355-BC872DC0CF17";
paths = (
{
closed = 1;
nodes = (
"51 -271 OFFCURVE",
"148 -122 OFFCURVE",
"30 -67 CURVE",
"-67 -111 LINE",
"-65 -148 LINE",
"-26 -176 OFFCURVE",
"-33 -227 OFFCURVE",
"-71 -277 CURVE",
"-19 -314 LINE"
);
}
);
width = 0;
}
);
unicode = 0326;
},
{
color = 3;
glyphname = dieresiscomb;
lastChange = "2018-12-16 00:51:22 +0000";
layers = (
{
anchors = (
{
name = _top;
position = "{0, 473}";
}
);
layerId = "3A083A2A-974B-4791-8355-BC872DC0CF17";
paths = (
{
closed = 1;
nodes = (
"172 570 OFFCURVE",
"198 601 OFFCURVE",
"212 644 CURVE",
"200 687 OFFCURVE",
"160 721 OFFCURVE",
"116 739 CURVE",
"73 716 OFFCURVE",
"40 680 OFFCURVE",
"32 629 CURVE",
"53 590 OFFCURVE",
"85 564 OFFCURVE",
"131 549 CURVE"
);
},
{
closed = 1;
nodes = (
"-72 570 OFFCURVE",
"-46 601 OFFCURVE",
"-32 644 CURVE",
"-44 687 OFFCURVE",
"-83 721 OFFCURVE",
"-128 739 CURVE",
"-171 716 OFFCURVE",
"-204 680 OFFCURVE",
"-211 629 CURVE",
"-190 590 OFFCURVE",
"-159 564 OFFCURVE",
"-112 549 CURVE"
);
}
);
width = 0;
}
);
unicode = 0308;
},
{
color = 3;
glyphname = dotaccentcomb;
lastChange = "2018-12-16 00:51:22 +0000";
layers = (
{
anchors = (
{
name = _top;
position = "{0, 473}";
}
);
layerId = "3A083A2A-974B-4791-8355-BC872DC0CF17";
paths = (
{
closed = 1;
nodes = (
"53 570 OFFCURVE",
"79 602 OFFCURVE",
"92 644 CURVE",
"82 685 OFFCURVE",
"42 721 OFFCURVE",
"-3 739 CURVE",
"-46 716 OFFCURVE",
"-80 680 OFFCURVE",
"-87 629 CURVE",
"-66 589 OFFCURVE",
"-34 563 OFFCURVE",
"13 549 CURVE"
);
}
);
width = 0;
}
);
unicode = 0307;
},
{
color = 3;
glyphname = dotbelowcomb;
lastChange = "2018-12-16 00:51:22 +0000";
layers = (
{
anchors = (
{
name = _bottom;
position = "{0, 0}";
}
);
layerId = "3A083A2A-974B-4791-8355-BC872DC0CF17";
paths = (
{
closed = 1;
nodes = (
"53 -268 OFFCURVE",
"79 -235 OFFCURVE",
"92 -194 CURVE",
"82 -153 OFFCURVE",
"42 -117 OFFCURVE",
"-3 -98 CURVE",
"-46 -121 OFFCURVE",
"-80 -158 OFFCURVE",
"-87 -209 CURVE",
"-66 -248 OFFCURVE",
"-34 -274 OFFCURVE",
"13 -289 CURVE"
);
}
);
width = 0;
}
);
unicode = 0323;
},
{
color = 3;
glyphname = gravecomb;
layers = (
{
anchors = (
{
name = _top;
position = "{0, 473}";
}
);
layerId = "3A083A2A-974B-4791-8355-BC872DC0CF17";
paths = (
{
closed = 1;
nodes = (
"100 602 LINE",
"-54 790 LINE",
"-162 695 LINE",
"-102 647 OFFCURVE",
"-43 588 OFFCURVE",
"13 534 CURVE"
);
}
);
width = 0;
}
);
unicode = 0300;
},
{
color = 3;
glyphname = hungarumlautcomb;
lastChange = "2018-12-16 00:51:22 +0000";
layers = (
{
anchors = (
{
name = _top;
position = "{0, 473}";
}
);
layerId = "3A083A2A-974B-4791-8355-BC872DC0CF17";
paths = (
{
closed = 1;
nodes = (
"159 587 OFFCURVE",
"217 648 OFFCURVE",
"274 697 CURVE",
"169 774 LINE",
"28 592 LINE",
"106 534 LINE"
);
},
{
closed = 1;
nodes = (
"-51 587 OFFCURVE",
"7 648 OFFCURVE",
"64 697 CURVE",
"-41 774 LINE",
"-182 592 LINE",
"-104 534 LINE"
);
}
);
width = 0;
}
);
unicode = 030B;
},
{
color = 3;
glyphname = macronbelowcomb;
lastChange = "2018-12-16 00:51:22 +0000";
layers = (
{
anchors = (
{
name = _bottom;
position = "{0, 0}";
}
);
layerId = "3A083A2A-974B-4791-8355-BC872DC0CF17";
paths = (
{
closed = 1;
nodes = (
"146 -234 LINE",
"193 -188 LINE",
"188 -135 LINE",
"-78 -135 LINE",
"-109 -135 OFFCURVE",
"-152 -142 OFFCURVE",
"-191 -160 CURVE",
"-185 -234 LINE"
);
}
);
width = 0;
}
);
unicode = 0331;
},
{
color = 3;
glyphname = macroncomb;
lastChange = "2018-12-16 00:51:22 +0000";
layers = (
{
anchors = (
{
name = _top;
position = "{1, 473}";
}
);
layerId = "3A083A2A-974B-4791-8355-BC872DC0CF17";
paths = (
{
closed = 1;
nodes = (
"151 567 LINE",
"198 613 LINE",
"193 666 LINE",
"-53 666 LINE",
"-84 666 OFFCURVE",
"-127 660 OFFCURVE",
"-166 641 CURVE",
"-160 567 LINE"
);
}
);
width = 0;
}
);
unicode = 0304;
},
{
color = 3;
glyphname = ogonekcomb;
lastChange = "2018-12-16 00:51:22 +0000";
layers = (
{
anchors = (
{
name = _ogonek;
position = "{0, 9}";
}
);
layerId = "3A083A2A-974B-4791-8355-BC872DC0CF17";
paths = (
{
closed = 1;
nodes = (
"36 -190 LINE",
"13 -139 LINE",
"-67 -185 OFFCURVE",
"-122 -163 OFFCURVE",
"-122 -111 CURVE SMOOTH",
"-122 -59 OFFCURVE",
"-67 -17 OFFCURVE",
"10 29 CURVE SMOOTH",
"-14 51 LINE",
"-164 5 OFFCURVE",
"-241 -71 OFFCURVE",
"-241 -144 CURVE SMOOTH",
"-241 -208 OFFCURVE",
"-181 -266 OFFCURVE",
"-90 -256 CURVE"
);
}
);
width = 0;
}
);
unicode = 0328;
},
{
color = 3;
glyphname = ringcomb;
lastChange = "2018-12-16 00:51:22 +0000";
layers = (
{
anchors = (
{
name = _top;
position = "{0, 650}";
}
);
layerId = "3A083A2A-974B-4791-8355-BC872DC0CF17";
paths = (
{
closed = 1;
nodes = (
"74 710 OFFCURVE",
"123 759 OFFCURVE",
"123 829 CURVE SMOOTH",
"123 903 OFFCURVE",
"69 956 OFFCURVE",
"0 956 CURVE SMOOTH",
"-71 956 OFFCURVE",
"-123 902 OFFCURVE",
"-123 832 CURVE SMOOTH",
"-123 758 OFFCURVE",
"-66 710 OFFCURVE",
"4 710 CURVE SMOOTH"
);
},
{
closed = 1;
nodes = (
"-30 758 OFFCURVE",
"-58 780 OFFCURVE",
"-58 816 CURVE SMOOTH",
"-58 849 OFFCURVE",
"-33 874 OFFCURVE",
"1 874 CURVE SMOOTH",
"33 874 OFFCURVE",
"59 850 OFFCURVE",
"59 815 CURVE SMOOTH",
"59 781 OFFCURVE",
"35 758 OFFCURVE",
"2 758 CURVE SMOOTH"
);
}
);
width = 0;
}
);
unicode = 030A;
},
{
color = 3;
glyphname = tildecomb;
lastChange = "2018-12-16 00:51:22 +0000";
layers = (
{
anchors = (
{
name = _top;
position = "{0, 473}";
}
);
layerId = "3A083A2A-974B-4791-8355-BC872DC0CF17";
paths = (
{
closed = 1;
nodes = (
"140 544 OFFCURVE",
"187 600 OFFCURVE",
"236 696 CURVE",
"182 735 LINE",
"100 652 LINE",
"48 691 OFFCURVE",
"-35 742 OFFCURVE",
"-65 742 CURVE",
"-115 742 OFFCURVE",
"-148 705 OFFCURVE",
"-214 594 CURVE",
"-157 550 LINE",
"-115 601 OFFCURVE",
"-91 628 OFFCURVE",
"-70 628 CURVE SMOOTH",
"-34 628 OFFCURVE",
"47 544 OFFCURVE",
"98 544 CURVE SMOOTH"
);
}
);
width = 0;
}
);
unicode = 0303;
},
{
color = 3;
glyphname = caroncomb.calt;
lastChange = "2018-12-16 00:51:22 +0000";
layers = (
{
anchors = (
{
name = _topright;
position = "{0, 591}";
}
);
layerId = "3A083A2A-974B-4791-8355-BC872DC0CF17";
paths = (
{
closed = 1;
nodes = (
"145 529 OFFCURVE",
"201 659 OFFCURVE",
"128 757 CURVE",
"0 700 LINE",
"0 652 LINE",
"54 639 OFFCURVE",
"37 567 OFFCURVE",
"-19 483 CURVE",
"35 440 LINE"
);
}
);
width = 0;
}
);
},
{
glyphname = dvA;
lastChange = "2018-12-16 00:51:22 +0000";
layers = (
{
anchors = (
{
name = abvmBINDU;
position = "{698, 660}";
},
{
name = abvmCANDRABINDU;
position = "{679, 660}";
}
);
layerId = "3A083A2A-974B-4791-8355-BC872DC0CF17";
paths = (
{
closed = 1;
nodes = (
"470 -9 OFFCURVE",
"530 79 OFFCURVE",
"530 167 CURVE SMOOTH",
"530 237 OFFCURVE",
"491 328 OFFCURVE",
"372 382 CURVE",
"330 417 LINE",
"277 426 OFFCURVE",
"206 402 OFFCURVE",
"163 364 CURVE",
"253 229 LINE",
"394 314 LINE",
"304 295 LINE",
"375 302 OFFCURVE",
"403 252 OFFCURVE",
"403 214 CURVE SMOOTH",
"403 174 OFFCURVE",
"369 129 OFFCURVE",
"302 129 CURVE SMOOTH",
"217 129 OFFCURVE",
"154 202 OFFCURVE",
"96 326 CURVE",
"16 275 LINE",
"124 38 OFFCURVE",
"256 -9 OFFCURVE",
"346 -9 CURVE SMOOTH"
);
},
{
closed = 1;
nodes = (
"457 360 OFFCURVE",
"492 428 OFFCURVE",
"492 480 CURVE SMOOTH",
"492 562 OFFCURVE",
"403 668 OFFCURVE",
"288 668 CURVE SMOOTH",
"214 668 OFFCURVE",
"142 623 OFFCURVE",
"93 571 CURVE",
"178 460 LINE",
"237 517 OFFCURVE",
"309 556 OFFCURVE",
"361 551 CURVE",
"367 545 OFFCURVE",
"371 536 OFFCURVE",
"371 525 CURVE SMOOTH",
"371 478 OFFCURVE",
"321 419 OFFCURVE",
"231 391 CURVE",
"389 321 LINE"
);
},
{
closed = 1;
nodes = (
"639 382 LINE",
"611 326 OFFCURVE",
"492 298 OFFCURVE",
"416 377 CURVE",
"407 299 LINE",
"507 210 OFFCURVE",
"584 190 OFFCURVE",
"632 214 CURVE"
);
},
{
closed = 1;
nodes = (
"784 -21 LINE",
"784 490 LINE",
"680 564 LINE",
"624 590 LINE",
"624 19 LINE",
"738 -43 LINE"
);
},
{
closed = 1;
nodes = (
"894 538 LINE",
"915 580 LINE",
"859 655 LINE",
"511 655 LINE",
"490 613 LINE",
"546 538 LINE"
);
}
);
width = 859;
}
);
unicode = 0905;
},
{
glyphname = dvI;
lastChange = "2019-02-26 16:50:53 +0000";
layers = (
{
anchors = (
{
name = abvmBINDU;
position = "{390, 660}";
},
{
name = abvmCANDRABINDU;
position = "{362, 660}";
}
);
layerId = "3A083A2A-974B-4791-8355-BC872DC0CF17";
paths = (
{
closed = 1;
nodes = (
"375 -70 OFFCURVE",
"552 -31 OFFCURVE",
"552 114 CURVE SMOOTH",
"552 194 OFFCURVE",
"497 272 OFFCURVE",
"390 311 CURVE",
"186 270 LINE",
"175 281 OFFCURVE",
"168 292 OFFCURVE",
"168 305 CURVE SMOOTH",
"168 332 OFFCURVE",
"195 353 OFFCURVE",
"237 353 CURVE SMOOTH",
"490 353 LINE",
"399 481 LINE",
"216 481 LINE SMOOTH",
"93 481 OFFCURVE",
"33 420 OFFCURVE",
"33 351 CURVE SMOOTH",
"33 266 OFFCURVE",
"126 173 OFFCURVE",
"273 131 CURVE",
"434 173 LINE",
"430 100 OFFCURVE",
"304 25 OFFCURVE",
"193 65 CURVE",
"250 36 LINE",
"176 145 LINE",
"102 146 LINE",
"67 11 LINE",
"138 -40 OFFCURVE",
"207 -70 OFFCURVE",
"285 -70 CURVE SMOOTH"
);
},
{
closed = 1;
nodes = (
"454 -171 LINE",
"231 17 LINE",
"158 17 LINE",
"334 -258 LINE"
);
},
{
closed = 1;
nodes = (
"620 538 LINE",
"641 580 LINE",
"584 655 LINE",
"-36 655 LINE",
"-57 613 LINE",
"0 538 LINE"
);
},
{
closed = 1;
nodes = (
"490 490 LINE",
"386 564 LINE",
"346 590 LINE",
"346 369 LINE",
"490 353 LINE"
);
}
);
width = 585;
}
);
leftKerningGroup = Dda;
rightKerningGroup = Da;
unicode = 0907;
},
{
glyphname = dvU;
lastChange = "2018-12-16 00:51:22 +0000";
layers = (
{
anchors = (
{
name = abvmBINDU;
position = "{329, 660}";
},
{
name = abvmCANDRABINDU;
position = "{312, 660}";
}
);
layerId = "3A083A2A-974B-4791-8355-BC872DC0CF17";
paths = (
{
closed = 1;
nodes = (
"463 -44 OFFCURVE",
"542 48 OFFCURVE",
"542 151 CURVE SMOOTH",
"542 238 OFFCURVE",
"484 330 OFFCURVE",
"369 370 CURVE",
"324 407 LINE",
"270 416 OFFCURVE",
"196 392 OFFCURVE",
"151 352 CURVE",
"245 211 LINE",
"391 299 LINE",
"298 279 LINE",
"364 285 OFFCURVE",
"398 236 OFFCURVE",
"398 192 CURVE SMOOTH",
"398 143 OFFCURVE",
"358 96 OFFCURVE",
"291 96 CURVE SMOOTH",
"201 96 OFFCURVE",
"138 180 OFFCURVE",
"81 302 CURVE",
"-3 256 LINE",
"106 16 OFFCURVE",
"228 -44 OFFCURVE",
"333 -44 CURVE SMOOTH"
);
},
{
closed = 1;
nodes = (
"453 337 OFFCURVE",
"476 390 OFFCURVE",
"476 434 CURVE SMOOTH",
"476 502 OFFCURVE",
"423 553 OFFCURVE",
"344 594 CURVE",
"262 560 LINE",
"312 534 OFFCURVE",
"333 507 OFFCURVE",
"333 474 CURVE SMOOTH",
"333 430 OFFCURVE",
"295 399 OFFCURVE",
"227 381 CURVE",
"389 303 LINE"
);
},
{
closed = 1;
nodes = (
"618 538 LINE",
"639 580 LINE",
"583 655 LINE",
"-36 655 LINE",
"-57 613 LINE",
"0 538 LINE"
);
}
);
width = 583;
}
);
unicode = 0909;
},
{
glyphname = dvUu;
lastChange = "2019-02-26 16:50:53 +0000";
layers = (
{
anchors = (
{
name = abvmBINDU;
position = "{384, 660}";
},
{
name = abvmCANDRABINDU;
position = "{400, 660}";
}
);
components = (
{
name = dvU;
}
);
layerId = "3A083A2A-974B-4791-8355-BC872DC0CF17";
paths = (
{
closed = 1;
nodes = (
"786 58 OFFCURVE",
"838 129 OFFCURVE",
"838 208 CURVE SMOOTH",
"838 309 OFFCURVE",
"752 416 OFFCURVE",
"641 416 CURVE SMOOTH",
"570 416 OFFCURVE",
"504 371 OFFCURVE",
"436 286 CURVE",
"518 164 LINE",
"584 244 OFFCURVE",
"646 289 OFFCURVE",
"684 289 CURVE SMOOTH",
"705 289 OFFCURVE",
"717 276 OFFCURVE",
"717 260 CURVE SMOOTH",
"717 220 OFFCURVE",
"650 163 OFFCURVE",
"589 114 CURVE",
"697 -4 LINE"
);
},
{
closed = 1;
nodes = (
"891 538 LINE",
"912 580 LINE",
"855 655 LINE",
"380 655 LINE",
"359 613 LINE",
"415 538 LINE"
);
}
);
width = 855;
}
);
rightKerningGroup = Ka;
unicode = 090A;
},
{
glyphname = dvVocalicR;
lastChange = "2018-12-16 00:51:22 +0000";
layers = (
{
anchors = (
{
name = abvmBINDU;
position = "{497, 660}";
},
{
name = abvmCANDRABINDU;
position = "{504, 660}";
},
{
name = abvmTOP;
position = "{492, 473}";
},
{
name = blwmBOTTOM;
position = "{385, 1}";
}
);
components = (
{
name = dvTRa;
transform = "{1, 0, 0, 1, 4, 0}";
}
);
layerId = "3A083A2A-974B-4791-8355-BC872DC0CF17";
paths = (
{
closed = 1;
nodes = (
"879 -20 OFFCURVE",
"926 57 OFFCURVE",
"926 122 CURVE SMOOTH",
"926 196 OFFCURVE",
"866 274 OFFCURVE",
"784 355 CURVE",
"735 288 LINE",
"769 254 OFFCURVE",
"792 218 OFFCURVE",
"792 184 CURVE SMOOTH",
"792 147 OFFCURVE",
"764 112 OFFCURVE",
"690 91 CURVE",
"681 46 LINE",
"764 -41 LINE"
);
},
{
closed = 1;
nodes = (
"698 154 OFFCURVE",
"797 221 OFFCURVE",
"813 295 CURVE",
"759 416 LINE",
"750 341 OFFCURVE",
"687 293 OFFCURVE",
"614 293 CURVE SMOOTH",
"579 293 OFFCURVE",
"543 304 OFFCURVE",
"509 327 CURVE",
"509 171 LINE",
"538 159 OFFCURVE",
"568 154 OFFCURVE",
"597 154 CURVE SMOOTH"
);
},
{
closed = 1;
nodes = (
"746 334 LINE",
"812 293 LINE",
"852 336 OFFCURVE",
"850 416 OFFCURVE",
"821 465 CURVE",
"673 469 LINE",
"646 418 LINE",
"756 254 LINE"
);
},
{
closed = 1;
nodes = (
"967 538 LINE",
"988 580 LINE",
"932 655 LINE",
"348 655 LINE",
"327 613 LINE",
"383 538 LINE"
);
}
);
width = 932;
}
);
unicode = 090B;
},
{
glyphname = dvVocalicR.ss06;
lastChange = "2018-12-16 00:51:22 +0000";
layers = (
{
anchors = (
{
name = abvmBINDU;
position = "{497, 660}";
},
{
name = abvmCANDRABINDU;
position = "{504, 660}";
},
{
name = abvmTOP;
position = "{492, 473}";
},
{
name = blwmBOTTOM;
position = "{385, 1}";
}
);
components = (
{
name = dvTRa;
transform = "{1, 0, 0, 1, 4, 0}";
}
);
layerId = "3A083A2A-974B-4791-8355-BC872DC0CF17";
paths = (
{
closed = 1;
nodes = (
"910 -131 OFFCURVE",
"967 -99 OFFCURVE",
"1005 -59 CURVE",
"931 64 LINE",
"895 28 OFFCURVE",
"822 -9 OFFCURVE",
"784 -9 CURVE SMOOTH",
"763 -9 OFFCURVE",
"752 2 OFFCURVE",
"752 16 CURVE SMOOTH",
"752 49 OFFCURVE",
"833 75 OFFCURVE",
"892 89 CURVE",
"916 137 LINE",
"857 220 LINE",
"730 197 OFFCURVE",
"637 145 OFFCURVE",
"637 56 CURVE SMOOTH",
"637 -39 OFFCURVE",
"739 -131 OFFCURVE",
"846 -131 CURVE SMOOTH"
);
},
{
closed = 1;
nodes = (
"697 171 OFFCURVE",
"797 239 OFFCURVE",
"813 313 CURVE",
"758 419 LINE",
"750 341 OFFCURVE",
"684 295 OFFCURVE",
"612 295 CURVE SMOOTH",
"576 295 OFFCURVE",
"539 306 OFFCURVE",
"506 329 CURVE",
"506 189 LINE",
"535 177 OFFCURVE",
"568 171 OFFCURVE",
"596 171 CURVE SMOOTH"
);
},
{
closed = 1;
nodes = (
"792 358 LINE",
"735 291 LINE",
"818 155 LINE",
"916 137 LINE"
);
},
{
closed = 1;
nodes = (
"746 336 LINE",
"812 296 LINE",
"852 339 OFFCURVE",
"850 418 OFFCURVE",
"821 468 CURVE",
"673 472 LINE",
"646 420 LINE",
"756 256 LINE"
);
},
{
closed = 1;
nodes = (
"976 538 LINE",
"997 580 LINE",
"941 655 LINE",
"348 655 LINE",
"327 613 LINE",
"383 538 LINE"
);
}
);
width = 942;
}
);
},
{
glyphname = dvVocalicRr;
lastChange = "2018-12-16 00:51:22 +0000";
layers = (
{
anchors = (
{
name = abvmBINDU;
position = "{497, 660}";
},
{
name = abvmCANDRABINDU;
position = "{504, 660}";
},
{
name = abvmTOP;
position = "{492, 473}";
},
{
name = blwmBOTTOM;
position = "{385, 1}";
}
);
components = (
{
name = dvTRa;
transform = "{1, 0, 0, 1, 4, 0}";
}
);
layerId = "3A083A2A-974B-4791-8355-BC872DC0CF17";
paths = (
{
closed = 1;
nodes = (
"967 -256 OFFCURVE",
"1023 -224 OFFCURVE",
"1060 -185 CURVE",
"987 -70 LINE",
"956 -107 OFFCURVE",
"884 -144 OFFCURVE",
"846 -144 CURVE SMOOTH",
"828 -144 OFFCURVE",
"819 -135 OFFCURVE",
"819 -126 CURVE SMOOTH",
"819 -105 OFFCURVE",
"862 -80 OFFCURVE",
"951 -62 CURVE",
"973 -18 LINE",
"915 63 LINE",
"792 38 OFFCURVE",
"703 -10 OFFCURVE",
"703 -89 CURVE SMOOTH",
"703 -171 OFFCURVE",
"796 -256 OFFCURVE",
"901 -256 CURVE SMOOTH"
);
},
{
closed = 1;
nodes = (
"766 -10 LINE",
"745 -4 OFFCURVE",
"734 7 OFFCURVE",
"734 20 CURVE SMOOTH",
"734 55 OFFCURVE",
"822 84 OFFCURVE",
"892 96 CURVE",
"916 144 LINE",
"857 219 LINE",
"733 197 OFFCURVE",
"618 155 OFFCURVE",
"618 66 CURVE SMOOTH",
"618 11 OFFCURVE",
"661 -32 OFFCURVE",
"727 -62 CURVE"
);
},
{
closed = 1;
nodes = (
"697 179 OFFCURVE",
"797 239 OFFCURVE",
"813 313 CURVE",
"758 419 LINE",
"750 341 OFFCURVE",
"684 302 OFFCURVE",
"613 302 CURVE SMOOTH",
"575 302 OFFCURVE",
"539 314 OFFCURVE",
"506 337 CURVE",
"506 196 LINE",
"535 184 OFFCURVE",
"567 179 OFFCURVE",
"597 179 CURVE SMOOTH"
);
},
{
closed = 1;
nodes = (
"916 144 LINE",
"792 358 LINE",
"735 291 LINE",
"836 128 LINE"
);
},
{
closed = 1;
nodes = (
"746 336 LINE",
"812 296 LINE",
"852 339 OFFCURVE",
"850 418 OFFCURVE",
"821 468 CURVE",
"673 472 LINE",
"646 420 LINE",
"756 256 LINE"
);
},
{
closed = 1;
nodes = (
"991 538 LINE",
"1012 580 LINE",
"956 655 LINE",
"348 655 LINE",
"327 613 LINE",
"383 538 LINE"
);
}
);
width = 948;
}
);
unicode = 0960;
},
{
glyphname = dvVocalicL;
lastChange = "2019-02-26 16:50:53 +0000";
layers = (
{
anchors = (
{
name = abvmBINDU;
position = "{527, 660}";
},
{
name = abvmCANDRABINDU;
position = "{478, 660}";
},
{
name = abvmTOP;
position = "{503, 473}";
},
{
name = blwmBOTTOM;
position = "{362, 1}";
}
);
layerId = "3A083A2A-974B-4791-8355-BC872DC0CF17";
paths = (
{
closed = 1;
nodes = (
"731 -181 OFFCURVE",
"787 -128 OFFCURVE",
"824 -46 CURVE",
"714 52 LINE",
"687 -3 OFFCURVE",
"645 -67 OFFCURVE",
"605 -67 CURVE SMOOTH",
"589 -67 OFFCURVE",
"575 -56 OFFCURVE",
"575 -36 CURVE SMOOTH",
"575 15 OFFCURVE",
"733 122 OFFCURVE",
"733 257 CURVE SMOOTH",
"733 362 OFFCURVE",
"636 463 OFFCURVE",
"512 463 CURVE SMOOTH",
"393 463 OFFCURVE",
"276 371 OFFCURVE",
"286 194 CURVE",
"405 120 LINE",
"442 145 LINE",
"438 254 OFFCURVE",
"483 351 OFFCURVE",
"534 351 CURVE SMOOTH",
"569 351 OFFCURVE",
"583 323 OFFCURVE",
"583 293 CURVE SMOOTH",
"583 196 OFFCURVE",
"444 127 OFFCURVE",
"444 17 CURVE SMOOTH",
"444 -79 OFFCURVE",
"547 -181 OFFCURVE",
"654 -181 CURVE SMOOTH"
);
},
{
closed = 1;
nodes = (
"370 31 LINE",
"256 102 OFFCURVE",
"185 158 OFFCURVE",
"185 233 CURVE SMOOTH",
"185 288 OFFCURVE",
"223 323 OFFCURVE",
"269 323 CURVE SMOOTH",
"295 323 OFFCURVE",
"324 312 OFFCURVE",
"348 290 CURVE",
"375 258 LINE",
"404 325 LINE",
"254 455 LINE",
"235 463 OFFCURVE",
"213 467 OFFCURVE",
"192 467 CURVE SMOOTH",
"109 467 OFFCURVE",
"18 409 OFFCURVE",
"18 293 CURVE SMOOTH",
"18 179 OFFCURVE",
"105 63 OFFCURVE",
"309 -51 CURVE"
);
},
{
closed = 1;
nodes = (
"836 538 LINE",
"857 580 LINE",
"801 655 LINE",
"-36 655 LINE",
"-57 613 LINE",
"0 538 LINE"
);
},
{
closed = 1;
nodes = (
"603 490 LINE",
"499 564 LINE",
"448 590 LINE",
"448 395 LINE",
"603 362 LINE"
);
}
);
width = 801;
}
);
leftKerningGroup = La;
rightKerningGroup = LaMAR;
unicode = 090C;
},
{
glyphname = dvVocalicLl;
lastChange = "2019-02-26 16:50:53 +0000";
layers = (
{
anchors = (
{
name = abvmBINDU;
position = "{527, 660}";
},
{
name = abvmCANDRABINDU;
position = "{478, 660}";
},
{
name = abvmTOP;
position = "{503, 473}";
},
{
name = blwmBOTTOM;
position = "{362, 1}";
}
);
layerId = "3A083A2A-974B-4791-8355-BC872DC0CF17";
paths = (
{
closed = 1;
nodes = (
"630 -88 LINE",
"590 -82 OFFCURVE",
"566 -67 OFFCURVE",
"566 -39 CURVE SMOOTH",
"566 13 OFFCURVE",
"733 120 OFFCURVE",
"733 257 CURVE SMOOTH",
"733 361 OFFCURVE",
"636 463 OFFCURVE",
"512 463 CURVE SMOOTH",
"393 463 OFFCURVE",
"276 371 OFFCURVE",
"286 194 CURVE",
"405 120 LINE",
"442 145 LINE",
"438 254 OFFCURVE",
"483 351 OFFCURVE",
"534 351 CURVE SMOOTH",
"569 351 OFFCURVE",
"583 323 OFFCURVE",
"583 292 CURVE SMOOTH",
"583 192 OFFCURVE",
"440 124 OFFCURVE",
"440 7 CURVE SMOOTH",
"440 -69 OFFCURVE",
"503 -134 OFFCURVE",
"595 -161 CURVE"
);
},
{
closed = 1;
nodes = (
"370 31 LINE",
"256 102 OFFCURVE",
"185 158 OFFCURVE",
"185 233 CURVE SMOOTH",
"185 288 OFFCURVE",
"223 323 OFFCURVE",
"269 323 CURVE SMOOTH",
"295 323 OFFCURVE",
"324 312 OFFCURVE",
"348 290 CURVE",
"375 258 LINE",
"404 325 LINE",
"254 455 LINE",
"235 463 OFFCURVE",
"213 467 OFFCURVE",
"192 467 CURVE SMOOTH",
"109 467 OFFCURVE",
"18 409 OFFCURVE",
"18 293 CURVE SMOOTH",
"18 179 OFFCURVE",
"105 63 OFFCURVE",
"309 -51 CURVE"
);
},
{
closed = 1;
nodes = (
"812 -299 OFFCURVE",
"868 -259 OFFCURVE",
"908 -189 CURVE",
"819 -100 LINE",
"785 -159 OFFCURVE",
"728 -195 OFFCURVE",
"701 -195 CURVE SMOOTH",
"688 -195 OFFCURVE",
"681 -186 OFFCURVE",
"681 -177 CURVE SMOOTH",
"681 -157 OFFCURVE",
"712 -124 OFFCURVE",
"787 -84 CURVE",
"796 -42 LINE",
"716 32 LINE",
"629 -3 OFFCURVE",
"560 -64 OFFCURVE",
"560 -134 CURVE SMOOTH",
"560 -210 OFFCURVE",
"642 -299 OFFCURVE",
"743 -299 CURVE SMOOTH"
);
},
{
closed = 1;
nodes = (
"836 538 LINE",
"857 580 LINE",
"801 655 LINE",
"-36 655 LINE",
"-57 613 LINE",
"0 538 LINE"
);
},
{
closed = 1;
nodes = (
"603 490 LINE",
"499 564 LINE",
"448 590 LINE",
"448 395 LINE",
"603 362 LINE"
);
}
);
width = 801;
}
);
leftKerningGroup = La;
rightKerningGroup = LaMAR;
unicode = 0961;
},
{
glyphname = dvE;
lastChange = "2018-12-16 00:51:22 +0000";
layers = (
{
anchors = (
{
name = abvmBINDU;
position = "{301, 660}";
},
{
name = abvmCANDRABINDU;
position = "{316, 660}";
}
);
layerId = "3A083A2A-974B-4791-8355-BC872DC0CF17";
paths = (
{
closed = 1;
nodes = (
"613 -197 OFFCURVE",
"629 -156 OFFCURVE",
"629 -117 CURVE SMOOTH",
"629 -44 OFFCURVE",
"570 6 OFFCURVE",
"414 80 CURVE SMOOTH",
"211 178 LINE",
"211 490 LINE",
"106 565 LINE",
"49 589 LINE",
"49 299 LINE",
"49 185 OFFCURVE",
"118 107 OFFCURVE",
"212 61 CURVE SMOOTH",
"414 -37 LINE SMOOTH",
"473 -68 OFFCURVE",
"483 -101 OFFCURVE",
"436 -164 CURVE",
"581 -229 LINE"
);
},
{
closed = 1;
nodes = (
"494 160 OFFCURVE",
"544 205 OFFCURVE",
"544 340 CURVE SMOOTH",
"544 490 LINE",
"439 565 LINE",
"384 590 LINE",
"384 272 LINE",
"320 223 LINE",
"397 117 LINE"
);
},
{
closed = 1;
nodes = (
"639 538 LINE",
"660 580 LINE",
"604 655 LINE",
"-36 655 LINE",
"-57 613 LINE",
"0 538 LINE"
);
}
);
width = 604;
}
);
unicode = 090F;
},
{
glyphname = dvOE;
lastChange = "2018-12-16 00:51:22 +0000";
layers = (
{
components = (
{
name = dvA;
}
);
layerId = "3A083A2A-974B-4791-8355-BC872DC0CF17";
paths = (
{
closed = 1;
nodes = (
"749 578 LINE",
"749 835 LINE",
"638 835 LINE",
"638 602 LINE",
"719 561 LINE"
);
}
);
width = 859;
}
);
unicode = 0973;
},
{
glyphname = dvOOE;
lastChange = "2018-12-16 00:51:22 +0000";
layers = (
{
components = (
{
name = dvAa;
}
);
layerId = "3A083A2A-974B-4791-8355-BC872DC0CF17";
paths = (
{
closed = 1;
nodes = (
"1050 578 LINE",
"1050 835 LINE",
"939 835 LINE",
"939 602 LINE",
"1020 561 LINE"
);
}
);
width = 1162;
}
);
unicode = 0974;
},
{
glyphname = dvKa;
lastChange = "2019-02-26 16:50:53 +0000";
layers = (
{
anchors = (
{
name = abvmBINDU;
position = "{404, 660}";
},
{
name = abvmCANDRABINDU;
position = "{444, 660}";
},
{
name = abvmCANDRABINDU2;
position = "{743, 660}";
},
{
name = abvmTOP;
position = "{433, 473}";
},
{
name = blwmBOTTOM;
position = "{309, 1}";
}
);
layerId = "3A083A2A-974B-4791-8355-BC872DC0CF17";
paths = (
{
closed = 1;
nodes = (
"733 54 OFFCURVE",
"796 136 OFFCURVE",
"796 230 CURVE SMOOTH",
"796 343 OFFCURVE",
"706 445 OFFCURVE",
"597 445 CURVE SMOOTH",
"500 445 OFFCURVE",
"429 361 OFFCURVE",
"381 272 CURVE",
"445 146 LINE",
"500 229 OFFCURVE",
"578 299 OFFCURVE",
"625 299 CURVE SMOOTH",
"650 299 OFFCURVE",
"660 283 OFFCURVE",
"660 263 CURVE SMOOTH",
"660 215 OFFCURVE",
"599 164 OFFCURVE",
"518 103 CURVE",
"630 -14 LINE"
);
},
{
closed = 1;
nodes = (
"345 87 OFFCURVE",
"386 118 OFFCURVE",
"425 163 CURVE",
"353 311 LINE",
"318 236 OFFCURVE",
"245 199 OFFCURVE",
"193 203 CURVE",
"150 256 OFFCURVE",
"188 353 OFFCURVE",
"275 353 CURVE SMOOTH",
"314 353 OFFCURVE",
"355 333 OFFCURVE",
"402 300 CURVE",
"421 374 LINE",
"241 469 LINE",
"104 493 OFFCURVE",
"20 404 OFFCURVE",
"20 304 CURVE SMOOTH",
"20 168 OFFCURVE",
"175 87 OFFCURVE",
"280 87 CURVE SMOOTH"
);
},
{
closed = 1;
nodes = (
"489 -21 LINE",
"489 490 LINE",
"385 564 LINE",
"329 590 LINE",
"329 19 LINE",
"443 -43 LINE"
);
},
{
closed = 1;
nodes = (
"850 538 LINE",
"871 580 LINE",
"815 655 LINE",
"-36 655 LINE",
"-57 613 LINE",
"0 538 LINE"
);
}
);
width = 815;
}
);
leftKerningGroup = Ka;
rightKerningGroup = Ka;
unicode = 0915;
},
{
color = 5;
glyphname = dvKha;
lastChange = "2019-02-26 16:50:53 +0000";
layers = (
{
anchors = (
{
name = abvmBINDU;
position = "{516, 660}";
},
{
name = abvmCANDRABINDU;
position = "{536, 660}";
},
{
name = abvmCANDRABINDU2;
position = "{988, 660}";
},
{
name = abvmTOP;
position = "{721, 473}";
},
{
name = blwmBOTTOM;
position = "{629, -78}";
}
);
layerId = "3A083A2A-974B-4791-8355-BC872DC0CF17";
paths = (
{
closed = 1;
nodes = (
"570 -47 OFFCURVE",
"662 -19 OFFCURVE",
"717 39 CURVE",
"674 143 LINE",
"630 99 OFFCURVE",
"551 70 OFFCURVE",
"466 70 CURVE",
"348 70 OFFCURVE",
"230 130 OFFCURVE",
"195 252 CURVE",
"263 354 LINE",
"63 355 LINE",
"29 275 LINE",
"118 69 OFFCURVE",
"301 -47 OFFCURVE",
"480 -47 CURVE"
);
},
{
closed = 1;
nodes = (
"268 220 LINE SMOOTH",
"327 261 OFFCURVE",
"356 295 OFFCURVE",
"356 360 CURVE SMOOTH",
"356 490 LINE",
"254 562 LINE",
"198 588 LINE",
"198 370 LINE SMOOTH",
"199 321 OFFCURVE",
"145 293 OFFCURVE",
"86 271 CURVE",
"188 161 LINE"
);
},
{
closed = 1;
nodes = (
"513 538 LINE",
"534 580 LINE",
"478 655 LINE",
"-36 655 LINE",
"-57 613 LINE",
"0 538 LINE"
);
},
{
closed = 1;
nodes = (
"669 128 OFFCURVE",
"706 157 OFFCURVE",
"742 203 CURVE",
"669 323 LINE",
"644 253 OFFCURVE",
"571 221 OFFCURVE",
"514 235 CURVE",
"476 280 OFFCURVE",
"506 371 OFFCURVE",
"593 371 CURVE SMOOTH",
"628 371 OFFCURVE",
"671 355 OFFCURVE",
"713 324 CURVE",
"735 374 LINE",
"563 479 LINE",
"438 505 OFFCURVE",
"362 414 OFFCURVE",
"362 325 CURVE SMOOTH",
"362 203 OFFCURVE",
"503 128 OFFCURVE",
"605 128 CURVE SMOOTH"
);
},
{
closed = 1;
nodes = (
"810 -21 LINE",
"810 490 LINE",
"706 564 LINE",
"650 590 LINE",
"650 19 LINE",
"764 -43 LINE"
);
},
{
closed = 1;
nodes = (
"921 538 LINE",
"942 580 LINE",
"886 655 LINE",
"204 655 LINE",
"183 613 LINE",
"240 538 LINE"
);
}
);
width = 886;
}
);
leftKerningGroup = Ra;
unicode = 0916;
},
{
glyphname = dvGa;
lastChange = "2019-02-26 16:50:53 +0000";
layers = (
{
anchors = (
{
name = abvmBINDU;
position = "{361, 660}";
},
{
name = abvmCANDRABINDU;
position = "{385, 660}";
},
{
name = abvmCANDRABINDU2;
position = "{768, 660}";
},
{
name = abvmTOP;
position = "{500, 473}";
},
{
name = blwmBOTTOM;
position = "{409, 1}";
}
);
layerId = "3A083A2A-974B-4791-8355-BC872DC0CF17";
paths = (
{
closed = 1;
nodes = (
"590 -21 LINE",
"590 490 LINE",
"486 564 LINE",
"430 590 LINE",
"430 19 LINE",
"544 -43 LINE"
);
},
{
closed = 1;
nodes = (
"284 131 LINE",
"284 305 LINE",
"219 346 LINE",
"51 346 LINE",
"17 292 LINE",
"43 214 OFFCURVE",
"146 124 OFFCURVE",
"223 98 CURVE"
);
},
{
closed = 1;
nodes = (
"284 490 LINE",
"180 564 LINE",
"124 590 LINE",
"130 244 LINE",
"284 204 LINE"
);
},
{
closed = 1;
nodes = (
"700 538 LINE",
"721 580 LINE",
"665 655 LINE",
"-36 655 LINE",
"-57 613 LINE",
"0 538 LINE"
);
}
);
width = 665;
}
);
leftKerningGroup = Ma;
unicode = 0917;
},
{
glyphname = dvGha;
lastChange = "2019-02-26 16:50:53 +0000";
layers = (
{
anchors = (
{
name = abvmBINDU;
position = "{377, 660}";
},
{
name = abvmCANDRABINDU;
position = "{406, 660}";
},
{
name = abvmCANDRABINDU2;
position = "{811, 660}";
},
{
name = abvmTOP;
position = "{544, 473}";
},
{
name = blwmBOTTOM;
position = "{452, 1}";
}
);
layerId = "3A083A2A-974B-4791-8355-BC872DC0CF17";
paths = (
{
closed = 1;
nodes = (
"443 67 OFFCURVE",
"499 91 OFFCURVE",
"537 138 CURVE",
"477 301 LINE",
"441 223 OFFCURVE",
"326 175 OFFCURVE",
"262 193 CURVE",
"228 243 OFFCURVE",
"283 315 OFFCURVE",
"402 299 CURVE",
"423 340 LINE",
"357 444 LINE",
"202 476 OFFCURVE",
"102 382 OFFCURVE",
"102 287 CURVE SMOOTH",
"102 215 OFFCURVE",
"156 154 OFFCURVE",
"218 115 CURVE SMOOTH",
"267 85 OFFCURVE",
"322 67 OFFCURVE",
"378 67 CURVE SMOOTH"
);
},
{
closed = 1;
nodes = (
"255 375 LINE",
"202 395 OFFCURVE",
"176 434 OFFCURVE",
"176 471 CURVE SMOOTH",
"176 505 OFFCURVE",
"198 537 OFFCURVE",
"241 551 CURVE",
"45 593 LINE",
"25 568 OFFCURVE",
"15 542 OFFCURVE",
"15 516 CURVE SMOOTH",
"15 441 OFFCURVE",
"90 371 OFFCURVE",
"223 322 CURVE"
);
},
{
closed = 1;
nodes = (
"633 -21 LINE",
"633 490 LINE",
"529 564 LINE",
"473 590 LINE",
"473 19 LINE",
"587 -43 LINE"
);
},
{
closed = 1;
nodes = (
"744 538 LINE",
"765 580 LINE",
"708 655 LINE",
"-51 655 LINE",
"-72 613 LINE",
"-15 538 LINE"
);
}
);
width = 709;
}
);
leftKerningGroup = Gha;
unicode = 0918;
},
{
glyphname = dvNga;
lastChange = "2019-02-26 16:50:53 +0000";
layers = (
{
anchors = (
{
name = abvmBINDU;
position = "{431, 660}";
},
{
name = abvmCANDRABINDU;
position = "{419, 660}";
},
{
name = abvmCANDRABINDU2;
position = "{752, 660}";
},
{
name = abvmTOP;
position = "{439, 473}";
},
{
name = blwmBOTTOM;
position = "{304, -71}";
}
);
layerId = "3A083A2A-974B-4791-8355-BC872DC0CF17";
paths = (
{
closed = 1;
nodes = (
"491 -71 OFFCURVE",
"570 15 OFFCURVE",
"570 114 CURVE SMOOTH",
"570 200 OFFCURVE",
"509 284 OFFCURVE",
"400 320 CURVE",
"225 269 LINE",
"211 280 OFFCURVE",
"204 294 OFFCURVE",
"204 307 CURVE SMOOTH",
"204 333 OFFCURVE",
"233 351 OFFCURVE",
"278 351 CURVE SMOOTH",
"511 351 LINE",
"419 483 LINE",
"248 483 LINE SMOOTH",
"124 483 OFFCURVE",
"67 420 OFFCURVE",
"67 353 CURVE SMOOTH",
"67 265 OFFCURVE",
"166 175 OFFCURVE",
"312 129 CURVE",
"450 180 LINE",
"455 126 OFFCURVE",
"398 69 OFFCURVE",
"313 69 CURVE SMOOTH",
"235 69 OFFCURVE",
"155 115 OFFCURVE",
"76 235 CURVE",
"8 179 LINE",
"122 12 OFFCURVE",
"239 -71 OFFCURVE",
"364 -71 CURVE SMOOTH"
);
},
{
closed = 1;
nodes = (
"514 490 LINE",
"410 564 LINE",
"370 590 LINE",
"370 367 LINE",
"514 351 LINE"
);
},
{
closed = 1;
nodes = (
"688 213 OFFCURVE",
"724 257 OFFCURVE",
"738 294 CURVE",
"717 321 OFFCURVE",
"673 362 OFFCURVE",
"635 376 CURVE",
"604 357 OFFCURVE",
"571 313 OFFCURVE",
"550 273 CURVE",
"573 241 OFFCURVE",
"623 204 OFFCURVE",
"656 191 CURVE"
);
},
{
closed = 1;
nodes = (
"779 538 LINE",
"800 580 LINE",
"744 655 LINE",
"-36 655 LINE",
"-57 613 LINE",
"0 538 LINE"
);
}
);
width = 744;
}
);
leftKerningGroup = Dda;
rightKerningGroup = Nga;
unicode = 0919;
},
{
glyphname = dvCa;
lastChange = "2018-12-16 00:51:22 +0000";
layers = (
{
anchors = (
{
name = abvmBINDU;
position = "{556, 660}";
},
{
name = abvmCANDRABINDU;
position = "{537, 660}";
},
{
name = abvmCANDRABINDU2;
position = "{820, 660}";
},
{
name = abvmTOP;
position = "{552, 473}";
},
{
name = blwmBOTTOM;
position = "{461, 1}";
}
);
layerId = "3A083A2A-974B-4791-8355-BC872DC0CF17";
paths = (
{
closed = 1;
nodes = (
"465 71 OFFCURVE",
"523 100 OFFCURVE",
"561 154 CURVE",
"493 316 LINE",
"461 239 OFFCURVE",
"357 178 OFFCURVE",
"271 197 CURVE",
"249 261 OFFCURVE",
"292 338 OFFCURVE",
"370 354 CURVE",
"231 436 LINE",
"161 406 OFFCURVE",
"111 356 OFFCURVE",
"111 289 CURVE SMOOTH",
"111 222 OFFCURVE",
"159 161 OFFCURVE",
"221 123 CURVE SMOOTH",
"270 92 OFFCURVE",
"332 71 OFFCURVE",
"394 71 CURVE SMOOTH"
);
},
{
closed = 1;
nodes = (
"418 334 LINE",
"439 376 LINE",
"378 466 LINE",
"6 466 LINE",
"-15 424 LINE",
"39 348 LINE",
"177 348 LINE",
"208 334 LINE"
);
},
{
closed = 1;
nodes = (
"642 -21 LINE",
"642 490 LINE",
"538 564 LINE",
"482 590 LINE",
"482 19 LINE",
"596 -43 LINE"
);
},
{
closed = 1;
nodes = (
"752 538 LINE",
"773 580 LINE",
"717 655 LINE",
"-36 655 LINE",
"-57 613 LINE",
"0 538 LINE"
);
}
);
width = 717;
}
);
unicode = 091A;
},
{
glyphname = dvCha;
lastChange = "2019-02-26 16:50:53 +0000";
layers = (
{
anchors = (
{
name = abvmBINDU;
position = "{399, 660}";
},
{
name = abvmCANDRABINDU;
position = "{420, 660}";
},
{
name = abvmCANDRABINDU2;
position = "{833, 660}";
},
{
name = abvmTOP;
position = "{576, 473}";
},
{
name = blwmBOTTOM;
position = "{368, -77}";
}
);
layerId = "3A083A2A-974B-4791-8355-BC872DC0CF17";
paths = (
{
closed = 1;
nodes = (
"612 -79 OFFCURVE",
"754 79 OFFCURVE",
"754 243 CURVE SMOOTH",
"754 380 OFFCURVE",
"653 498 OFFCURVE",
"536 498 CURVE SMOOTH",
"452 498 OFFCURVE",
"384 436 OFFCURVE",
"384 361 CURVE SMOOTH",
"384 272 OFFCURVE",
"479 184 OFFCURVE",
"598 134 CURVE",
"630 192 LINE",
"551 223 OFFCURVE",
"525 280 OFFCURVE",
"525 324 CURVE SMOOTH",
"525 368 OFFCURVE",
"555 405 OFFCURVE",
"606 388 CURVE",
"620 372 OFFCURVE",
"627 334 OFFCURVE",
"627 303 CURVE SMOOTH",
"627 170 OFFCURVE",
"505 38 OFFCURVE",
"331 38 CURVE SMOOTH",
"312 38 OFFCURVE",
"300 40 OFFCURVE",
"285 44 CURVE",
"273 54 OFFCURVE",
"266 72 OFFCURVE",
"266 87 CURVE SMOOTH",
"266 131 OFFCURVE",
"319 164 OFFCURVE",
"397 136 CURVE",
"429 177 LINE",
"362 282 LINE",
"218 316 OFFCURVE",
"119 237 OFFCURVE",
"119 142 CURVE SMOOTH",
"119 32 OFFCURVE",
"251 -79 OFFCURVE",
"415 -79 CURVE SMOOTH"
);
},
{
closed = 1;
nodes = (
"230 236 LINE",
"175 267 OFFCURVE",
"158 286 OFFCURVE",
"158 309 CURVE SMOOTH",
"158 343 OFFCURVE",
"196 356 OFFCURVE",
"235 356 CURVE SMOOTH",
"319 356 LINE",
"341 397 LINE",
"275 494 LINE",
"175 494 LINE SMOOTH",
"65 494 OFFCURVE",
"18 430 OFFCURVE",
"18 367 CURVE SMOOTH",
"18 296 OFFCURVE",
"77 231 OFFCURVE",
"175 185 CURVE"
);
},
{
closed = 1;
nodes = (
"823 538 LINE",
"844 580 LINE",
"787 655 LINE",
"-36 655 LINE",
"-57 613 LINE",
"0 538 LINE"
);
},
{
closed = 1;
nodes = (
"652 490 LINE",
"548 564 LINE",
"508 590 LINE",
"508 417 LINE",
"652 383 LINE"
);
}
);
width = 788;
}
);
rightKerningGroup = Cha;
unicode = 091B;
},
{
glyphname = dvJa;
lastChange = "2019-02-26 16:50:53 +0000";
layers = (
{
anchors = (
{
name = abvmBINDU;
position = "{583, 660}";
},
{
name = abvmCANDRABINDU;
position = "{564, 660}";
},
{
name = abvmCANDRABINDU2;
position = "{847, 660}";
},
{
name = abvmTOP;
position = "{579, 473}";
},
{
name = blwmBOTTOM;
position = "{488, 1}";
}
);
layerId = "3A083A2A-974B-4791-8355-BC872DC0CF17";
paths = (
{
closed = 1;
nodes = (
"399 29 OFFCURVE",
"454 100 OFFCURVE",
"454 178 CURVE SMOOTH",
"454 272 OFFCURVE",
"374 358 OFFCURVE",
"225 397 CURVE",
"195 405 LINE",
"195 366 LINE",
"270 339 LINE",
"342 291 OFFCURVE",
"331 190 OFFCURVE",
"253 190 CURVE SMOOTH",
"178 190 OFFCURVE",
"141 285 OFFCURVE",
"95 436 CURVE",
"-5 403 LINE",
"51 195 OFFCURVE",
"146 29 OFFCURVE",
"299 29 CURVE SMOOTH"
);
},
{
closed = 1;
nodes = (
"550 310 LINE",
"556 446 LINE",
"195 446 LINE",
"195 397 LINE",
"332 310 LINE"
);
},
{
closed = 1;
nodes = (
"669 -21 LINE",
"669 490 LINE",
"565 564 LINE",
"509 590 LINE",
"509 19 LINE",
"623 -43 LINE"
);
},
{
closed = 1;
nodes = (
"779 538 LINE",
"800 580 LINE",
"744 655 LINE",
"-36 655 LINE",
"-57 613 LINE",
"0 538 LINE"
);
}
);
width = 744;
}
);
leftKerningGroup = Ja;
unicode = 091C;
},
{
glyphname = dvJha;
lastChange = "2019-02-26 16:50:53 +0000";
layers = (
{
anchors = (
{
name = abvmBINDU;
position = "{561, 660}";
},
{
name = abvmCANDRABINDU;
position = "{580, 660}";
},
{
name = abvmCANDRABINDU2;
position = "{965, 660}";
},
{
name = abvmTOP;
position = "{697, 473}";
},
{
name = blwmBOTTOM;
position = "{606, 1}";
}
);
components = (
{
name = dvI;
}
);
layerId = "3A083A2A-974B-4791-8355-BC872DC0CF17";
paths = (
{
closed = 1;
nodes = (
"787 -21 LINE",
"787 490 LINE",
"683 564 LINE",
"627 590 LINE",
"627 19 LINE",
"741 -43 LINE"
);
},
{
closed = 1;
nodes = (
"639 321 LINE",
"588 265 OFFCURVE",
"479 275 OFFCURVE",
"391 311 CURVE",
"377 257 LINE",
"467 182 OFFCURVE",
"577 143 OFFCURVE",
"642 167 CURVE"
);
},
{
closed = 1;
nodes = (
"897 538 LINE",
"918 580 LINE",
"862 655 LINE",
"512 655 LINE",
"491 613 LINE",
"547 538 LINE"
);
}
);
width = 862;
}
);
leftKerningGroup = Dda;
unicode = 091D;
},
{
glyphname = dvJha.NEP;
lastChange = "2019-02-26 16:50:53 +0000";
layers = (
{
anchors = (
{
name = abvmBINDU;
position = "{531, 660}";
},
{
name = abvmCANDRABINDU;
position = "{512, 660}";
},
{
name = abvmCANDRABINDU2;
position = "{831, 660}";
},
{
name = abvmTOP;
position = "{520, 473}";
},
{
name = blwmBOTTOM;
position = "{427, 1}";
}
);
layerId = "3A083A2A-974B-4791-8355-BC872DC0CF17";
paths = (
{
closed = 1;
nodes = (
"334 448 LINE",
"334 555 OFFCURVE",
"220 678 OFFCURVE",
"101 678 CURVE SMOOTH",
"19 678 OFFCURVE",
"-33 618 OFFCURVE",
"-33 555 CURVE SMOOTH",
"-33 506 OFFCURVE",
"-2 456 OFFCURVE",
"82 399 CURVE",
"139 446 LINE",
"63 502 OFFCURVE",
"102 569 OFFCURVE",
"163 566 CURVE",
"176 550 OFFCURVE",
"180 523 OFFCURVE",
"180 495 CURVE SMOOTH",
"181 239 LINE",
"334 219 LINE"
);
},
{
closed = 1;
nodes = (
"336 123 LINE",
"336 308 LINE",
"269 348 LINE",
"102 348 LINE",
"68 295 LINE",
"93 216 OFFCURVE",
"199 116 OFFCURVE",
"276 90 CURVE"
);
},
{
closed = 1;
nodes = (
"564 212 LINE",
"542 348 LINE",
"214 348 LINE",
"245 212 LINE"
);
},
{
closed = 1;
nodes = (
"608 -21 LINE",
"608 490 LINE",
"504 564 LINE",
"448 590 LINE",
"448 19 LINE",
"562 -43 LINE"
);
},
{
closed = 1;
nodes = (
"856 12 OFFCURVE",
"895 78 OFFCURVE",
"895 147 CURVE SMOOTH",
"895 264 OFFCURVE",
"783 371 OFFCURVE",
"665 371 CURVE",
"569 371 LINE",
"587 226 LINE",
"680 226 LINE",
"726 226 OFFCURVE",
"752 210 OFFCURVE",
"752 180 CURVE SMOOTH",
"752 146 OFFCURVE",
"717 101 OFFCURVE",
"653 54 CURVE",
"770 -54 LINE"
);
},
{
closed = 1;
nodes = (
"923 538 LINE",
"944 580 LINE",
"888 655 LINE",
"386 655 LINE",
"365 613 LINE",
"421 538 LINE"
);
}
);
width = 889;
}
);
leftKerningGroup = Ma;
rightKerningGroup = Ka;
},
{
glyphname = dvNya;
lastChange = "2018-12-16 00:51:22 +0000";
layers = (
{
anchors = (
{
name = abvmBINDU;
position = "{650, 660}";
},
{
name = abvmCANDRABINDU;
position = "{631, 660}";
},
{
name = abvmCANDRABINDU2;
position = "{914, 660}";
},
{
name = abvmTOP;
position = "{646, 473}";
},
{
name = blwmBOTTOM;
position = "{555, 1}";
}
);
layerId = "3A083A2A-974B-4791-8355-BC872DC0CF17";
paths = (
{
closed = 1;
nodes = (
"438 59 OFFCURVE",
"521 148 OFFCURVE",
"521 257 CURVE SMOOTH",
"521 387 OFFCURVE",
"404 493 OFFCURVE",
"282 493 CURVE SMOOTH",
"235 493 OFFCURVE",
"179 478 OFFCURVE",
"130 422 CURVE",
"226 296 LINE",
"370 414 LINE",
"294 391 LINE",
"347 388 OFFCURVE",
"379 345 OFFCURVE",
"379 300 CURVE SMOOTH",
"379 251 OFFCURVE",
"342 202 OFFCURVE",
"271 202 CURVE SMOOTH",
"191 202 OFFCURVE",
"132 265 OFFCURVE",
"55 392 CURVE",
"-24 338 LINE",
"98 113 OFFCURVE",
"236 59 OFFCURVE",
"324 59 CURVE SMOOTH"
);
},
{
closed = 1;
nodes = (
"639 348 LINE",
"591 293 OFFCURVE",
"486 301 OFFCURVE",
"405 337 CURVE",
"391 280 LINE",
"470 211 OFFCURVE",
"579 172 OFFCURVE",
"641 195 CURVE"
);
},
{
closed = 1;
nodes = (
"736 -21 LINE",
"736 490 LINE",
"632 564 LINE",
"576 590 LINE",
"576 19 LINE",
"690 -43 LINE"
);
},
{
closed = 1;
nodes = (
"846 538 LINE",
"867 580 LINE",
"811 655 LINE",
"-36 655 LINE",
"-57 613 LINE",
"0 538 LINE"
);
}
);
width = 811;
}
);
unicode = 091E;
},
{
glyphname = dvTta;
lastChange = "2019-02-26 16:50:53 +0000";
layers = (
{
anchors = (
{
name = abvmBINDU;
position = "{365, 660}";
},
{
name = abvmCANDRABINDU;
position = "{349, 660}";
},
{
name = abvmCANDRABINDU2;
position = "{606, 660}";
},
{
name = abvmTOP;
position = "{392, 473}";
},
{
name = blwmBOTTOM;
position = "{303, -31}";
}
);
layerId = "3A083A2A-974B-4791-8355-BC872DC0CF17";
paths = (
{
closed = 1;
nodes = (
"421 -34 OFFCURVE",
"509 -10 OFFCURVE",
"573 69 CURVE",
"483 200 LINE",
"414 125 OFFCURVE",
"284 88 OFFCURVE",
"206 125 CURVE",
"188 145 OFFCURVE",
"178 165 OFFCURVE",
"178 190 CURVE SMOOTH",
"178 239 OFFCURVE",
"216 281 OFFCURVE",
"299 281 CURVE SMOOTH",
"465 281 LINE",
"382 432 LINE",
"260 432 LINE SMOOTH",
"93 432 OFFCURVE",
"26 345 OFFCURVE",
"26 249 CURVE SMOOTH",
"26 89 OFFCURVE",
"209 -34 OFFCURVE",
"356 -34 CURVE SMOOTH"
);
},
{
closed = 1;
nodes = (
"465 490 LINE",
"361 564 LINE",
"310 590 LINE",
"310 323 LINE",
"465 281 LINE"
);
},
{
closed = 1;
nodes = (
"619 538 LINE",
"640 580 LINE",
"584 655 LINE",
"-36 655 LINE",
"-57 613 LINE",
"0 538 LINE"
);
}
);
width = 584;
}
);
leftKerningGroup = Da;
rightKerningGroup = Tta;
unicode = 091F;
},
